<svg xmlns="http://www.w3.org/2000/svg" width="44.076" height="44.067" viewBox="0 0 44.076 44.067">
  <path id="instagram_2_" data-name="instagram (2)" d="M21.968,42.56a11.3,11.3,0,1,0,11.3,11.3A11.28,11.28,0,0,0,21.968,42.56Zm0,18.643a7.345,7.345,0,1,1,7.345-7.345A7.359,7.359,0,0,1,21.968,61.2ZM36.364,42.1a2.635,2.635,0,1,1-2.635-2.635A2.629,2.629,0,0,1,36.364,42.1Zm7.483,2.675c-.167-3.53-.973-6.657-3.56-9.233s-5.7-3.383-9.233-3.56c-3.638-.206-14.543-.206-18.181,0-3.52.167-6.647.973-9.233,3.55S.257,41.233.08,44.763C-.127,48.4-.127,59.306.08,62.944c.167,3.53.973,6.657,3.56,9.233s5.7,3.383,9.233,3.56c3.638.206,14.543.206,18.181,0,3.53-.167,6.657-.973,9.233-3.56s3.383-5.7,3.56-9.233c.206-3.638.206-14.533,0-18.171Zm-4.7,22.075a7.436,7.436,0,0,1-4.189,4.189c-2.9,1.15-9.784.885-12.989.885s-10.1.256-12.989-.885A7.436,7.436,0,0,1,4.79,66.848c-1.15-2.9-.885-9.784-.885-12.989s-.256-10.1.885-12.989A7.436,7.436,0,0,1,8.979,36.68c2.9-1.15,9.784-.885,12.989-.885s10.1-.256,12.989.885a7.436,7.436,0,0,1,4.189,4.189c1.15,2.9.885,9.784.885,12.989S40.3,63.957,39.146,66.848Z" transform="translate(0.075 -31.825)" fill="#9c121e"/>
</svg>
