<svg xmlns="http://www.w3.org/2000/svg" width="56.721" height="56.721" viewBox="0 0 56.721 56.721">
  <path id="phone-solid_1_" data-name="phone-solid (1)" d="M18.268,2.705A4.417,4.417,0,0,0,13.017.135L3.268,2.794A4.444,4.444,0,0,0,0,7.07,49.632,49.632,0,0,0,49.629,56.7a4.444,4.444,0,0,0,4.276-3.268l2.659-9.749a4.417,4.417,0,0,0-2.57-5.251L43.359,34a4.417,4.417,0,0,0-5.129,1.285l-4.475,5.461a37.44,37.44,0,0,1-17.8-17.8l5.461-4.464A4.421,4.421,0,0,0,22.7,13.351L18.268,2.716Z" transform="translate(0 0.022)" fill="#9c121e"/>
</svg>
