<svg xmlns="http://www.w3.org/2000/svg" width="29.544" height="62.494" viewBox="0 0 29.544 62.494">
  <g id="Layer_1" data-name="Layer 1" transform="translate(-307.48 -307.497)">
    <g id="Group_256" data-name="Group 256" transform="translate(307.987 307.997)">
      <g id="Group_252" data-name="Group 252" transform="translate(3.655 52.419)">
        <path id="Path_1060" data-name="Path 1060" d="M35.093,203.467c0,2.506-4.754,4.537-10.616,4.537s-10.616-2.032-10.616-4.537,4.754-4.537,10.616-4.537S35.093,200.962,35.093,203.467Z" transform="translate(-13.86 -198.93)" fill="#fff" stroke="#b2857f" stroke-width="1"/>
        <path id="Path_1061" data-name="Path 1061" d="M37.126,203.476c0,2.063-4.242,3.736-9.478,3.736s-9.478-1.673-9.478-3.736,4.242-3.736,9.478-3.736,9.478,1.673,9.478,3.736Z" transform="translate(-17.034 -199.527)" fill="#fff" stroke="#b2857f" stroke-width="1"/>
        <path id="Path_1062" data-name="Path 1062" d="M40.577,219.753a11.859,11.859,0,0,1-3.663,1.291,21.315,21.315,0,0,1-3.881.377,21.592,21.592,0,0,1-3.887-.337,12.477,12.477,0,0,1-3.686-1.228,11.908,11.908,0,0,0,1.829.632,16.506,16.506,0,0,0,1.892.393,23.237,23.237,0,0,0,3.85.271,23.221,23.221,0,0,0,3.847-.311,16.085,16.085,0,0,0,1.887-.419,10.969,10.969,0,0,0,1.816-.672Z" transform="translate(-22.403 -214.264)" fill="#fff" stroke="#b2857f" stroke-width="1"/>
      </g>
      <g id="Group_253" data-name="Group 253" transform="translate(8.746 31.281)">
        <path id="Path_1063" data-name="Path 1063" d="M39.454,118.774c.05,1.078.034,2.2.026,3.31l-.034,3.36c-.013,2.242.016,4.493.177,6.738a33.826,33.826,0,0,0,1.046,6.672,13.643,13.643,0,0,0,1.27,3.13,6.516,6.516,0,0,0,2.285,2.432H33.18a6.523,6.523,0,0,0,2.287-2.432,13.811,13.811,0,0,0,1.27-3.13,34.022,34.022,0,0,0,1.046-6.672c.158-2.245.187-4.5.177-6.738l-.034-3.36c-.011-1.112-.026-2.232.026-3.31l-.572-.013,3.046-.011-.978.024Z" transform="translate(-33.18 -118.739)" fill="#fff" stroke="#b2857f" stroke-width="1"/>
        <path id="Path_1064" data-name="Path 1064" d="M59.618,141.864a6.451,6.451,0,0,0,2.121,2.522,6.516,6.516,0,0,1-2.285-2.432,13.691,13.691,0,0,1-1.27-3.13,33.826,33.826,0,0,1-1.046-6.672c-.161-2.245-.19-4.5-.177-6.738l.034-3.36c.008-1.112.024-2.232-.026-3.31l.978-.024.514-.011c-.011,1.159-.09,2.274-.161,3.394l-.219,3.344c-.137,2.227-.232,4.451-.195,6.672a33.255,33.255,0,0,0,.664,6.611,13.512,13.512,0,0,0,1.075,3.133Z" transform="translate(-50.693 -118.71)" fill="#fff" stroke="#b2857f" stroke-width="1"/>
        <path id="Path_1065" data-name="Path 1065" d="M37.98,125.413c.011,2.242-.018,4.493-.177,6.738a34.022,34.022,0,0,1-1.046,6.672,13.763,13.763,0,0,1-1.27,3.13,6.523,6.523,0,0,1-2.287,2.432,6.392,6.392,0,0,0,2.124-2.522,13.424,13.424,0,0,0,1.072-3.133,33.673,33.673,0,0,0,.667-6.611c.032-2.221-.061-4.445-.195-6.672l-.221-3.344c-.074-1.12-.153-2.234-.161-3.394l.92.021.572.013c-.055,1.078-.037,2.2-.026,3.31l.034,3.36Z" transform="translate(-33.195 -118.71)" fill="#fff" stroke="#b2857f" stroke-width="1"/>
      </g>
      <g id="Group_255" data-name="Group 255" transform="translate(0 0)">
        <g id="Group_254" data-name="Group 254">
          <path id="Path_1066" data-name="Path 1066" d="M25.632,3.43c-1.2-.9-4.092-1.61-9.006-1.61s-8.192.675-9.441,1.61A19.019,19.019,0,0,0,2.91,15.746q0,.486.024.964c.4,8.869,6.279,15.91,13.475,15.91S29.484,25.58,29.885,16.71c.013-.319.024-.64.024-.964A18.992,18.992,0,0,0,25.632,3.43Z" transform="translate(-2.14 -1.34)" fill="#fff" stroke="#b2857f" stroke-width="1"/>
          <path id="Path_1067" data-name="Path 1067" d="M23.113,2.491a6.249,6.249,0,0,0-1.931-.827,17.637,17.637,0,0,0-2.258-.443A36.123,36.123,0,0,0,14.259.96a38.719,38.719,0,0,0-4.667.282,18.221,18.221,0,0,0-2.261.432,6.006,6.006,0,0,0-1.976.843l.087-.079a16.349,16.349,0,0,0-2.35,3.821,18.708,18.708,0,0,0-1.291,4.3,20.189,20.189,0,0,0,.48,8.877,16.556,16.556,0,0,0,4.382,7.5,12.111,12.111,0,0,0,3.52,2.377,10.331,10.331,0,0,0,2,.646c.343.071.688.124,1.033.161q.261.028.522.04l.261.011h.245a10.947,10.947,0,0,0,7.613-3.233,16.547,16.547,0,0,0,4.382-7.5,19.921,19.921,0,0,0,.733-4.4c.021-.372.029-.735.032-1.125,0-.364-.011-.743-.032-1.115a19.326,19.326,0,0,0-.253-2.234,18.49,18.49,0,0,0-1.291-4.3,16.358,16.358,0,0,0-2.311-3.768Zm.777-.751a17.483,17.483,0,0,1,2.619,4.018A20.334,20.334,0,0,1,28.046,10.3a22.612,22.612,0,0,1,.369,2.377c.042.4.069.8.087,1.209.016.385.026.8.021,1.2a21.584,21.584,0,0,1-.585,4.793,18.262,18.262,0,0,1-4.617,8.548,13.893,13.893,0,0,1-4.1,2.877,12.083,12.083,0,0,1-3.684,1.007c-.213.026-.422.04-.643.053l-.329.013-.29.005-.337-.005-.319-.013c-.213-.013-.427-.029-.638-.053q-.636-.071-1.265-.206a12.7,12.7,0,0,1-2.419-.8A13.988,13.988,0,0,1,5.19,28.43,18.3,18.3,0,0,1,.573,19.882,21.9,21.9,0,0,1,.465,10.3,20.355,20.355,0,0,1,2,5.755,17.57,17.57,0,0,1,4.62,1.737l.042-.05L4.7,1.655a5.106,5.106,0,0,1,1.17-.617A10.05,10.05,0,0,1,7.068.667a19.488,19.488,0,0,1,2.4-.419,41.892,41.892,0,0,1,4.8-.25,38.45,38.45,0,0,1,4.79.237,18.411,18.411,0,0,1,2.4.427,7.023,7.023,0,0,1,2.35.991l.045.032.047.053Z" transform="translate(0.013 0.003)" fill="#fff" stroke="#b2857f" stroke-width="1"/>
        </g>
        <path id="Path_1068" data-name="Path 1068" d="M40.8,8.62l1.515.74a9.254,9.254,0,0,1-2.3.933,20.74,20.74,0,0,1-2.332.49,31.23,31.23,0,0,1-4.693.348,30.8,30.8,0,0,1-4.656-.34A13.319,13.319,0,0,1,23.89,9.624c2.469,1.507,16.379,1.112,16.917-1Z" transform="translate(-17.592 -6.348)" fill="#fff" stroke="#b2857f" stroke-width="1"/>
        <path id="Path_1069" data-name="Path 1069" d="M32.451,51.907a22.539,22.539,0,0,1-2.846.682,33.571,33.571,0,0,1-5.726.482A33.05,33.05,0,0,1,18.2,52.6a15.779,15.779,0,0,1-5.107-1.441,2.662,2.662,0,0,1-.314-.184c.1.063.208.126.314.184,3.668,1.852,19.257,1.286,20.292-1.465-.448-1.592-5.449-2.843-11.557-2.843S10.23,48.228,10.23,49.925v.021a15.314,15.314,0,0,0,5.676,11.66,9.656,9.656,0,0,0,11.836,0,14.911,14.911,0,0,0,5.518-9.984c-.269.1-.538.192-.806.282Z" transform="translate(-7.531 -34.504)" fill="#6a121e" stroke="#b2857f" stroke-width="1"/>
        <path id="Path_1070" data-name="Path 1070" d="M13.711,14.816a3.035,3.035,0,0,1-.327-.047,3.694,3.694,0,0,1-.862-.277c-.087-.04-.177-.087-.269-.137l-.024-.013s-.011-.008-.013,0l-.029.045-.09.137c-.121.187-.248.39-.377.606-.258.432-.53.912-.8,1.428A25.145,25.145,0,0,0,9.3,20.428s.113-.458.358-1.18a19.968,19.968,0,0,1,1.17-2.74c.269-.516.548-1,.817-1.426.134-.213.266-.414.393-.6l.095-.137.061-.087s.005-.013.011-.011l.013.008.026.016.042.026c.087.053.174.1.258.145a3.709,3.709,0,0,0,.841.308c.208.047.324.061.324.063Z" transform="translate(-6.846 -10.493)" fill="#fff" stroke="#b2857f" stroke-width="1"/>
      </g>
    </g>
  </g>
</svg>
