<svg xmlns="http://www.w3.org/2000/svg" width="45.18" height="59.225" viewBox="0 0 45.18 59.225">
  <g id="Group_324" data-name="Group 324" transform="translate(-187.04 -54.589)">
    <path id="Path_804" data-name="Path 804" d="M211.646,148.591c.01-.082.019-.164.024-.241a2.743,2.743,0,0,1-1.93.943,2.7,2.7,0,0,1,.4.645,2.864,2.864,0,0,1,1.5-1.348Z" transform="translate(-11.774 -48.633)" fill="#b2857f"/>
    <path id="Path_805" data-name="Path 805" d="M222.523,74.314c-.871-.943-2.07-1.429-2.459-2.614a13.735,13.735,0,0,1-.207-3.3c-.038-1.121-.048-2.33-.053-3.4-.014-2.455-.168-4.876-.106-6.9a.593.593,0,0,0,.337-.554V56.053a.592.592,0,0,0-.342-.554c0-.12,0-.231-.01-.337a.48.48,0,0,0-.1-.274.589.589,0,0,0-.457-.27c-1.41-.043-2.96-.039-4.308.014a.551.551,0,0,0-.433.255.571.571,0,0,0-.106.294v.289a.574.574,0,0,0-.448.582v1.492a.58.58,0,0,0,.428.582c-.01,1,0,2.108-.048,3.21-.091,2.219-.159,4.674-.26,6.8a15.078,15.078,0,0,1-.159,3.451c-.51,1.372-2.108,2.055-2.984,3.138a6.867,6.867,0,0,0-1.516,4.341c-.029,1.545-.053,3.085-.067,4.63.063.067.13.13.2.2a11.489,11.489,0,0,1,1.208,1.559c.125.193.241.395.356.6l.058.1c-.019-.217-.024-.448-.029-.688a4.845,4.845,0,0,0-.27-1.843l-.332-.751.76-.3a2.867,2.867,0,0,0,1.555-1.651l.356-.837.775.476a1.233,1.233,0,0,0,.631.13,6.6,6.6,0,0,0,.967-.1c.144-.024.279-.043.395-.058l1.271-.154-.438,1.2a2.312,2.312,0,0,0-.13.539h.024a2.838,2.838,0,0,0,1.314-.395l1.035-.558.12,1.17a.791.791,0,0,0,.154.395,2.089,2.089,0,0,0,.847.616,7.263,7.263,0,0,0,2.161-.149s-.058.26-.116.674l1.3.217-1.42,1.073a7.939,7.939,0,0,0,.212,2.257c.327,1.232-.722,3.648.019,5.742.318.9-.322,2.151,0,3.822.193.977-.8,1.916,0,3.985.3.789-.366,1.718,0,3.379.106.486-.443,1.16,0,1.988-.616.448-1.738-.573-2.806-.087-1.044.477-1.824-.178-2.9.087-.727.178-1.41-.337-2.166-.212a2.726,2.726,0,0,1-.871.428,2.852,2.852,0,0,1-.78.111,2.944,2.944,0,0,1-1.381-.351,3.855,3.855,0,0,1,.948,1.622,3.311,3.311,0,0,1-2,4.207,2.691,2.691,0,0,1-1.189.077,2.225,2.225,0,0,0,2.142,1.584h10.671a2.3,2.3,0,0,0,2.3-2.3c0-5.275.058-10.752.111-15.59.048-4.563-.159-9.179.053-13.708a19.822,19.822,0,0,0-.053-4.447,7.2,7.2,0,0,0-1.781-3.451Z" transform="translate(-11.427)" fill="#b2857f"/>
    <path id="Path_806" data-name="Path 806" d="M209.11,159.012h.014a2.945,2.945,0,0,1,1.381.351,3.743,3.743,0,0,1-.847-1.324,3.822,3.822,0,0,1-.241.4,4.767,4.767,0,0,1-.3.38v.193Z" transform="translate(-11.448 -53.659)" fill="#b2857f"/>
    <path id="Path_807" data-name="Path 807" d="M191.651,127.7a2.334,2.334,0,1,0-2.305,2.7A2.523,2.523,0,0,0,191.651,127.7Z" transform="translate(0 -36.521)" fill="#b2857f"/>
    <path id="Path_808" data-name="Path 808" d="M196.868,139.642a2.334,2.334,0,1,0-1.357,3.278A2.525,2.525,0,0,0,196.868,139.642Z" transform="translate(-2.743 -43.106)" fill="#b2857f"/>
    <path id="Path_809" data-name="Path 809" d="M215.1,120.795c-.669-.539-1.324-1.093-1.978-1.646s-1.3-1.117-1.949-1.685c-.433-.385-.862-.765-1.285-1.155-.091-.087-.183-.168-.274-.255l-.063.034a3.237,3.237,0,0,0-.236.65l-.029.1a9.176,9.176,0,0,0-.188,1.155c-.053.491-.077.982-.1,1.478-.01.3-.019.592-.024.89-.01.794,0,1.588.014,2.382l.019,1.194a7.833,7.833,0,0,1-.043,1.165v0a8.481,8.481,0,0,0-.01-1.16l-.072-1.189c-.048-.794-.1-1.588-.125-2.387s-.034-1.6.014-2.4c.019-.289.048-.578.091-.866.014-.116.029-.226.053-.342s.043-.2.067-.3c-.183.13-.366.26-.549.395q-.686.52-1.328,1.1a.453.453,0,0,0-.048.048,14.174,14.174,0,0,0-1.165,1.179,5.741,5.741,0,0,0-.857,1.256c-.014.029-.029.053-.043.082a2.586,2.586,0,0,1,.991-.308h.024a.507.507,0,0,1,.274.072l.111.067.043.12a3.128,3.128,0,0,1-.067,2.108.173.173,0,0,1-.019.053h.087a1.54,1.54,0,0,1,.6.125,3.181,3.181,0,0,1,1.444,1.559c.043.082.082.168.12.25.014.029.024.053.034.077.029.063.053.125.082.183.014.029.024.058.039.087.024.058.048.116.067.173.01.024.019.048.029.077.029.077.058.154.082.226.01-.024.024-.043.034-.067.072-.14.144-.279.2-.4s.106-.207.154-.313a3.1,3.1,0,0,1,1.107-1.454c-.159-1.146-.236-2.45.144-2.9a.546.546,0,0,1,.414-.2c.327,0,.751.236,1.386,1.911a1.031,1.031,0,0,1,.313-.048c.688,0,.958.664,1.1,1.247v.01h0a3.659,3.659,0,0,1,2.32-.7,7.548,7.548,0,0,1,1.68.207,5.52,5.52,0,0,1,.1-4.13,1.637,1.637,0,0,1-1.309-.558.974.974,0,0,1-.135-.669c-1.944-.4-2.19-.833-2.156-1.208.019-.217.077-.866,3.018-.934.14-.525.866-1.049,1.574-1.559.13-.1.294-.212.438-.322a4.7,4.7,0,0,1-2.883-1.352c0-.01-.014-.014-.019-.024a1.574,1.574,0,0,1-.3-.775,3.593,3.593,0,0,1-1.685.491,2.712,2.712,0,0,1-.481-.043l-.125-.024-.082-.1c-.221-.265-.125-.919.058-1.425-.111.014-.236.034-.361.053a7.3,7.3,0,0,1-1.1.111,1.985,1.985,0,0,1-1.044-.245,3.6,3.6,0,0,1-1.94,2.05l-.048.019a5.505,5.505,0,0,1,.332,2.147,5.8,5.8,0,0,0,.058.886,1.028,1.028,0,0,0,.029.13c.024-.039.048-.082.072-.12.491-.823,1.006-1.627,1.564-2.407.135-.188.274-.375.419-.558.2-.265.4-.52.626-.77a7.775,7.775,0,0,1,.587-.606,2.866,2.866,0,0,1,.683-.491,2.725,2.725,0,0,0-.645.529,7.584,7.584,0,0,0-.539.64c-.183.236-.351.476-.52.727-.144.217-.289.438-.428.659-.467.756-.9,1.531-1.309,2.32-.034.063-.067.12-.1.178l.125-.029c.12-.029.236-.058.356-.082.39-.082.785-.159,1.174-.231.785-.144,1.564-.274,2.349-.409s1.564-.27,2.344-.414c.39-.072.78-.149,1.165-.231a10.646,10.646,0,0,0,1.15-.3,9.688,9.688,0,0,1-1.136.356c-.385.1-.77.2-1.16.284-.775.178-1.55.351-2.33.52s-1.555.337-2.325.515c-.385.091-.77.183-1.15.279-.207.058-.419.116-.621.178-.063.019-.125.039-.183.058v.019c.038.034.077.072.111.106.438.443.9.886,1.348,1.319.621.592,1.242,1.179,1.872,1.762s1.261,1.16,1.906,1.723c.322.284.645.563.972.837a11.432,11.432,0,0,0,1.02.78,10.6,10.6,0,0,1-1.054-.736c-.342-.26-.679-.529-1.011-.8Z" transform="translate(-9.316 -28.725)" fill="#b2857f"/>
    <path id="Path_810" data-name="Path 810" d="M207.86,122.183c-.058.01-.116.014-.173.024a9.2,9.2,0,0,1-1.2.116h-.063a3.519,3.519,0,0,1-.871-.1.294.294,0,0,1-.014.063,3.475,3.475,0,0,1-1.487,2.05c-.063.043-.12.091-.188.135a2.054,2.054,0,0,1,.409,1.068,7.757,7.757,0,0,1,.053.987c0,.106,0,.231,0,.347.024-.014.048-.024.077-.039.01-.029.024-.053.034-.082a5.661,5.661,0,0,1,.789-1.333,14.826,14.826,0,0,1,1.146-1.314c.034-.034.067-.067.1-.1.375-.38.765-.746,1.174-1.1.26-.221.525-.433.8-.64l.053-.039c.043-.034.087-.067.135-.1H208.5a4.706,4.706,0,0,0-.631.058Z" transform="translate(-8.724 -35.033)" fill="#b2857f"/>
    <path id="Path_811" data-name="Path 811" d="M195.2,112.452a12.265,12.265,0,0,1,2.739.948,7.514,7.514,0,0,1,1.271.924,9.846,9.846,0,0,1,.842.886c.024.029.048.053.067.077a2.966,2.966,0,0,0,.525.043h.067a9.127,9.127,0,0,0,1.093-.106h0a.322.322,0,0,0-.034-.053c-.1-.173-.193-.342-.3-.5a9.92,9.92,0,0,0-.756-1.016c-.12-.149-.241-.3-.371-.438a11.655,11.655,0,0,0-1.372-1.271,6.461,6.461,0,0,0-1.7-.939c-.063-.024-.144-.058-.25-.1A10.513,10.513,0,0,0,194,110.05a.886.886,0,0,0-.631.2c-.014.014-.034.029-.058.048-.217.183-.785.664-.472,1.2.212.366.914.568,2.349.958Z" transform="translate(-2.961 -28.767)" fill="#b2857f"/>
    <path id="Path_812" data-name="Path 812" d="M202.046,131.359c.014-.043.029-.082.048-.13a3.02,3.02,0,0,0,.245-1.665c-.058.014-.12.039-.188.063a2.2,2.2,0,0,0-.659.356l-.019.029-.014.024-.226.361-.135-.164-.019-.024-.159-.193a1.58,1.58,0,0,1-.221-1v-.2a5.055,5.055,0,0,0-.284-1.911c-.091-.207-.024-.5-.611-.3a4.676,4.676,0,0,0-.472.2,1.8,1.8,0,0,0-.529.409,2.069,2.069,0,0,0-.534,1.261v.077a2.864,2.864,0,0,0,.958,2.185,2.743,2.743,0,0,0,2.768.645c.019-.01.043-.01.063-.019Z" transform="translate(-5.822 -37.322)" fill="#b2857f"/>
    <path id="Path_813" data-name="Path 813" d="M206.445,143.036a2.071,2.071,0,0,0,.881-.159,2.2,2.2,0,0,0,1.251-1.656c.01-.058.024-.116.029-.173.01-.1.024-.193.024-.289a.208.208,0,0,1-.034.029.678.678,0,0,1-.217.164l-.39.178-.043.019-.043-.274-.034-.2a5.6,5.6,0,0,0-1.405-2.666.978.978,0,0,0-.6-.231.939.939,0,0,0-.332.072c-.043.019-.087.029-.135.053l-.52.183a2.606,2.606,0,0,0-.741,3.215,2.725,2.725,0,0,0,2.305,1.723Z" transform="translate(-8.739 -43.15)" fill="#b2857f"/>
    <path id="Path_814" data-name="Path 814" d="M218.785,143.354a2.529,2.529,0,0,0,1.463-3.234,2.989,2.989,0,0,0-.823-1.357c-.01-.01-.019-.014-.024-.019a2.685,2.685,0,0,0-.659-.443c-.019-.01-.034-.01-.053-.019a2,2,0,0,0-1.853.087,1.817,1.817,0,0,0-.25.178,2.7,2.7,0,0,0-.76,2.864,2.521,2.521,0,0,0,2.965,1.944Z" transform="translate(-14.866 -43.315)" fill="#b2857f"/>
    <path id="Path_815" data-name="Path 815" d="M203.733,153.742a3.044,3.044,0,0,0,.361-.688,2.657,2.657,0,0,0,.014-1.916,2.052,2.052,0,0,0-.727-.929,2.727,2.727,0,1,0,.356,3.523Z" transform="translate(-6.412 -49.409)" fill="#b2857f"/>
    <path id="Path_816" data-name="Path 816" d="M212.624,155.03a2.13,2.13,0,0,0,1.8.313,2.73,2.73,0,0,0-1.507-5.179,1.989,1.989,0,0,0-.568.27,2.664,2.664,0,0,0-.9,2.965,2.955,2.955,0,0,0,1.165,1.632Z" transform="translate(-12.599 -49.532)" fill="#b2857f"/>
    <path id="Path_817" data-name="Path 817" d="M207.766,166.956a2.523,2.523,0,0,0,1.458-3.234,2.645,2.645,0,0,0-2.431-2.021,1.839,1.839,0,0,0-.534.077,2.529,2.529,0,0,0-1.463,3.234,2.769,2.769,0,0,0,1.9,1.959,2,2,0,0,0,1.064-.014Z" transform="translate(-9.146 -55.557)" fill="#b2857f"/>
    <path id="Path_818" data-name="Path 818" d="M263.822,144.087c-.019-.193-.043-.38-.082-.573a7.757,7.757,0,0,0-.3-1.069c-.053-.154-.116-.308-.178-.462h.019l-.294-.621c-.01-.024-.024-.043-.034-.067l-.038-.077h0c-.144-.294-.289-.582-.438-.871-.193-.361-.395-.717-.6-1.073-.245-.428-.5-.857-.741-1.285l-.327-.563a.726.726,0,0,0-.25-.361c-.14-.111-.173-.135-5.328-.135-3.73,0-3.74.01-3.879.111a.686.686,0,0,0-.284.39c-.019.029-.034.058-.053.087l-.27.462c-.207.351-.409.708-.611,1.059-.27.472-.534.953-.8,1.429-.125.226-.245.472-.38.751h0l-.207.443s-.01.024-.014.034l-.14.308h.014c-.13.318-.245.626-.332.914a5.715,5.715,0,0,0-.212,1.016c-.019.144-.029.294-.034.443,0,.12,0,.241.01.361s.019.217.034.322a3.491,3.491,0,0,0,.082.375l.024.087a3.717,3.717,0,0,0,.347.881,5.761,5.761,0,0,0,.871,1.179,7.114,7.114,0,0,0,.76.7,8.54,8.54,0,0,0,1.718,1.059,9.272,9.272,0,0,0,1.608.573c.111.029.226.053.342.082a.869.869,0,0,0,.091.1.9.9,0,0,0,.116.087,1.379,1.379,0,0,1,.308.255,1.525,1.525,0,0,1,.337.621,2.4,2.4,0,0,1,.082.529,2.731,2.731,0,0,1-.014.5,2.529,2.529,0,0,1-.212.722,1.828,1.828,0,0,1-.992.943.834.834,0,0,0-.188.106l-.067.014c-.154.029-.308.053-.467.087a5.482,5.482,0,0,0-.948.274,2.4,2.4,0,0,0-.467.241.84.84,0,0,0-.25.255.616.616,0,0,0-.087.327v.265a.747.747,0,0,0,.019.14.63.63,0,0,0,.154.274.978.978,0,0,0,.308.221,2.853,2.853,0,0,0,.6.212,8.4,8.4,0,0,0,.871.168l.12.019c.111.019.221.029.332.038.077.01.149.014.226.024.221.029.448.043.669.058l.14.01c.183.01.366.019.549.024.245.01.486.014.732.019h.053c.106,0,.217,0,.322,0h.356c.135-.01.265-.01.4-.014.082,0,.164-.01.25-.014l.505-.029c.072,0,.144-.01.217-.014l.414-.043h.058c.125-.019.255-.034.38-.053.067-.01.13-.019.2-.034l.111-.019a7.957,7.957,0,0,0,.847-.178,2.247,2.247,0,0,0,.486-.188,1,1,0,0,0,.27-.2.566.566,0,0,0,.164-.472v-.024c0-.067,0-.135,0-.2a.636.636,0,0,0-.159-.414,1.173,1.173,0,0,0-.245-.2,2.558,2.558,0,0,0-.414-.2,7.244,7.244,0,0,0-1.232-.327l-.236-.039a.929.929,0,0,0-.207-.116,1.832,1.832,0,0,1-.736-.554,2.063,2.063,0,0,1-.366-.717,2.21,2.21,0,0,1-.1-.582c0-.091,0-.188,0-.279v-.053a2.7,2.7,0,0,1,.063-.428,1.542,1.542,0,0,1,.26-.578,1.482,1.482,0,0,1,.39-.361.744.744,0,0,0,.207-.188l.265-.058a9.117,9.117,0,0,0,2.084-.785,8.019,8.019,0,0,0,2.079-1.555,6.334,6.334,0,0,0,.578-.7,4.338,4.338,0,0,0,.515-.939,4.451,4.451,0,0,0,.231-.837,3.472,3.472,0,0,0,.053-.467,4.313,4.313,0,0,0-.014-.568Zm-14-2.864c.067-.13.13-.255.2-.371.26-.476.525-.948.789-1.415l.606-1.054.3-.52c.024-.039.043-.077.063-.116.4-.01,1.535-.019,3.441-.019,2.3,0,4.279.014,4.861.034a.53.53,0,0,0,.029.053l.337.582c.245.428.5.852.741,1.28.2.347.4.7.587,1.049.087.164.173.332.26.5H249.82Z" transform="translate(-31.635 -42.709)" fill="#b2857f"/>
  </g>
</svg>
