<svg xmlns="http://www.w3.org/2000/svg" width="75.686" height="106.609" viewBox="0 0 75.686 106.609">
  <g id="Group_323" data-name="Group 323" transform="translate(-187.04 -54.589)">
    <path id="Path_804" data-name="Path 804" d="M212.582,148.709c.014-.122.029-.244.036-.359a4.09,4.09,0,0,1-2.878,1.406,4.024,4.024,0,0,1,.6.962,4.27,4.27,0,0,1,2.239-2.009Z" transform="translate(-4.307 -12.143)" fill="#b2857f"/>
    <path id="Path_805" data-name="Path 805" d="M229.127,90.1c-1.3-1.7-3.086-2.573-3.667-4.7-.423-1.56-.244-3.691-.309-5.935-.057-2.019-.072-4.193-.079-6.126-.022-4.419-.251-8.777-.158-12.424a1.107,1.107,0,0,0,.5-1V57.224a1.1,1.1,0,0,0-.509-1c0-.217-.007-.416-.014-.606a.978.978,0,0,0-.151-.494.867.867,0,0,0-.682-.485c-2.1-.078-4.413-.069-6.422.026a.81.81,0,0,0-.646.459,1.168,1.168,0,0,0-.158.529v.52a1.013,1.013,0,0,0-.667,1.048V59.91a1.035,1.035,0,0,0,.639,1.048c-.014,1.793,0,3.795-.072,5.779-.136,3.994-.237,8.413-.388,12.242-.093,2.3.215,4.765-.237,6.212-.761,2.469-3.143,3.7-4.449,5.649a14.011,14.011,0,0,0-2.26,7.815c-.043,2.781-.079,5.554-.1,8.335.093.121.194.234.294.364a20.684,20.684,0,0,1,1.8,2.807c.187.347.359.71.531,1.074l.086.182c-.029-.39-.036-.806-.043-1.239a10.394,10.394,0,0,0-.4-3.318l-.5-1.352,1.134-.537A4.867,4.867,0,0,0,214.524,102l.531-1.508,1.155.858a1.581,1.581,0,0,0,.94.234,8.212,8.212,0,0,0,1.442-.182c.215-.043.416-.078.588-.1l1.894-.277-.653,2.166a4.893,4.893,0,0,0-.194.97h.036a3.73,3.73,0,0,0,1.959-.71l1.543-1.005.179,2.105a1.607,1.607,0,0,0,.23.71,3.234,3.234,0,0,0,1.263,1.109,9.038,9.038,0,0,0,3.222-.269s-.086.468-.172,1.213l1.945.39-2.117,1.932a17.159,17.159,0,0,0,.316,4.063c.488,2.218-1.076,6.567.029,10.336.474,1.62-.481,3.873,0,6.879.287,1.759-1.2,3.448,0,7.174.452,1.421-.545,3.093,0,6.082.158.875-.66,2.088,0,3.578-.919.806-2.59-1.031-4.184-.156-1.557.858-2.72-.321-4.32.156-1.084.321-2.1-.606-3.229-.381a3.832,3.832,0,0,1-1.3.771,3.577,3.577,0,0,1-1.162.2,3.809,3.809,0,0,1-2.059-.632,7.364,7.364,0,0,1,1.414,2.92c.8,3.318-.538,6.715-2.978,7.572a3.346,3.346,0,0,1-1.772.139,3.463,3.463,0,0,0,3.193,2.85h15.909c1.894,0,3.43-1.854,3.43-4.141,0-9.5.086-19.356.165-28.063.072-8.214-.237-16.522.079-24.675a43.038,43.038,0,0,0-.079-8.006,14.034,14.034,0,0,0-2.655-6.212Z" transform="translate(-3.259 0)" fill="#b2857f"/>
    <path id="Path_806" data-name="Path 806" d="M209.11,159.49h.022a4.39,4.39,0,0,1,2.059.524,5.581,5.581,0,0,1-1.263-1.973,5.7,5.7,0,0,1-.359.6,7.109,7.109,0,0,1-.452.567v.287Z" transform="translate(-4.213 -10.906)" fill="#b2857f"/>
    <path id="Path_807" data-name="Path 807" d="M193.915,129.019a3.479,3.479,0,1,0-3.437,4.018A3.761,3.761,0,0,0,193.915,129.019Z" transform="translate(0 -8.359)" fill="#b2857f"/>
    <path id="Path_808" data-name="Path 808" d="M199.1,140.6a3.48,3.48,0,1,0-2.024,4.887A3.765,3.765,0,0,0,199.1,140.6Z" transform="translate(-1.493 -9.883)" fill="#b2857f"/>
    <path id="Path_809" data-name="Path 809" d="M220.062,126.109c-1-.8-1.973-1.629-2.949-2.454s-1.945-1.665-2.906-2.512c-.646-.574-1.284-1.141-1.916-1.722-.136-.129-.273-.251-.409-.38-.029.014-.065.036-.093.05a4.829,4.829,0,0,0-.352.969l-.043.151a13.685,13.685,0,0,0-.28,1.722c-.079.732-.115,1.464-.144,2.2-.014.445-.029.883-.036,1.328-.014,1.184,0,2.368.022,3.552l.029,1.78a11.68,11.68,0,0,1-.065,1.737v0a12.646,12.646,0,0,0-.014-1.729l-.108-1.772c-.072-1.184-.144-2.368-.187-3.559s-.05-2.382.022-3.574c.029-.431.072-.861.136-1.292.022-.172.043-.337.079-.509.029-.151.065-.3.1-.452-.273.194-.545.388-.818.588q-1.023.775-1.981,1.636a.675.675,0,0,0-.072.072,21.129,21.129,0,0,0-1.737,1.758,8.559,8.559,0,0,0-1.277,1.873c-.022.043-.043.079-.065.122a3.855,3.855,0,0,1,1.478-.459h.036a.756.756,0,0,1,.409.108l.165.1.065.179a4.663,4.663,0,0,1-.1,3.143.257.257,0,0,1-.029.079h.129a2.3,2.3,0,0,1,.89.187,4.742,4.742,0,0,1,2.153,2.325c.065.122.122.251.179.373.022.043.036.079.05.115.043.093.079.187.122.273.022.043.036.086.057.129.036.086.072.172.1.258.014.036.029.072.043.115.043.115.086.23.122.337.014-.036.036-.065.05-.1.108-.208.215-.416.3-.6.079-.158.158-.309.23-.466a4.621,4.621,0,0,1,1.65-2.167c-.237-1.708-.352-3.653.215-4.32a.814.814,0,0,1,.617-.3c.488,0,1.119.352,2.067,2.849a1.537,1.537,0,0,1,.466-.072c1.026,0,1.428.99,1.643,1.859v.014h.007a5.455,5.455,0,0,1,3.459-1.04,11.254,11.254,0,0,1,2.5.309c-.445-1.457-1-4.176.151-6.157a2.441,2.441,0,0,1-1.952-.832,1.453,1.453,0,0,1-.2-1c-2.9-.6-3.265-1.241-3.215-1.8.029-.323.115-1.292,4.5-1.392.208-.782,1.292-1.564,2.347-2.325.194-.144.438-.316.653-.481-1.306-.215-3.358-.753-4.3-2.016-.007-.014-.022-.022-.029-.036a2.347,2.347,0,0,1-.445-1.155,5.357,5.357,0,0,1-2.512.732,4.044,4.044,0,0,1-.718-.065l-.187-.036-.122-.144c-.33-.395-.187-1.371.086-2.124-.165.022-.352.05-.538.079a10.889,10.889,0,0,1-1.636.165,2.96,2.96,0,0,1-1.557-.366,5.362,5.362,0,0,1-2.892,3.057c-.022.007-.05.022-.072.029a8.207,8.207,0,0,1,.5,3.2,8.647,8.647,0,0,0,.086,1.32,1.528,1.528,0,0,0,.043.194c.036-.057.072-.122.108-.179.732-1.227,1.5-2.425,2.332-3.588.2-.28.409-.56.624-.832.3-.395.6-.775.933-1.148a11.6,11.6,0,0,1,.875-.9,4.274,4.274,0,0,1,1.019-.732,4.063,4.063,0,0,0-.962.789,11.307,11.307,0,0,0-.8.954c-.273.352-.524.71-.775,1.084-.215.323-.431.653-.639.983-.7,1.127-1.342,2.282-1.952,3.459-.05.093-.1.179-.144.266l.187-.043c.179-.043.352-.086.531-.122.581-.122,1.17-.237,1.751-.344,1.17-.215,2.332-.409,3.5-.61s2.332-.4,3.495-.617c.581-.108,1.162-.222,1.737-.344a15.875,15.875,0,0,0,1.715-.452,14.447,14.447,0,0,1-1.694.531c-.574.151-1.148.294-1.729.423-1.155.266-2.311.524-3.473.775s-2.318.5-3.466.768c-.574.136-1.148.273-1.715.416-.309.086-.624.172-.926.266-.093.029-.187.057-.273.086v.029c.057.05.115.108.165.158.653.66,1.335,1.32,2.009,1.966.926.883,1.851,1.758,2.791,2.626s1.88,1.729,2.842,2.569c.481.423.962.84,1.45,1.249a17.035,17.035,0,0,0,1.521,1.162,15.8,15.8,0,0,1-1.572-1.1c-.509-.387-1.012-.789-1.507-1.191Z" transform="translate(-2.739 -4.5)" fill="#b2857f"/>
    <path id="Path_810" data-name="Path 810" d="M209.823,122.209c-.086.014-.172.022-.258.036a13.714,13.714,0,0,1-1.794.172h-.093a5.246,5.246,0,0,1-1.3-.151.437.437,0,0,1-.022.093,5.181,5.181,0,0,1-2.217,3.057c-.093.065-.179.136-.28.2a3.062,3.062,0,0,1,.61,1.593,11.565,11.565,0,0,1,.079,1.471c0,.158,0,.344.007.517.036-.022.072-.036.115-.057.014-.043.036-.079.05-.122a8.44,8.44,0,0,1,1.177-1.988,22.1,22.1,0,0,1,1.708-1.959c.05-.05.1-.1.151-.144.56-.567,1.141-1.112,1.751-1.636.387-.33.782-.646,1.2-.954l.079-.057c.065-.05.129-.1.2-.151h-.215a7.013,7.013,0,0,0-.94.086Z" transform="translate(-3.082 -8.15)" fill="#b2857f"/>
    <path id="Path_811" data-name="Path 811" d="M196.409,113.631a18.286,18.286,0,0,1,4.083,1.414,11.2,11.2,0,0,1,1.894,1.378,14.675,14.675,0,0,1,1.256,1.32c.036.043.072.079.1.115a4.422,4.422,0,0,0,.782.065h.1a13.607,13.607,0,0,0,1.629-.158h.007a.48.48,0,0,0-.05-.079c-.144-.258-.287-.509-.445-.746a14.794,14.794,0,0,0-1.127-1.514c-.179-.222-.359-.445-.553-.653a17.379,17.379,0,0,0-2.045-1.894,9.633,9.633,0,0,0-2.54-1.4c-.093-.036-.215-.086-.373-.144a15.673,15.673,0,0,0-4.514-1.284,1.321,1.321,0,0,0-.94.3c-.022.022-.05.043-.086.072-.323.273-1.17.99-.7,1.787.316.545,1.363.847,3.5,1.428Z" transform="translate(-1.612 -6.603)" fill="#b2857f"/>
    <path id="Path_812" data-name="Path 812" d="M203.9,133.724c.022-.065.043-.122.072-.194a4.5,4.5,0,0,0,.366-2.483c-.086.022-.179.057-.28.093a3.285,3.285,0,0,0-.983.531l-.029.043-.022.036-.337.538-.2-.244-.029-.036-.237-.287a2.356,2.356,0,0,1-.33-1.493v-.294a7.536,7.536,0,0,0-.423-2.849c-.136-.309-.036-.739-.911-.445a6.971,6.971,0,0,0-.7.294,2.684,2.684,0,0,0-.789.61,3.085,3.085,0,0,0-.8,1.88v.115A4.269,4.269,0,0,0,199.7,132.8a4.089,4.089,0,0,0,4.126.962c.029-.014.065-.014.093-.029Z" transform="translate(-3.17 -8.63)" fill="#b2857f"/>
    <path id="Path_813" data-name="Path 813" d="M207.7,145.616a3.088,3.088,0,0,0,1.313-.237,3.273,3.273,0,0,0,1.866-2.469c.014-.086.036-.172.043-.258.014-.144.036-.287.036-.431a.31.31,0,0,1-.05.043,1.011,1.011,0,0,1-.323.244l-.581.266-.065.029-.065-.409-.05-.294c-.1-.6-.911-3.057-2.1-3.975a1.458,1.458,0,0,0-.89-.344,1.4,1.4,0,0,0-.5.108c-.065.029-.129.043-.2.079l-.775.273a3.886,3.886,0,0,0-1.105,4.794A4.063,4.063,0,0,0,207.7,145.6Z" transform="translate(-3.088 -9.91)" fill="#b2857f"/>
    <path id="Path_814" data-name="Path 814" d="M220.3,145.935a3.77,3.77,0,0,0,2.181-4.822,4.456,4.456,0,0,0-1.227-2.024c-.014-.014-.029-.022-.036-.029a4,4,0,0,0-.983-.66c-.029-.014-.05-.014-.079-.029a2.986,2.986,0,0,0-2.763.129,2.707,2.707,0,0,0-.373.265,4.03,4.03,0,0,0-1.134,4.27,3.758,3.758,0,0,0,4.42,2.9Z" transform="translate(-5.258 -9.927)" fill="#b2857f"/>
    <path id="Path_815" data-name="Path 815" d="M205.859,155.654a4.539,4.539,0,0,0,.538-1.026,3.961,3.961,0,0,0,.022-2.856,3.059,3.059,0,0,0-1.084-1.385,4.065,4.065,0,1,0,.531,5.253Z" transform="translate(-3.491 -8.592)" fill="#b2857f"/>
    <path id="Path_816" data-name="Path 816" d="M213.26,157.458a3.175,3.175,0,0,0,2.684.466A4.071,4.071,0,0,0,213.7,150.2a2.966,2.966,0,0,0-.847.4,3.972,3.972,0,0,0-1.335,4.42,4.406,4.406,0,0,0,1.737,2.433Z" transform="translate(-4.456 -8.659)" fill="#b2857f"/>
    <path id="Path_817" data-name="Path 817" d="M209.285,169.536a3.761,3.761,0,0,0,2.174-4.822,3.943,3.943,0,0,0-3.624-3.014,2.742,2.742,0,0,0-.8.115,3.77,3.77,0,0,0-2.181,4.822,4.128,4.128,0,0,0,2.834,2.921,2.977,2.977,0,0,0,1.586-.022Z" transform="translate(-3.235 -11.94)" fill="#b2857f"/>
    <path id="Path_818" data-name="Path 818" d="M271.574,147.6c-.029-.287-.065-.567-.122-.854a11.565,11.565,0,0,0-.452-1.593c-.079-.23-.172-.459-.266-.689h.029l-.438-.926c-.014-.036-.036-.065-.05-.1l-.057-.115h0c-.215-.438-.431-.868-.653-1.3-.287-.538-.589-1.069-.89-1.6-.366-.639-.739-1.277-1.105-1.916l-.488-.84a1.082,1.082,0,0,0-.373-.538c-.208-.165-.258-.2-7.944-.2-5.561,0-5.576.014-5.784.165a1.023,1.023,0,0,0-.423.581c-.029.043-.05.086-.079.129l-.4.689c-.309.524-.61,1.055-.911,1.579-.4.7-.8,1.421-1.191,2.131-.187.337-.366.7-.567,1.119h0l-.309.66s-.014.036-.022.05l-.208.459h.022c-.194.474-.366.933-.5,1.363a8.518,8.518,0,0,0-.316,1.514c-.029.215-.043.438-.05.66,0,.179,0,.359.014.538.014.158.029.323.05.481a5.2,5.2,0,0,0,.122.56l.036.129a5.542,5.542,0,0,0,.517,1.313,8.588,8.588,0,0,0,1.3,1.758,10.608,10.608,0,0,0,1.134,1.041,12.733,12.733,0,0,0,2.562,1.579,13.825,13.825,0,0,0,2.4.854c.165.043.337.079.509.122a1.3,1.3,0,0,0,.136.151,1.338,1.338,0,0,0,.172.129,2.056,2.056,0,0,1,.459.38,2.273,2.273,0,0,1,.5.926,3.575,3.575,0,0,1,.122.789,4.069,4.069,0,0,1-.022.739,3.772,3.772,0,0,1-.316,1.076A2.726,2.726,0,0,1,256.246,162a1.242,1.242,0,0,0-.28.158l-.1.022c-.23.043-.459.079-.7.129a8.172,8.172,0,0,0-1.414.409,3.581,3.581,0,0,0-.7.359,1.253,1.253,0,0,0-.373.38.918.918,0,0,0-.129.488v.395a1.114,1.114,0,0,0,.029.208.939.939,0,0,0,.23.409,1.458,1.458,0,0,0,.459.33,4.254,4.254,0,0,0,.89.316,12.53,12.53,0,0,0,1.3.251l.179.029c.165.029.33.043.5.057.115.014.222.022.337.036.33.043.667.065,1,.086l.208.014c.273.014.545.029.818.036.366.014.725.022,1.091.029h.079c.158,0,.323,0,.481-.007h.531c.2-.014.395-.014.6-.022.122,0,.244-.014.373-.022l.753-.043c.108,0,.215-.014.323-.022l.617-.065h.086c.187-.029.38-.05.567-.079.1-.014.194-.029.294-.05l.165-.029a11.864,11.864,0,0,0,1.263-.266,3.35,3.35,0,0,0,.725-.28,1.5,1.5,0,0,0,.4-.3.844.844,0,0,0,.244-.7v-.036c0-.1,0-.2.007-.3a.948.948,0,0,0-.237-.617,1.749,1.749,0,0,0-.366-.3,3.812,3.812,0,0,0-.617-.3,10.8,10.8,0,0,0-1.837-.488l-.352-.057a1.385,1.385,0,0,0-.309-.172,2.732,2.732,0,0,1-1.1-.825,3.076,3.076,0,0,1-.545-1.069,3.3,3.3,0,0,1-.151-.868c0-.136,0-.28.007-.416v-.079a4.034,4.034,0,0,1,.093-.639,2.3,2.3,0,0,1,.387-.861,2.21,2.21,0,0,1,.581-.538,1.109,1.109,0,0,0,.309-.28l.395-.086a13.592,13.592,0,0,0,3.107-1.17,11.955,11.955,0,0,0,3.1-2.318,9.446,9.446,0,0,0,.861-1.041,6.469,6.469,0,0,0,.768-1.4,6.638,6.638,0,0,0,.344-1.249,5.185,5.185,0,0,0,.079-.7,6.432,6.432,0,0,0-.022-.847Zm-20.875-4.27c.1-.194.194-.38.294-.553.387-.71.782-1.414,1.177-2.11l.9-1.572.452-.775c.036-.057.065-.115.093-.172.6-.014,2.289-.029,5.131-.029,3.423,0,6.379.022,7.248.05a.793.793,0,0,0,.043.079l.5.868c.366.639.739,1.27,1.105,1.909.3.517.6,1.041.875,1.564.129.244.258.5.388.746H250.7Z" transform="translate(-8.897 -4.944)" fill="#b2857f"/>
  </g>
</svg>
