<svg xmlns="http://www.w3.org/2000/svg" width="36.578" height="47.513" viewBox="0 0 36.578 47.513">
  <g id="Group_290" data-name="Group 290" transform="translate(0.242 90.253) rotate(-90)">
    <g id="Group_166" data-name="Group 166" transform="translate(42.99 0.012)">
      <g id="Group_164" data-name="Group 164" transform="translate(0 0)">
        <g id="Group_162" data-name="Group 162" transform="translate(1.003 1)">
          <path id="Path_661" data-name="Path 661" d="M106.941,5.216c-2.009,2.452-3.076,9.747-3.076,16.691s1.064,14.225,3.071,16.683a64.154,64.154,0,0,1-12.706.066c-.2-.023-.406-.043-.609-.068-.646-.072-1.3-.161-1.947-.261-.041-.047-.08-.1-.121-.15a4.354,4.354,0,0,0,.3-.422,4.628,4.628,0,0,1-.278-.465c-.091-.165-.179-.352-.268-.554-1.11-2.53-2.108-7.73-2.108-14.828S90.2,9.6,91.31,7.073c.091-.2.179-.389.27-.554a4.576,4.576,0,0,1,.28-.463,4.622,4.622,0,0,0-.3-.422,1.932,1.932,0,0,1,.124-.154q.967-.148,1.931-.257c.2-.023.41-.045.611-.066a63.962,63.962,0,0,1,12.716.062Z" transform="translate(-80.69 -4.867)" fill="none" stroke="#b2857e" stroke-width="0.5"/>
          <path id="Path_662" data-name="Path 662" d="M215.112,37.842q-.17-1.263-.274-2.7c-.091-1.215-.138-2.52-.138-3.905s.047-2.691.138-3.9q.1-1.439.274-2.7c.655-4.858,1.962-7.753,3.02-7.994a.679.679,0,0,1,.142-.014c1.492,0,3.576,5.56,3.576,14.616s-2.083,14.616-3.576,14.616a.679.679,0,0,1-.142-.014c-1.058-.241-2.365-3.135-3.02-7.994Z" transform="translate(-180.354 -14.201)" fill="none" stroke="#b2857e" stroke-width="0.5"/>
          <path id="Path_663" data-name="Path 663" d="M53.873,14.908c-.074.309-.15.628-.222.955A55.194,55.194,0,0,0,52.6,27.027a55.046,55.046,0,0,0,1.052,11.164c.072.329.148.646.222.955.072.276.146.541.218.8a12.078,12.078,0,0,0,1.149,2.789c-.828-.2-1.653-.428-2.468-.688-.185-.058-.371-.117-.558-.181-.229-.076-.455-.152-.677-.237s-.461-.165-.69-.253c-1.4-1.2-2.987-6.443-2.987-14.353s1.585-13.14,2.981-14.348c.231-.089.463-.173.7-.255s.449-.159.675-.233c.185-.062.371-.124.558-.181.815-.259,1.639-.486,2.466-.688a12.058,12.058,0,0,0-1.149,2.787C54.019,14.365,53.945,14.632,53.873,14.908Z" transform="translate(-47.86 -9.992)" fill="none" stroke="#b2857e" stroke-width="0.5"/>
          <path id="Path_664" data-name="Path 664" d="M181.322,40.671a5.537,5.537,0,0,1-.3-.531c-1.173-2.316-2.277-7.555-2.277-14.836s1.1-12.512,2.273-14.83a5.55,5.55,0,0,1,.3-.531,3.172,3.172,0,0,1,.323-.422,1.053,1.053,0,0,1,.589-.371c.117.016.233.035.35.056.315.049.622.1.92.15.231.039.457.08.677.119,1.785.321,3.207.64,4.142.869a11.122,11.122,0,0,0-2.211,5.149c-.1.441-.191.9-.276,1.375-.1.585-.2,1.19-.278,1.81a53.043,53.043,0,0,0,0,13.257c.08.62.173,1.225.278,1.81.084.471.175.933.276,1.375a11.122,11.122,0,0,0,2.211,5.149c-.937.231-2.361.55-4.144.873-.22.037-.447.078-.677.117-.3.049-.609.1-.928.152l-.331.051a1.065,1.065,0,0,1-.595-.371,2.728,2.728,0,0,1-.323-.42Z" transform="translate(-151.797 -8.268)" fill="none" stroke="#b2857e" stroke-width="0.5"/>
          <path id="Path_665" data-name="Path 665" d="M91.857,165.783a.677.677,0,0,1-.327-.093l.426.082a.43.43,0,0,1-.1.01Z" transform="translate(-82.54 -132.583)" fill="none" stroke="#b2857e" stroke-width="0.5"/>
        </g>
        <path id="Path_666" data-name="Path 666" d="M55.8.493C54.99.6,54.178.732,53.369.882c-.021,0-.041,0-.06,0a1.527,1.527,0,0,0-.634.14,39.047,39.047,0,0,0-5.159,1.41c-2.944.093-4.527,8.09-4.527,15.617s1.583,15.524,4.527,15.617a39.4,39.4,0,0,0,5.167,1.412,1.529,1.529,0,0,0,.628.138.578.578,0,0,0,.06,0q1.285.241,2.567.406A65.023,65.023,0,0,0,71.6,35.594h0a1.013,1.013,0,0,0,.138.008,1.428,1.428,0,0,0,.482-.082c.778-.095,1.523-.2,2.229-.309a.465.465,0,0,0,.054,0,1.479,1.479,0,0,0,.508-.091,66.639,66.639,0,0,0,6.97-1.46c2.925-.138,4.5-8.113,4.5-15.617S84.915,2.568,81.99,2.43A65.584,65.584,0,0,0,75.028.973,1.479,1.479,0,0,0,74.511.88a.483.483,0,0,0-.054,0C73.741.775,72.982.668,72.193.571A1.437,1.437,0,0,0,71.747.5a.553.553,0,0,0-.1.006A64.794,64.794,0,0,0,55.8.5ZM70.24,34.734a64.155,64.155,0,0,1-12.706.066c-.2-.023-.406-.043-.609-.068-.434-.049-.869-.107-1.3-.169-.1-.142-.648-.955-.741-1.13s-.179-.352-.268-.554c-1.11-2.53-2.108-7.73-2.108-14.828s1-12.306,2.11-14.834c.091-.2.179-.389.27-.554a4.575,4.575,0,0,1,.28-.463l-.025-.035c.148-.226.319-.48.418-.624.455-.064.908-.126,1.361-.177.2-.023.41-.045.611-.066a63.962,63.962,0,0,1,12.716.062c-2.009,2.452-3.076,9.747-3.076,16.691s1.064,14.225,3.071,16.683Zm-17.255-.618.426.082a.431.431,0,0,1-.1.01.677.677,0,0,1-.327-.093ZM85.49,18.047c0,9.056-2.083,14.616-3.576,14.616a.679.679,0,0,1-.142-.014c-1.058-.241-2.365-3.135-3.02-7.994q-.17-1.263-.274-2.7c-.091-1.215-.138-2.52-.138-3.905s.047-2.691.138-3.9q.1-1.439.274-2.7c.655-4.858,1.962-7.753,3.02-7.994a.679.679,0,0,1,.142-.014c1.492,0,3.576,5.56,3.576,14.616ZM76.372,33.882c-.22.037-.447.078-.677.117-.3.049-.609.1-.928.152l-.331.051a1.065,1.065,0,0,1-.595-.371,2.728,2.728,0,0,1-.323-.42,5.537,5.537,0,0,1-.3-.531c-1.173-2.316-2.277-7.555-2.277-14.836s1.1-12.512,2.273-14.83a5.545,5.545,0,0,1,.3-.531,3.17,3.17,0,0,1,.323-.422,1.053,1.053,0,0,1,.589-.371c.117.016.233.035.35.056.315.049.622.1.92.15.231.039.457.08.677.119,1.785.321,3.207.64,4.142.869A11.122,11.122,0,0,0,78.3,8.233c-.1.441-.191.9-.276,1.375-.1.585-.2,1.19-.278,1.81a53.038,53.038,0,0,0,0,13.257c.08.62.173,1.225.278,1.81.084.471.175.933.276,1.375a11.122,11.122,0,0,0,2.211,5.149c-.937.231-2.361.55-4.144.873Zm-25-31.542a12.058,12.058,0,0,0-1.149,2.787c-.072.257-.146.525-.218.8-.074.309-.15.628-.222.955a55.2,55.2,0,0,0-1.052,11.164,55.047,55.047,0,0,0,1.052,11.164c.072.329.148.646.222.955.072.276.146.541.218.8a12.077,12.077,0,0,0,1.149,2.789c-.828-.2-1.653-.428-2.468-.688-.185-.058-.371-.117-.558-.181-.229-.076-.455-.152-.677-.237s-.461-.165-.69-.253c-1.4-1.2-2.987-6.443-2.987-14.353S45.578,4.9,46.973,3.7c.231-.089.463-.173.7-.255s.449-.159.675-.233c.185-.062.371-.124.558-.181.815-.259,1.639-.486,2.466-.688Z" transform="translate(-42.99 -0.012)" fill="none" stroke="#b2857e" stroke-width="0.5"/>
        <g id="Group_163" data-name="Group 163" transform="translate(35.599 4.271)">
          <path id="Path_667" data-name="Path 667" d="M220.44,21.98c-1.822,0-3.3,6.083-3.3,13.587s1.478,13.587,3.3,13.587,3.3-6.083,3.3-13.587-1.478-13.587-3.3-13.587Z" transform="translate(-216.889 -21.729)" fill="none" stroke="#b2857e" stroke-width="0.5"/>
          <path id="Path_668" data-name="Path 668" d="M219.471,20.76c2.308,0,3.551,7.129,3.551,13.838s-1.243,13.838-3.551,13.838S215.92,41.307,215.92,34.6s1.245-13.838,3.551-13.838Zm0,.5c-1.443,0-3.049,5.476-3.049,13.336s1.608,13.336,3.049,13.336,3.051-5.478,3.051-13.336S220.914,21.262,219.471,21.262Z" transform="translate(-215.92 -20.76)" fill="none" stroke="#b2857e" stroke-width="0.5"/>
        </g>
      </g>
      <path id="Path_669" data-name="Path 669" d="M176.4,149.585a.531.531,0,0,1,.257.222.5.5,0,0,1,.177.2.385.385,0,0,1-.1.439.482.482,0,0,1-.655-.021.7.7,0,0,1-.113-.591.338.338,0,0,1,.438-.249Z" transform="translate(-148.573 -118.779)" fill="none" stroke="#b2857e" stroke-width="0.5"/>
      <path id="Path_670" data-name="Path 670" d="M169.838,117.88a.338.338,0,0,1,.109.047.4.4,0,0,1,.177.095.326.326,0,0,1,.1.307.336.336,0,0,1,.006.091.361.361,0,0,1-.2.307.51.51,0,0,1-.309.027.4.4,0,0,1-.224-.148.453.453,0,0,1-.138-.255.384.384,0,0,1,.2-.432.7.7,0,0,1,.1-.039.386.386,0,0,1,.175,0Z" transform="translate(-143.342 -93.607)" fill="none" stroke="#b2857e" stroke-width="0.5"/>
      <path id="Path_671" data-name="Path 671" d="M169.4,80.259a.224.224,0,0,1,.117.165.322.322,0,0,1,.1.229.473.473,0,0,1-.138.352.341.341,0,0,1-.418.029.554.554,0,0,1-.175-.6.329.329,0,0,1,.222-.224.4.4,0,0,1,.294.054Z" transform="translate(-142.949 -63.69)" fill="none" stroke="#b2857e" stroke-width="0.5"/>
      <path id="Path_672" data-name="Path 672" d="M173.236,43.686a.494.494,0,0,1,.016.591.515.515,0,0,1-.447.261.452.452,0,0,1-.385-.566.473.473,0,0,1,.214-.294l.006,0a.474.474,0,0,1,.119-.089.394.394,0,0,1,.476.1Z" transform="translate(-145.766 -34.582)" fill="none" stroke="#b2857e" stroke-width="0.5"/>
      <path id="Path_673" data-name="Path 673" d="M181.851,13.245a.327.327,0,0,1,.132.152.611.611,0,0,1,.047.226.368.368,0,0,1-.272.35.245.245,0,0,1-.054.01.369.369,0,0,1-.072.025.347.347,0,0,1-.412-.257.4.4,0,0,1,0-.179.335.335,0,0,1,.159-.245.346.346,0,0,1,.043-.037l-.006,0a.428.428,0,0,1,.173-.093.354.354,0,0,1,.257.041Z" transform="translate(-152.757 -10.479)" fill="none" stroke="#b2857e" stroke-width="0.5"/>
      <path id="Path_674" data-name="Path 674" d="M88.181,152.723a.223.223,0,0,0-.045.148.311.311,0,0,0,.144.249.464.464,0,0,0,.231.074c.019,0,.039,0,.06,0a.321.321,0,0,0,.047-.01h0l.033-.012a.372.372,0,0,0,.239-.286.313.313,0,0,0-.243-.29,2.158,2.158,0,0,0-.257-.014.215.215,0,0,0-.206.142Z" transform="translate(-78.841 -121.171)" fill="none" stroke="#b2857e" stroke-width="0.5"/>
      <path id="Path_675" data-name="Path 675" d="M82.282,115.6c-.249.027-.276.333-.194.515a.442.442,0,0,0,.214.218.212.212,0,0,0,.233.016.556.556,0,0,0,.222-.1.254.254,0,0,0,.014-.358.251.251,0,0,0-.086-.06.4.4,0,0,0-.4-.224Z" transform="translate(-74.007 -91.805)" fill="none" stroke="#b2857e" stroke-width="0.5"/>
      <path id="Path_676" data-name="Path 676" d="M81.312,71.487a.3.3,0,0,0-.288.208.576.576,0,0,0-.031.327.441.441,0,0,0,.288.315.368.368,0,0,0,.43-.124.349.349,0,0,0,.107-.185.425.425,0,0,0-.1-.4.529.529,0,0,0-.4-.146Z" transform="translate(-73.16 -56.771)" fill="none" stroke="#b2857e" stroke-width="0.5"/>
      <path id="Path_677" data-name="Path 677" d="M86.793,28.7a.382.382,0,0,1,.366.389c0,.025,0,.049,0,.074a.682.682,0,0,1-.008.206.369.369,0,0,1-.107.191.257.257,0,0,1-.115.089h-.006l-.029.01a.432.432,0,0,1-.4-.039.006.006,0,0,1,0,0,.206.206,0,0,1-.029-.016.364.364,0,0,1-.115-.5.87.87,0,0,1,.068-.08A.38.38,0,0,1,86.8,28.7Z" transform="translate(-77.373 -22.793)" fill="none" stroke="#b2857e" stroke-width="0.5"/>
      <path id="Path_678" data-name="Path 678" d="M93.184,10.025a.335.335,0,0,1,.084.229h0a.327.327,0,0,1-.1.231.316.316,0,0,1-.229.084.331.331,0,0,1-.231-.1.335.335,0,0,1-.084-.229h0a.311.311,0,0,1,.1-.229.329.329,0,0,1,.231-.086A.322.322,0,0,1,93.184,10.025Z" transform="translate(-82.403 -7.88)" fill="none" stroke="#b2857e" stroke-width="0.5"/>
      <path id="Path_679" data-name="Path 679" d="M90.71,163.905a1.311,1.311,0,0,0,.113.072l.019.008.07.027a.325.325,0,0,1,.224.338.529.529,0,0,1,.064.105c.06.134-.056.321-.214.261a.325.325,0,0,0-.064-.019h0a.324.324,0,0,1-.062-.01.3.3,0,0,1-.111.01.452.452,0,0,1-.362-.216.257.257,0,0,1-.045-.152c0-.006-.006-.01-.008-.016a.279.279,0,0,1-.014-.317.292.292,0,0,1,.4-.093Z" transform="translate(-80.539 -130.13)" fill="none" stroke="#b2857e" stroke-width="0.5"/>
      <path id="Path_680" data-name="Path 680" d="M178.194,151.772c0,.169-.161.362-.342.309a.117.117,0,0,1-.082-.115.116.116,0,0,1,.091-.109.079.079,0,0,1,.043-.006h.014c.012,0,.014,0,0,0s.006,0,.008,0,0,0,0-.01c-.006.008-.006.006,0,0a.287.287,0,0,0,.021-.033.028.028,0,0,1,.006-.008.021.021,0,0,1,0-.008s.006-.037,0-.014a.111.111,0,0,1,.222.006Z" transform="translate(-150.024 -120.445)" fill="none" stroke="#b2857e" stroke-width="0.5"/>
      <path id="Path_681" data-name="Path 681" d="M171.871,119.848a.213.213,0,0,1-.049.3.187.187,0,0,1-.171.043.083.083,0,0,1-.047-.126.087.087,0,0,1,.051-.035c.045-.01.056-.008.086-.043a.117.117,0,0,0,.031-.086C171.766,119.848,171.832,119.8,171.871,119.848Z" transform="translate(-145.115 -95.161)" fill="none" stroke="#b2857e" stroke-width="0.5"/>
      <path id="Path_682" data-name="Path 682" d="M171.036,82.813h0v.037a.306.306,0,0,1-.01.074.187.187,0,0,1-.136.134.126.126,0,0,1-.15-.132.2.2,0,0,1,.027-.091.153.153,0,0,1,.014-.025.275.275,0,0,0,.023-.029s.021-.025,0,0a.112.112,0,0,1,.111-.047.085.085,0,0,1,.117.08Z" transform="translate(-144.441 -65.698)" fill="none" stroke="#b2857e" stroke-width="0.5"/>
      <path id="Path_683" data-name="Path 683" d="M174.613,46.139a.2.2,0,0,0-.066.224.094.094,0,0,0,.082.051.307.307,0,0,0,.294-.214.083.083,0,0,0-.027-.076.132.132,0,0,0-.064-.066c-.07-.031-.169.033-.22.078Z" transform="translate(-147.454 -36.573)" fill="none" stroke="#b2857e" stroke-width="0.5"/>
      <g id="Group_165" data-name="Group 165" transform="translate(28.792 3.078)">
        <path id="Path_684" data-name="Path 684" d="M184.266,15s-.006,0-.008,0S184.252,15,184.266,15Z" transform="translate(-183.964 -14.993)" fill="none" stroke="#b2857e" stroke-width="0.5"/>
        <path id="Path_685" data-name="Path 685" d="M183.156,14.969a.042.042,0,0,1-.012,0,.112.112,0,0,0-.051.041.117.117,0,0,0-.115.056h0l-.014.012c-.012.01-.027.021-.039.033a.188.188,0,0,0-.074.128.127.127,0,0,0,.1.132.2.2,0,0,0,.126-.01.343.343,0,0,0,.152-.167c.029-.062.076-.181-.008-.222a.087.087,0,0,0-.056-.01Z" transform="translate(-182.85 -14.964)" fill="none" stroke="#b2857e" stroke-width="0.5"/>
      </g>
      <path id="Path_686" data-name="Path 686" d="M90.374,153.568a.1.1,0,0,1,.029.13l-.006.014c0,.008-.006.014-.008.023a.248.248,0,0,1-.045.082.162.162,0,0,1-.07.041.258.258,0,0,1-.039.006h-.006a.078.078,0,0,1-.07-.134.309.309,0,0,1,.027-.023.17.17,0,0,1,.025-.016l.006-.027a.183.183,0,0,1,.029-.068.1.1,0,0,1,.132-.031Z" transform="translate(-80.427 -121.944)" fill="none" stroke="#b2857e" stroke-width="0.5"/>
      <path id="Path_687" data-name="Path 687" d="M84.423,117.185a.3.3,0,0,1-.148.233c-.074.047-.2.078-.247-.021a.1.1,0,0,1,0-.1.143.143,0,0,1,.08-.058h0a.018.018,0,0,0,.01-.006l.006,0a.246.246,0,0,0,.025-.023s0,0,.006,0a.007.007,0,0,0,0,0,.072.072,0,0,1,.01-.016v0h0a.124.124,0,0,1,.128-.119.123.123,0,0,1,.119.128Z" transform="translate(-75.571 -92.964)" fill="none" stroke="#b2857e" stroke-width="0.5"/>
      <path id="Path_688" data-name="Path 688" d="M83.326,73.082a.4.4,0,0,1-.095.266.28.28,0,0,1-.259.1.085.085,0,0,1-.014-.156c.016-.01.027-.027.043-.037a.336.336,0,0,0,.06-.047.187.187,0,0,0,.037-.132A.114.114,0,0,1,83.326,73.082Z" transform="translate(-74.694 -57.95)" fill="none" stroke="#b2857e" stroke-width="0.5"/>
      <path id="Path_689" data-name="Path 689" d="M88.476,30.964c.021.194-.179.455-.387.344-.082-.043-.041-.194.054-.179h.016a.2.2,0,0,0,.023-.021s.014-.021.019-.025.01-.021.016-.031c-.012.023,0-.019.006-.023A.172.172,0,0,0,88.231,31s.006-.035.008-.045c.031-.111.222-.117.237.008Z" transform="translate(-78.77 -24.517)" fill="none" stroke="#b2857e" stroke-width="0.5"/>
      <path id="Path_690" data-name="Path 690" d="M94.277,11.155a.107.107,0,0,0-.062.045.312.312,0,0,0-.019.037c0-.012-.006.008-.01.016h0a.006.006,0,0,0,0,0,.022.022,0,0,0-.008,0h0a.2.2,0,0,0-.08.035.094.094,0,0,0,.014.15.144.144,0,0,0,.144,0,.22.22,0,0,0,.076-.056.158.158,0,0,0,.047-.138.134.134,0,0,0-.019-.047s-.025-.033-.019-.025a.048.048,0,0,0-.056-.025Z" transform="translate(-83.546 -8.856)" fill="none" stroke="#b2857e" stroke-width="0.5"/>
      <path id="Path_691" data-name="Path 691" d="M229.839,121.032l-.858.681-2.067,1.637c-.8.638-1.536,1.215-2.069,1.63l-.865.673s.377-.187.959-.537a20.627,20.627,0,0,0,2.182-1.509,21.54,21.54,0,0,0,1.972-1.772c.476-.484.747-.8.747-.8Z" transform="translate(-186.721 -96.117)" fill="none" stroke="#b2857e" stroke-width="0.5"/>
      <path id="Path_692" data-name="Path 692" d="M226,105.81s-.393.146-1,.434c-.3.144-.665.325-1.058.537s-.817.455-1.258.721-.85.529-1.225.772-.706.463-.986.648l-.91.6s.387-.159.992-.459c.3-.15.659-.336,1.048-.552s.813-.461,1.252-.727.852-.525,1.227-.764l1-.632c.568-.36.924-.578.924-.581Z" transform="translate(-183.211 -84.03)" fill="none" stroke="#b2857e" stroke-width="0.5"/>
      <path id="Path_693" data-name="Path 693" d="M223.631,82.134s-.414.169-1.068.463-1.552.712-2.542,1.171c-.494.229-.965.447-1.4.636s-.823.352-1.157.482c-.667.259-1.1.383-1.1.383s.111-.012.309-.045.486-.089.836-.181.762-.216,1.21-.381.935-.362,1.435-.595a28.016,28.016,0,0,0,2.481-1.326c.618-.368.992-.611.992-.611Z" transform="translate(-180.678 -65.225)" fill="none" stroke="#b2857e" stroke-width="0.5"/>
      <path id="Path_694" data-name="Path 694" d="M224.48,62.11s-.383.035-1,.128a19.222,19.222,0,0,0-2.372.5c-.457.13-.885.274-1.27.422s-.723.3-1,.436a8.655,8.655,0,0,0-.879.49s.358-.14.943-.336c.292-.1.642-.208,1.031-.325s.819-.241,1.27-.368c.9-.255,1.723-.486,2.316-.661S224.482,62.11,224.48,62.11Z" transform="translate(-181.941 -49.326)" fill="none" stroke="#b2857e" stroke-width="0.5"/>
      <path id="Path_695" data-name="Path 695" d="M225.325,38.042s-.313.068-.811.191-1.184.3-1.927.55-1.4.511-1.873.718-.753.356-.753.356.311-.072.809-.2,1.18-.315,1.923-.56,1.4-.5,1.875-.708.758-.348.758-.348Z" transform="translate(-183.529 -30.212)" fill="none" stroke="#b2857e" stroke-width="0.5"/>
      <path id="Path_696" data-name="Path 696" d="M186.82,143.735s.331.029.865.016a15.953,15.953,0,0,0,2.075-.194,16.234,16.234,0,0,0,2.032-.457c.257-.076.461-.148.6-.2a1.836,1.836,0,0,0,.212-.1,2.237,2.237,0,0,1-.224.047c-.146.025-.358.056-.622.093-.525.072-1.252.165-2.05.292s-1.517.261-2.04.356-.848.148-.848.148Z" transform="translate(-157.211 -113.406)" fill="none" stroke="#b2857e" stroke-width="0.5"/>
      <path id="Path_697" data-name="Path 697" d="M103.65,148.86s.173.035.486.091.768.13,1.332.206,1.237.152,1.989.21,1.577.1,2.448.107,1.7-.019,2.45-.064,1.427-.115,1.991-.185,1.019-.144,1.332-.2.486-.091.486-.089l-.492.037c-.317.023-.776.056-1.34.084s-1.239.056-1.989.072-1.571.021-2.433.012c-1.725-.014-3.29-.082-4.422-.152-.566-.035-1.023-.068-1.34-.093l-.492-.039Z" transform="translate(-91.163 -118.218)" fill="none" stroke="#b2857e" stroke-width="0.5"/>
      <path id="Path_698" data-name="Path 698" d="M56.56,144.3a5.065,5.065,0,0,0,.527.27,5.7,5.7,0,0,0,1.369.412,5.458,5.458,0,0,0,.786.07,5.058,5.058,0,0,0,.644-.029,4.875,4.875,0,0,0,.585-.1s-.226-.025-.583-.068-.844-.115-1.377-.2-1.019-.175-1.373-.243l-.576-.111Z" transform="translate(-53.766 -114.597)" fill="none" stroke="#b2857e" stroke-width="0.5"/>
      <path id="Path_699" data-name="Path 699" d="M191.372,25.422s.272.08.714.189,1.054.247,1.733.371,1.3.212,1.748.276.731.1.731.1-.259-.117-.694-.264a12.419,12.419,0,0,0-1.727-.441,15.557,15.557,0,0,0-1.768-.21c-.455-.027-.739-.025-.739-.025Z" transform="translate(-160.825 -20.189)" fill="none" stroke="#b2857e" stroke-width="0.5"/>
      <path id="Path_700" data-name="Path 700" d="M104.372,21.8s.677.066,1.777.113c.55.025,1.2.045,1.931.056s1.525.016,2.363.014,1.635-.006,2.359,0,1.377.008,1.927.023c1.1.027,1.775.078,1.775.078s-.669-.132-1.766-.243c-.548-.056-1.2-.1-1.929-.136s-1.527-.049-2.367-.047-1.637.019-2.363.037-1.379.041-1.929.058c-1.1.035-1.779.051-1.779.051Z" transform="translate(-91.734 -17.195)" fill="none" stroke="#b2857e" stroke-width="0.5"/>
      <path id="Path_701" data-name="Path 701" d="M60.73,21.65l.521-.113c.319-.07.756-.156,1.235-.251s.918-.181,1.239-.241.523-.1.523-.1a3.9,3.9,0,0,0-.533-.068,5.027,5.027,0,0,0-1.293.082,4.888,4.888,0,0,0-1.227.42A4.068,4.068,0,0,0,60.73,21.65Z" transform="translate(-57.078 -16.574)" fill="none" stroke="#b2857e" stroke-width="0.5"/>
      <path id="Path_702" data-name="Path 702" d="M184.542,121.834s.3,0,.795-.01,1.163-.027,1.9-.06,1.414-.074,1.9-.107.793-.058.793-.058-.3-.056-.79-.107a13.062,13.062,0,0,0-3.827.167c-.484.093-.778.175-.778.175Z" transform="translate(-155.401 -96.429)" fill="none" stroke="#b2857e" stroke-width="0.5"/>
      <path id="Path_703" data-name="Path 703" d="M102.13,122.461s.163.037.459.093.729.128,1.266.189,1.18.113,1.894.134,1.5.016,2.324-.016,1.606-.086,2.316-.14l1.886-.144c1.073-.08,1.74-.115,1.74-.117s-.667-.047-1.746-.049c-.539,0-1.182.008-1.894.031s-1.495.056-2.314.089-1.6.06-2.308.068-1.348,0-1.886-.021-.972-.051-1.27-.074S102.13,122.461,102.13,122.461Z" transform="translate(-89.955 -97.213)" fill="none" stroke="#b2857e" stroke-width="0.5"/>
      <path id="Path_704" data-name="Path 704" d="M53.9,117.34a4.323,4.323,0,0,0,.49.268,5.194,5.194,0,0,0,1.285.408,4.918,4.918,0,0,0,1.348.047,3.944,3.944,0,0,0,.552-.1s-.214-.023-.55-.068-.793-.119-1.293-.208-.957-.173-1.289-.239l-.543-.109Z" transform="translate(-51.654 -93.187)" fill="none" stroke="#b2857e" stroke-width="0.5"/>
      <path id="Path_705" data-name="Path 705" d="M185.682,95.586s.249.012.646.019.945.008,1.546-.008,1.145-.043,1.542-.06l.644-.027a6.232,6.232,0,0,0-.636-.138,8.194,8.194,0,0,0-1.56-.1,9.626,9.626,0,0,0-1.552.175c-.393.076-.632.146-.632.146Z" transform="translate(-156.306 -75.655)" fill="none" stroke="#b2857e" stroke-width="0.5"/>
      <path id="Path_706" data-name="Path 706" d="M97.95,94.362s.686.072,1.8.126c.556.027,1.219.047,1.954.058s1.544.01,2.39,0,1.653-.023,2.388-.031,1.394-.014,1.949-.014c1.11,0,1.8.019,1.8.019s-.681-.1-1.793-.183c-.556-.041-1.217-.078-1.954-.1s-1.544-.029-2.392-.021-1.655.029-2.39.049l-1.949.056c-1.11.031-1.8.039-1.8.041Z" transform="translate(-86.636 -74.822)" fill="none" stroke="#b2857e" stroke-width="0.5"/>
      <path id="Path_707" data-name="Path 707" d="M50.1,91.737s.231.07.609.142a8.849,8.849,0,0,0,1.5.152,9.619,9.619,0,0,0,1.5-.1c.381-.056.616-.111.616-.111s-.239-.027-.622-.054-.91-.056-1.488-.064-1.105,0-1.488.014-.622.023-.622.023Z" transform="translate(-48.636 -72.823)" fill="none" stroke="#b2857e" stroke-width="0.5"/>
      <path id="Path_708" data-name="Path 708" d="M185.69,70.368s.208.054.546.117a12.778,12.778,0,0,0,1.322.175c.517.041.988.043,1.33.039s.556-.019.556-.019-.2-.068-.539-.146a8.88,8.88,0,0,0-1.322-.2,9.766,9.766,0,0,0-1.336-.01C185.9,70.341,185.69,70.368,185.69,70.368Z" transform="translate(-156.314 -55.832)" fill="none" stroke="#b2857e" stroke-width="0.5"/>
      <path id="Path_709" data-name="Path 709" d="M99.47,68.083s.673.056,1.762.117,2.594.132,4.255.156,3.168,0,4.259-.039,1.764-.078,1.764-.078-.673-.041-1.762-.086-2.594-.1-4.255-.126-3.168-.012-4.257.01-1.764.047-1.764.047Z" transform="translate(-87.843 -54.015)" fill="none" stroke="#b2857e" stroke-width="0.5"/>
      <path id="Path_710" data-name="Path 710" d="M51.62,65.888a3.984,3.984,0,0,0,.506.142,6.9,6.9,0,0,0,2.5.064A3.839,3.839,0,0,0,55,66.015a.83.83,0,0,0,.1-.033.126.126,0,0,0,.033-.016H55.1c-.025,0-.058,0-.1,0-.089-.006-.218-.021-.377-.035-.319-.031-.756-.072-1.239-.082s-.922.006-1.241.021l-.519.025Z" transform="translate(-49.843 -52.289)" fill="none" stroke="#b2857e" stroke-width="0.5"/>
      <path id="Path_711" data-name="Path 711" d="M186.82,48.7s.239.027.624.06.91.076,1.486.117,1.1.072,1.488.1.624.041.624.039a5.663,5.663,0,0,0-.595-.2,7.375,7.375,0,0,0-1.492-.266,7.8,7.8,0,0,0-1.513.047,6.155,6.155,0,0,0-.62.107Z" transform="translate(-157.211 -38.539)" fill="none" stroke="#b2857e" stroke-width="0.5"/>
      <path id="Path_712" data-name="Path 712" d="M95.662,45.6s.731.041,1.914.074c.591.016,1.295.031,2.077.043s1.641.021,2.54.029,1.758.016,2.538.029,1.482.031,2.073.051c1.182.041,1.912.089,1.912.086s-.181-.031-.508-.078-.8-.111-1.392-.173-1.293-.121-2.075-.165-1.643-.072-2.546-.08-1.764,0-2.546.025-1.486.047-2.077.07c-1.182.049-1.912.091-1.912.091Z" transform="translate(-84.817 -36.07)" fill="none" stroke="#b2857e" stroke-width="0.5"/>
      <path id="Path_713" data-name="Path 713" d="M52.76,43.181s.216.041.562.089.823.1,1.35.13,1.007.023,1.355.021.566,0,.566,0a4.334,4.334,0,0,0-.548-.161,8.039,8.039,0,0,0-1.355-.187,9.272,9.272,0,0,0-1.365.035c-.35.035-.564.078-.564.078Z" transform="translate(-50.749 -34.196)" fill="none" stroke="#b2857e" stroke-width="0.5"/>
    </g>
    <g id="Group_168" data-name="Group 168" transform="translate(81.895 21.091)">
      <g id="Group_167" data-name="Group 167" transform="translate(0)">
        <path id="Path_714" data-name="Path 714" d="M233.678,104.509c0,.679-.185,1.229-.414,1.229s-.414-.55-.414-1.229.185-1.229.414-1.229S233.678,103.83,233.678,104.509Z" transform="translate(-232.671 -103.101)" fill="none" stroke="#b2857e" stroke-width="0.5"/>
        <path id="Path_715" data-name="Path 715" d="M232.573,105.226c-.41,0-.593-.708-.593-1.408s.183-1.408.593-1.408.593.708.593,1.408S232.983,105.226,232.573,105.226Zm0-2.454a2.428,2.428,0,0,0,0,2.092,2.428,2.428,0,0,0,0-2.092Z" transform="translate(-231.98 -102.41)" fill="none" stroke="#b2857e" stroke-width="0.5"/>
      </g>
      <path id="Path_716" data-name="Path 716" d="M234,104.167s4.69-.541,5.855.179c1.4.865,1.61,2.851,1.674,4.113h-1.653a6.111,6.111,0,0,0-.813-2.5c-.562-.552-5.062,0-5.062,0a1.954,1.954,0,0,1-.189-1A1.169,1.169,0,0,1,234,104.167Z" transform="translate(-233.433 -103.65)" fill="none" stroke="#b2857e" stroke-width="0.5"/>
    </g>
    <path id="Path_717" data-name="Path 717" d="M244.053,106.7a3.328,3.328,0,0,0-.622-.79,4.136,4.136,0,0,0-.379-.327,1.408,1.408,0,0,0-.5-.191,8.062,8.062,0,0,0-1.313-.134c-.949-.035-1.82-.031-2.45-.045s-1.023-.029-1.021-.031.387-.062,1.013-.136a16.322,16.322,0,0,1,2.47-.121,5.663,5.663,0,0,1,1.371.2,1.5,1.5,0,0,1,.572.288,3.594,3.594,0,0,1,.358.391,3.168,3.168,0,0,1,.4.646c.072.163.1.257.1.257Z" transform="translate(-154.683 -83.31)" fill="none" stroke="#b2857e" stroke-width="0.5"/>
    <g id="Group_169" data-name="Group 169" transform="translate(83.144 16.649)">
      <path id="Path_718" data-name="Path 718" d="M238.1,85.788a14.459,14.459,0,0,1,0-2.394c.132-.22,4.974-3.1,5.606-2.472.509.506,1.435,2.388.838,2.693a41.471,41.471,0,0,1-5.077.605c-.22.012-.749,1.569-.749,1.569Z" transform="translate(-238.046 -80.831)" fill="none" stroke="#b2857e" stroke-width="0.5"/>
      <path id="Path_719" data-name="Path 719" d="M241.962,84.825s.638-.152,1.678-.352c.519-.1,1.136-.222,1.816-.366l.257-.056.066-.014.033-.008.016,0h0s0-.023.006.021v.006l0,.01c.008.027.016.033.008.025a.1.1,0,0,0-.025-.016s-.014-.008-.023-.01l-.012,0h0a.529.529,0,0,0-.019-.175,2.2,2.2,0,0,0-.076-.245,9,9,0,0,0-.49-1.035l-.109-.2a.358.358,0,0,0-.13-.014,2.325,2.325,0,0,0-.517.1c-.352.1-.694.229-1.015.354-.644.255-1.221.506-1.707.716-.97.422-1.575.677-1.575.675s.556-.346,1.48-.865c.463-.257,1.019-.56,1.659-.854a9.193,9.193,0,0,1,1.04-.414,2.5,2.5,0,0,1,.618-.128,1.071,1.071,0,0,1,.193.01.584.584,0,0,1,.115.033.443.443,0,0,1,.126.078.645.645,0,0,1,.049.056l.023.031.014.027.037.066.072.134a7.633,7.633,0,0,1,.5,1.1,2.242,2.242,0,0,1,.082.3,1.025,1.025,0,0,1,.021.167.611.611,0,0,1-.025.208.359.359,0,0,1-.078.132.337.337,0,0,1-.146.086.415.415,0,0,1-.049.01l-.033.006-.066.01-.263.041c-.7.107-1.324.175-1.851.224-1.056.095-1.709.14-1.709.142Z" transform="translate(-239.717 -81.733)" fill="none" stroke="#b2857e" stroke-width="0.5"/>
    </g>
  </g>
</svg>
