<svg xmlns="http://www.w3.org/2000/svg" width="185.734" height="141.195" viewBox="0 0 185.734 141.195">
  <g id="Group_293" data-name="Group 293" transform="translate(-297 -54.01)">
    <path id="Path_903" data-name="Path 903" d="M461.572,100.673a30.6,30.6,0,0,0-5.317.489,70.595,70.595,0,0,0-133.113-.183,38.183,38.183,0,0,0-4.645-.306c-13.66,0-21.5,8.648-21.5,23.744s7.9,24.126,21.146,24.126a30.909,30.909,0,0,0,4.951-.413,70.6,70.6,0,0,0,133.112.046,36.237,36.237,0,0,0,5.027.367c13.66,0,21.5-8.648,21.5-23.744s-7.9-24.126-21.146-24.126Zm-140.89,38.87a20.741,20.741,0,0,1-2.521.168c-8.174,0-12.33-5.149-12.33-15.31,0-13.232,6.769-14.928,12.666-14.928.7,0,1.452.046,2.2.107a70.351,70.351,0,0,0-.015,29.947Zm126.5-2.521a58.839,58.839,0,1,1-115.007-24.936,56.755,56.755,0,0,1,2.536-8.5,58.832,58.832,0,0,1,112.455,33.446Zm14.057,2.689c-.825,0-1.7-.061-2.582-.138a71.026,71.026,0,0,0,1.6-14.974,70.2,70.2,0,0,0-1.589-14.9,21.384,21.384,0,0,1,2.9-.229c8.174,0,12.33,5.149,12.33,15.31,0,13.232-6.769,14.913-12.667,14.913Z" transform="translate(0 0)" fill="#b2857f"/>
    <path id="Path_904" data-name="Path 904" d="M344.152,114.217c-2.108-2.032-4.125-3.927-6.02-5.577a31.061,31.061,0,0,0-7.273-5.149c-1.62-.688-2.918-.7-3.744.229a6.3,6.3,0,0,0-.794,2.918,40.571,40.571,0,0,0,.336,9.565c.825,5.745,2.811,12.04,6.6,15.692,7.777,7.487,17.571,3.575,22.017-1.039S351.929,121.7,344.152,114.217Zm4.95,10.772c-2.292,2.093-6.876,3.881-9.886.657-7.212-7.731-3.56-13.385-.84-12.437,1.513.535,3.407,1.727,6.356,4.981C347.7,121.444,351.395,122.9,349.1,124.989Z" transform="translate(15.401 25.861)" fill="#b2857f"/>
    <path id="Path_905" data-name="Path 905" d="M362.127,86.16c10.772-.688,19.634-1.711,19.237-5.516-.275-2.7-14.164-15.157-24.936-14.454-10.772.688-14.5,10.558-14.087,16.96S351.355,86.847,362.127,86.16Zm-5.1-11.352c10.573-.107,12.269,6.4,9.748,7.762-1.421.764-3.56,1.345-7.96,1.345s-7.961,1.742-7.961-1.36,1.772-7.685,6.173-7.747Z" transform="translate(23.92 6.415)" fill="#b2857f"/>
    <path id="Path_906" data-name="Path 906" d="M386.354,110.622c-5.271-3.652-8.5,4.767-14.637,13.644-6.157,8.877-10.848,16.456-7.624,18.5,2.292,1.467,20.673-1.7,26.83-10.558,6.157-8.877.733-17.922-4.553-21.574Zm-2.567,16.685c-6.478,8.358-12.636,5.638-12.132,2.827.275-1.589,1.161-3.636,3.9-7.074s3.591-7.319,6.02-5.394,4.92,6.173,2.231,9.641Z" transform="translate(34.866 29.425)" fill="#b2857f"/>
    <path id="Path_907" data-name="Path 907" d="M345.173,113.865c.076.535.153,1.024.214,1.375.046.229.031,1.757.046,2.078.061.733.672.6,1.8.489,1.131-.092,1.635-1.406,1.574-2.139-.046-.474-.794-.794-.963-1.283-.061-.168-.137-.413-.2-.642,2.353-.031,5.118-.244,3.193-4.706-3.973-9.183.367-23.606.367-23.606s-12.773,14.378-11.276,23.377c.795,4.752,3.361,5.119,5.241,5.027Z" transform="translate(22.6 16.587)" fill="#b2857f"/>
    <path id="Path_908" data-name="Path 908" d="M367.178,86.979c-.718.122-.535.718-.351,1.833a2,2,0,0,0,2.246,1.406c.458-.076.734-.856,1.207-1.054.168-.076.4-.168.626-.26.214,2.353.657,5.073,4.935,2.811,8.847-4.691,23.561-1.5,23.561-1.5s-15.341-11.6-24.2-9.381c-4.675,1.161-4.828,3.759-4.6,5.607-.52.122-1.008.244-1.36.321C369.012,86.827,367.484,86.934,367.178,86.979Z" transform="translate(36.776 14.014)" fill="#b2857f"/>
    <path id="Path_909" data-name="Path 909" d="M389.953,91.032a12.912,12.912,0,0,0-11.2,21.8l.657-.642h0l2.414-2.368,14.607-14.317.137-.122h0l.657-.642a12.851,12.851,0,0,0-7.273-3.713Zm-8.236,18.4-1.62,1.589a10.572,10.572,0,0,1-1.91-2.918l3.086-1.65,4.935-2.643-4.95,1.986-3.423,1.375a10.756,10.756,0,0,1-.153-6.249l3.957.81,1.665.336-1.589-.626L378,99.971a10.717,10.717,0,0,1,2.491-3.835,10.511,10.511,0,0,1,2.4-1.757l1.192,1.986,2.735,4.553-2.429-4.981-.917-1.864a10.607,10.607,0,0,1,3.652-.963,10.749,10.749,0,0,1,3.82.382l-1.329,6.967,1.925-6.769a10.6,10.6,0,0,1,3.835,2.353l-13.66,13.4Z" transform="translate(41.214 19.465)" fill="#b2857f"/>
    <path id="Path_910" data-name="Path 910" d="M332.725,107.19a12.769,12.769,0,0,0,4.492,1.635l.153-.9h0l1.375-8.5,2.46-15.218h0l.153-.9a12.929,12.929,0,0,0-13.965,7.747A12.615,12.615,0,0,0,326.537,94a12.971,12.971,0,0,0,6.2,13.186Zm-4.018-12.85a11.1,11.1,0,0,1,.672-2.368c.061-.153.137-.321.214-.474l7.044,2.949-6.738-3.53a10.8,10.8,0,0,1,5.669-4.9l3.056,6.4-2.46-6.6a10.7,10.7,0,0,1,4.477-.382l-2.2,13.583-1.222,7.548a10.786,10.786,0,0,1-3.27-1.222l3.545-7.456.352-.749-.428.688-4.339,6.983a10.712,10.712,0,0,1-3.82-4.95l5.21-2.4-5.516,1.451a10.651,10.651,0,0,1-.26-4.568Z" transform="translate(15.506 15.378)" fill="#b2857f"/>
    <path id="Path_911" data-name="Path 911" d="M376.571,123.279c2.108-1.711,4.981-20.138-1.467-28.786-6.448-8.663-16.761-6.4-21.9-2.567-5.149,3.835,1.8,9.565,8.266,18.228C367.923,118.818,373.606,125.678,376.571,123.279ZM358.342,98.725c2.6-1.681,7.426-2.7,9.855.963,5.852,8.8,1.329,13.782-1.192,12.407-1.406-.764-3.071-2.261-5.47-5.944-2.4-3.7-5.806-5.73-3.193-7.41Z" transform="translate(28.728 18.22)" fill="#b2857f"/>
    <path id="Path_912" data-name="Path 912" d="M350.926,128.057a12.938,12.938,0,0,0,10.161,15.2l.184-.9h0l4.691-23.561h0l.183-.9a12.938,12.938,0,0,0-15.2,10.161ZM361.148,141a11.123,11.123,0,0,1-3.224-1.329l4.2-8.067-5.027,7.487a10.826,10.826,0,0,1-3.652-5.073l5.287-2.216-5.562,1.253a10.443,10.443,0,0,1-.092-4.568,10.249,10.249,0,0,1,.993-2.811l6.937,3.193-6.616-3.774a10.7,10.7,0,0,1,5.852-4.691l2.827,6.509-2.216-6.677a10.541,10.541,0,0,1,4.492-.214l-4.186,20.994Z" transform="translate(28.337 33.595)" fill="#b2857f"/>
    <ellipse id="Ellipse_7" data-name="Ellipse 7" cx="5.18" cy="4.156" rx="5.18" ry="4.156" transform="translate(411.472 81.1)" fill="#b2857f"/>
    <path id="Path_913" data-name="Path 913" d="M336.913,82.06c2.659,0,4.813-1.834,4.813-4.11s-2.154-4.11-4.813-4.11-4.813,1.834-4.813,4.11S334.254,82.06,336.913,82.06Z" transform="translate(18.53 10.469)" fill="#b2857f"/>
    <path id="Path_914" data-name="Path 914" d="M351.02,112.868c0,2.2,2.2,3.988,4.9,3.988s4.9-1.788,4.9-3.988-2.2-3.988-4.9-3.988S351.02,110.668,351.02,112.868Z" transform="translate(28.518 28.967)" fill="#b2857f"/>
    <path id="Path_915" data-name="Path 915" d="M346.818,127.54a4.218,4.218,0,1,0,4.278,4.217A4.249,4.249,0,0,0,346.818,127.54Z" transform="translate(24.042 38.818)" fill="#b2857f"/>
    <path id="Path_916" data-name="Path 916" d="M388.244,104.947a7.425,7.425,0,0,0-1.727,1.482c-1.971,2.353-2.124,5.47-.336,6.967s4.828.825,6.814-1.528a6.565,6.565,0,0,0,1.528-3.423,3.892,3.892,0,0,0-1.192-3.56c-1.314-1.115-3.331-1.024-5.088.046Z" transform="translate(46.422 26.437)" fill="#b2857f"/>
  </g>
</svg>
