<svg xmlns="http://www.w3.org/2000/svg" width="44.528" height="89.136" viewBox="0 0 44.528 89.136">
  <g id="Layer_1" data-name="Layer 1" transform="translate(0.002)">
    <g id="Group_225" data-name="Group 225" transform="translate(-0.002 0)">
      <path id="Path_1015" data-name="Path 1015" d="M19.969,31.538c-.2-2.435-6.288-7.507-6.288-7.507V5.577a2.574,2.574,0,0,0,.676-1.858,2.742,2.742,0,0,0-.533-1.7,1.066,1.066,0,0,0,.533-.885A1.284,1.284,0,0,0,12.96,0H7.1A1.284,1.284,0,0,0,5.7,1.131a1.066,1.066,0,0,0,.529.885,2.726,2.726,0,0,0-.529,1.7,2.588,2.588,0,0,0,.676,1.858V24.031S.292,29.106.087,31.538s0,54.326,0,54.326,1.014,1.711,9.939,1.506c8.925.2,9.939-1.506,9.939-1.506s.2-51.894,0-54.326Z" transform="translate(0.002 0)"/>
      <g id="Group_223" data-name="Group 223" transform="translate(0.628 0.236)">
        <path id="Path_1016" data-name="Path 1016" d="M20.569,1.359A.988.988,0,0,1,20.842.69H18.8a1,1,0,0,0-.273.669,1.017,1.017,0,0,0,.365.758h2.039A1.017,1.017,0,0,1,20.569,1.359Z" transform="translate(-12.829 -0.69)" fill="#a1a1a1"/>
        <path id="Path_1017" data-name="Path 1017" d="M21,6.3H18.964a2.839,2.839,0,0,0-.434,1.568,2.767,2.767,0,0,0,.5,1.656h2.039a2.767,2.767,0,0,1-.5-1.656A2.831,2.831,0,0,1,21,6.3Z" transform="translate(-12.829 -4.384)" fill="#a1a1a1"/>
        <path id="Path_1018" data-name="Path 1018" d="M3.966,96.137s-.2-50.986,0-53.421,6.288-7.507,6.288-7.507V16.97H8.215V35.209S2.129,40.28,1.927,42.716s0,53.421,0,53.421.99,1.656,9.543,1.513c-6.681-.13-7.5-1.513-7.5-1.513Z" transform="translate(-1.838 -11.41)" fill="#a1a1a1"/>
        <path id="Path_1019" data-name="Path 1019" d="M35.2,253.17c-.355.007-.69.014-1.021.014.5,0,.97,0,1.417-.007-.133,0-.26,0-.4-.007Z" transform="translate(-23.134 -166.937)" fill="#a1a1a1"/>
      </g>
      <path id="Path_1020" data-name="Path 1020" d="M33.97,16.97V35.222l2.579,1.342-1.516-1.455V16.97Z" transform="translate(-22.367 -11.174)" fill="#9e9e9e"/>
      <path id="Path_1021" data-name="Path 1021" d="M38.33,85.933l.639,3.853v53.237a19.417,19.417,0,0,0,2.107-.212c.827-.154.909-.311.909-.311V89.1L40.157,85.93H38.33Z" transform="translate(-25.238 -56.581)" fill="#3d3d3d"/>
      <g id="Group_224" data-name="Group 224" transform="translate(7.826 25.725)">
        <path id="Path_1022" data-name="Path 1022" d="M24.01,254.723c-.383.01-.745.014-1.1.014.454,0,.936,0,1.441-.01-.113,0-.222,0-.342-.007Z" transform="translate(-22.91 -193.447)" fill="#9e9e9e"/>
        <path id="Path_1023" data-name="Path 1023" d="M35.152,75.32h0c1.8,1.691,4.221,4.225,4.348,5.738.2,2.422,0,54.039,0,54.039s-.878,1.465-8.16,1.513c7.907.044,8.839-1.513,8.839-1.513s.2-51.618,0-54.039C40.053,79.545,36.952,77.011,35.152,75.32Z" transform="translate(-28.461 -75.32)" fill="#9e9e9e"/>
      </g>
      <path id="Path_1024" data-name="Path 1024" d="M13.48,91.778c.051.266-.331.533-.854.577a34.9,34.9,0,0,1-5.793,0c-.526-.044-.909-.307-.854-.577h0c.051-.27.5.014.99.055a33.881,33.881,0,0,0,5.523,0c.5-.041.939-.321.99-.055h0Z" transform="translate(-3.933 -60.356)" fill="#a1a1a1"/>
    </g>
    <g id="Group_226" data-name="Group 226" transform="translate(26.683 34.93)">
      <path id="Path_1025" data-name="Path 1025" d="M90.683,126.216c8.945-6.168,4.191-23.406,4.191-23.406H79.924s-4.758,17.238,4.191,23.406c3.511,4.32,2.671,23.123,2.107,25.278-.451,1.728-5.021,2.541-6.4,2.859v.167H94.795v-.167c-1.38-.318-5.769-1.131-6.22-2.859C88.012,149.335,87.172,130.533,90.683,126.216Z" transform="translate(-78.479 -102.626)" fill="#f5f5f5"/>
      <path id="Path_1026" data-name="Path 1026" d="M96.6,121.32H81.2s-1.827,16.719,7.705,16.719c7.111,0,8.651-8.361,7.692-16.719Z" transform="translate(-80.059 -114.814)" fill="#cf2c34"/>
      <path id="Path_1027" data-name="Path 1027" d="M85.493,121.313H80.769s-1.827,16.719,7.705,16.719a7.4,7.4,0,0,0,2.425-.383c-6.923-2.483-5.41-16.34-5.41-16.34Z" transform="translate(-79.776 -114.807)" fill="#800514"/>
      <path id="Path_1028" data-name="Path 1028" d="M85.029,125.844h.181c-8.248-6.452-2.975-23.044-2.975-23.044h-.909s-4.577,16.589,3.7,23.044Z" transform="translate(-79.403 -102.619)" fill="#a1a1a1" opacity="0.5"/>
      <path id="Path_1029" data-name="Path 1029" d="M96.49,170.93s2.066.29,2.647,1.363c.85-1.154,1.271-1.045,2.5-1.363a10.072,10.072,0,0,1-2.432.229A18.652,18.652,0,0,1,96.49,170.93Z" transform="translate(-90.219 -147.48)" fill="#a1a1a1"/>
      <path id="Path_1030" data-name="Path 1030" d="M91.846,107.75h1.814s-1.131,5.991-.447,9.259c-1.95.024-2.193.014-2.193.014S90.2,111.62,91.846,107.75Z" transform="translate(-86.483 -105.878)" fill="#d4d4d4" opacity="0.75"/>
      <path id="Path_1031" data-name="Path 1031" d="M94.627,154.345H79.288v-.5l.14-.031c1.137-.26,5.83-1.049,6.267-2.726.628-2.415,1.329-20.872-2.056-25.1-3.7-2.562-5.6-7.456-5.506-14.154A42.271,42.271,0,0,1,79.4,102.4l.038-.133H94.664l.038.133a42.23,42.23,0,0,1,1.267,9.437c.092,6.7-1.81,11.592-5.506,14.154-3.385,4.225-2.685,22.685-2.056,25.1.437,1.677,4.946,2.466,6.086,2.726l.14.031v.5Zm-14.382-.362H93.67c-1.486-.427-5.222-1.267-5.622-2.8a70.131,70.131,0,0,1-.478-11.879c.14-4.888.71-11.206,2.623-13.559l.038-.034c4.553-3.139,5.434-9.27,5.372-13.856a42.077,42.077,0,0,0-1.219-9.218H79.715a42.076,42.076,0,0,0-1.219,9.218c-.061,4.587.82,10.718,5.372,13.856l.038.034c1.913,2.353,2.483,8.672,2.623,13.559a70.127,70.127,0,0,1-.478,11.879c-.4,1.53-4.317,2.37-5.8,2.8Z" transform="translate(-78.13 -102.27)" fill="#3d3d3d"/>
      <path id="Path_1032" data-name="Path 1032" d="M116.281,105.347c1.117,4.29-.707,5.342.434,5.342,1.414,0,1.274-1.667,1.1-3.159C117.562,105.268,116.042,104.432,116.281,105.347Z" transform="translate(-103.234 -104.056)" fill="#cfcfcf"/>
    </g>
    <g id="Group_227" data-name="Group 227" transform="translate(15.962 37.061)">
      <path id="Path_1033" data-name="Path 1033" d="M59.293,132.456c8.945-6.168,4.191-23.406,4.191-23.406H48.534s-4.758,17.238,4.191,23.406c3.511,4.321,2.671,23.123,2.107,25.278-.451,1.728-5.021,2.541-6.4,2.859v.167H63.4v-.167c-1.38-.318-5.769-1.131-6.22-2.859C56.622,155.579,55.782,136.777,59.293,132.456Z" transform="translate(-47.089 -108.866)" fill="#f5f5f5"/>
      <path id="Path_1034" data-name="Path 1034" d="M65.21,127.56h-15.4s-1.827,16.719,7.705,16.719c7.111,0,8.651-8.358,7.692-16.719Z" transform="translate(-48.669 -121.054)" fill="#cf2c34"/>
      <path id="Path_1035" data-name="Path 1035" d="M54.093,127.56H49.369s-1.827,16.719,7.705,16.719A7.5,7.5,0,0,0,59.5,143.9c-6.923-2.483-5.41-16.34-5.41-16.34Z" transform="translate(-48.379 -121.054)" fill="#800514"/>
      <path id="Path_1036" data-name="Path 1036" d="M53.639,132.094h.181c-8.248-6.452-2.975-23.044-2.975-23.044h-.909s-4.577,16.592,3.7,23.044Z" transform="translate(-48.013 -108.866)" fill="#a1a1a1" opacity="0.5"/>
      <path id="Path_1037" data-name="Path 1037" d="M65.1,177.18s2.066.29,2.647,1.363c.85-1.154,1.271-1.045,2.5-1.363a10.05,10.05,0,0,1-2.432.229A18.649,18.649,0,0,1,65.1,177.18Z" transform="translate(-58.829 -153.726)" fill="#a1a1a1"/>
      <path id="Path_1038" data-name="Path 1038" d="M60.456,113.99h1.814s-1.131,5.991-.447,9.259c-1.95.024-2.193.014-2.193.014S58.813,117.86,60.456,113.99Z" transform="translate(-55.093 -112.118)" fill="#d4d4d4" opacity="0.75"/>
      <path id="Path_1039" data-name="Path 1039" d="M63.237,160.585H47.9v-.5l.14-.031c1.137-.263,5.83-1.052,6.267-2.726.628-2.415,1.329-20.872-2.056-25.1-3.7-2.562-5.6-7.456-5.506-14.154a42.27,42.27,0,0,1,1.267-9.437l.038-.133H63.271l.038.133a42.462,42.462,0,0,1,1.267,9.437c.092,6.7-1.81,11.592-5.506,14.154-3.385,4.225-2.685,22.685-2.056,25.1.437,1.677,4.946,2.466,6.086,2.726l.14.031v.5Zm-14.382-.362H62.277c-1.486-.427-5.219-1.267-5.622-2.8a70.128,70.128,0,0,1-.478-11.879c.14-4.888.71-11.206,2.623-13.559l.038-.034c4.553-3.139,5.434-9.27,5.372-13.856a42.076,42.076,0,0,0-1.219-9.218H48.321a42.076,42.076,0,0,0-1.219,9.218c-.061,4.587.82,10.718,5.373,13.856l.038.034c1.913,2.353,2.483,8.672,2.623,13.559a69.616,69.616,0,0,1-.482,11.879c-.4,1.53-4.317,2.37-5.8,2.8Z" transform="translate(-46.74 -108.51)" fill="#3d3d3d"/>
      <path id="Path_1040" data-name="Path 1040" d="M84.891,111.587c1.117,4.29-.707,5.342.434,5.342,1.414,0,1.274-1.667,1.1-3.159C86.172,111.508,84.652,110.672,84.891,111.587Z" transform="translate(-71.844 -110.296)" fill="#cfcfcf"/>
    </g>
  </g>
</svg>
