<svg xmlns="http://www.w3.org/2000/svg" width="138" height="194.384" viewBox="0 0 138 194.384">
  <g id="Group_292" data-name="Group 292" transform="translate(-187.04 -54.589)">
    <path id="Path_804" data-name="Path 804" d="M214.921,149c.026-.222.052-.445.065-.654a7.458,7.458,0,0,1-5.247,2.564,7.337,7.337,0,0,1,1.1,1.753A7.785,7.785,0,0,1,214.921,149Z" transform="translate(10.836 55.055)" fill="#b2857f"/>
    <path id="Path_805" data-name="Path 805" d="M245.64,119.329c-2.368-3.1-5.626-4.692-6.686-8.578-.772-2.844-.445-6.73-.563-10.821-.1-3.681-.131-7.646-.144-11.169-.039-8.057-.458-16-.288-22.654a2.018,2.018,0,0,0,.916-1.817v-4.9a2.007,2.007,0,0,0-.929-1.817c0-.395-.013-.758-.026-1.106a1.783,1.783,0,0,0-.275-.9,1.58,1.58,0,0,0-1.243-.885c-3.834-.142-8.047-.126-11.71.047a1.477,1.477,0,0,0-1.177.837,2.129,2.129,0,0,0-.288.964v.948a1.847,1.847,0,0,0-1.217,1.912v4.9a1.887,1.887,0,0,0,1.164,1.912c-.026,3.27,0,6.919-.131,10.537-.249,7.283-.432,15.339-.707,22.322-.17,4.186.393,8.689-.432,11.327-1.387,4.5-5.731,6.746-8.112,10.3a25.547,25.547,0,0,0-4.121,14.249c-.078,5.071-.144,10.126-.183,15.2.17.221.353.427.536.663a37.713,37.713,0,0,1,3.284,5.118c.34.632.654,1.3.968,1.959l.157.332c-.052-.711-.065-1.469-.078-2.259a18.953,18.953,0,0,0-.733-6.05l-.9-2.464,2.067-.979c1.845-.885,3.271-2.7,4.226-5.419l.968-2.749,2.107,1.564a2.882,2.882,0,0,0,1.714.427,14.973,14.973,0,0,0,2.63-.332c.393-.079.759-.142,1.073-.19l3.454-.506-1.191,3.949a8.919,8.919,0,0,0-.353,1.769h.065a6.8,6.8,0,0,0,3.572-1.3l2.813-1.833.327,3.839a2.93,2.93,0,0,0,.419,1.3,5.9,5.9,0,0,0,2.3,2.022,16.48,16.48,0,0,0,5.875-.49s-.157.853-.314,2.212l3.546.711-3.86,3.523a31.285,31.285,0,0,0,.576,7.409c.89,4.044-1.963,11.975.052,18.846.864,2.954-.877,7.061,0,12.543.523,3.207-2.185,6.287,0,13.08.824,2.591-.994,5.64,0,11.09.288,1.6-1.2,3.807,0,6.524-1.675,1.469-4.723-1.88-7.628-.284-2.839,1.564-4.959-.585-7.877.284-1.976.585-3.834-1.106-5.888-.7a6.987,6.987,0,0,1-2.368,1.406,6.522,6.522,0,0,1-2.12.363,6.945,6.945,0,0,1-3.755-1.153,13.428,13.428,0,0,1,2.578,5.324c1.452,6.05-.981,12.243-5.43,13.807a6.1,6.1,0,0,1-3.232.253c.759,3.017,3.049,5.2,5.822,5.2H243.9c3.454,0,6.254-3.381,6.254-7.551,0-17.314.157-35.292.3-51.168.131-14.976-.432-30.126.144-44.991.183-4.881.576-10.126-.144-14.6a25.589,25.589,0,0,0-4.841-11.327Z" transform="translate(12.196 0)" fill="#b2857f"/>
    <path id="Path_806" data-name="Path 806" d="M209.11,160.683h.039a8,8,0,0,1,3.755.955,10.176,10.176,0,0,1-2.3-3.6,10.383,10.383,0,0,1-.654,1.086,12.965,12.965,0,0,1-.824,1.034v.523Z" transform="translate(10.49 65.289)" fill="#b2857f"/>
    <path id="Path_807" data-name="Path 807" d="M199.575,132.327c0-4.043-2.8-7.327-6.267-7.327s-6.267,3.284-6.267,7.327,2.8,7.327,6.267,7.327S199.575,136.37,199.575,132.327Z" transform="translate(0 42.731)" fill="#b2857f"/>
    <path id="Path_808" data-name="Path 808" d="M204.669,142.987c-1.256-3.847-4.946-6.1-8.23-5.024s-4.946,5.064-3.69,8.91,4.946,6.1,8.23,5.024S205.925,146.834,204.669,142.987Z" transform="translate(1.631 50.404)" fill="#b2857f"/>
    <path id="Path_809" data-name="Path 809" d="M232.463,139.4c-1.819-1.465-3.6-2.97-5.378-4.475s-3.546-3.035-5.3-4.579c-1.178-1.047-2.342-2.08-3.493-3.14-.249-.236-.5-.458-.746-.693-.052.026-.118.065-.17.092a8.8,8.8,0,0,0-.641,1.766l-.078.275a24.952,24.952,0,0,0-.51,3.14c-.144,1.335-.209,2.669-.262,4.017-.026.811-.052,1.609-.065,2.421-.026,2.159,0,4.318.039,6.477l.052,3.245a21.3,21.3,0,0,1-.118,3.166v0a23.058,23.058,0,0,0-.026-3.153l-.2-3.232c-.131-2.159-.262-4.318-.34-6.49s-.092-4.344.039-6.516c.052-.785.131-1.57.249-2.355.039-.314.078-.615.144-.929.052-.275.118-.55.183-.824-.5.353-.994.707-1.492,1.073q-1.864,1.413-3.611,2.983a1.23,1.23,0,0,0-.131.131A38.524,38.524,0,0,0,207.447,135a15.605,15.605,0,0,0-2.329,3.415c-.039.078-.078.144-.118.222a7.03,7.03,0,0,1,2.7-.837h.065a1.379,1.379,0,0,1,.746.2l.3.183.118.327a8.5,8.5,0,0,1-.183,5.731.47.47,0,0,1-.052.144h.236a4.185,4.185,0,0,1,1.622.34,8.646,8.646,0,0,1,3.925,4.239c.118.222.222.458.327.68.039.079.065.144.092.209.078.17.144.34.222.5.039.079.065.157.1.236.065.157.131.314.183.471.026.065.052.131.078.209.079.209.157.419.222.615.026-.065.065-.118.092-.183.2-.379.393-.759.549-1.086.144-.288.288-.563.419-.85.929-1.819,1.845-3.441,3.009-3.951-.432-3.114-.641-6.66.393-7.877a1.484,1.484,0,0,1,1.125-.55c.89,0,2.041.641,3.768,5.194a2.8,2.8,0,0,1,.851-.131c1.871,0,2.6,1.806,3,3.389v.026h.013a9.947,9.947,0,0,1,6.307-1.9,20.52,20.52,0,0,1,4.566.563c-.811-2.656-1.832-7.615.275-11.226-1.361-.1-2.839-.406-3.559-1.518a2.649,2.649,0,0,1-.366-1.819c-5.286-1.086-5.953-2.264-5.862-3.284.052-.589.209-2.355,8.2-2.538.379-1.426,2.355-2.852,4.279-4.239.353-.262.8-.576,1.191-.877-2.381-.393-6.123-1.374-7.837-3.677-.013-.026-.039-.039-.052-.065a4.28,4.28,0,0,1-.811-2.107,9.769,9.769,0,0,1-4.579,1.335,7.374,7.374,0,0,1-1.308-.118l-.34-.065-.222-.262c-.6-.72-.34-2.5.157-3.873-.3.039-.641.092-.981.144a19.855,19.855,0,0,1-2.983.3,5.4,5.4,0,0,1-2.839-.667,9.776,9.776,0,0,1-5.273,5.574c-.039.013-.092.039-.131.052a14.965,14.965,0,0,1,.9,5.835,15.765,15.765,0,0,0,.157,2.407,2.781,2.781,0,0,0,.078.353c.065-.1.131-.222.2-.327,1.335-2.237,2.735-4.422,4.252-6.542.366-.51.746-1.021,1.138-1.518.549-.72,1.1-1.413,1.7-2.093a21.145,21.145,0,0,1,1.6-1.649,7.792,7.792,0,0,1,1.858-1.335,7.408,7.408,0,0,0-1.753,1.439,20.613,20.613,0,0,0-1.465,1.74c-.5.641-.955,1.3-1.413,1.976-.393.589-.785,1.191-1.164,1.793-1.269,2.054-2.447,4.161-3.559,6.306-.092.17-.183.327-.262.484.118-.026.222-.052.34-.078.327-.079.641-.157.968-.222,1.06-.222,2.133-.432,3.192-.628,2.133-.393,4.252-.746,6.385-1.112s4.252-.733,6.372-1.125c1.06-.2,2.12-.406,3.166-.628a28.943,28.943,0,0,0,3.127-.824,26.34,26.34,0,0,1-3.088.968c-1.047.275-2.093.536-3.153.772-2.107.484-4.213.955-6.333,1.413s-4.226.916-6.32,1.4c-1.047.249-2.094.5-3.127.759-.563.157-1.138.314-1.688.484-.17.052-.34.1-.5.157v.052c.1.092.209.2.3.288,1.191,1.2,2.434,2.408,3.663,3.585,1.688,1.609,3.376,3.206,5.09,4.789s3.428,3.153,5.181,4.684c.877.772,1.753,1.531,2.643,2.277a31.067,31.067,0,0,0,2.774,2.12,28.821,28.821,0,0,1-2.865-2c-.929-.707-1.845-1.439-2.748-2.172Z" transform="translate(9.793 37.392)" fill="#b2857f"/>
    <path id="Path_810" data-name="Path 810" d="M214.733,122.274c-.157.026-.314.039-.471.065a25,25,0,0,1-3.271.314h-.17a9.565,9.565,0,0,1-2.368-.275.8.8,0,0,1-.039.17,9.447,9.447,0,0,1-4.043,5.574c-.17.118-.327.249-.51.366a5.583,5.583,0,0,1,1.112,2.9,21.087,21.087,0,0,1,.144,2.682c0,.288,0,.628.013.942.065-.039.131-.065.209-.1.026-.078.065-.144.092-.222a15.388,15.388,0,0,1,2.146-3.624,40.3,40.3,0,0,1,3.114-3.572c.092-.092.183-.183.275-.262,1.021-1.034,2.08-2.028,3.193-2.983.706-.6,1.426-1.178,2.185-1.74.052-.039.092-.065.144-.1.118-.092.236-.183.366-.275h-.393a12.788,12.788,0,0,0-1.714.157Z" transform="translate(8.23 40.748)" fill="#b2857f"/>
    <path id="Path_811" data-name="Path 811" d="M199.423,116.579c2.761.746,5.888,1.6,7.445,2.578a20.424,20.424,0,0,1,3.454,2.512,26.76,26.76,0,0,1,2.29,2.407c.065.079.131.144.183.209a8.063,8.063,0,0,0,1.426.118h.183a24.81,24.81,0,0,0,2.97-.288h.013a.875.875,0,0,0-.092-.144c-.262-.471-.523-.929-.811-1.361a26.971,26.971,0,0,0-2.054-2.761c-.327-.406-.654-.811-1.007-1.191a31.686,31.686,0,0,0-3.729-3.454,17.564,17.564,0,0,0-4.632-2.551c-.17-.065-.393-.157-.68-.262-3.127-1.217-6.293-2.342-8.23-2.342a2.409,2.409,0,0,0-1.714.55c-.039.039-.092.078-.157.131-.589.5-2.133,1.806-1.282,3.258.576.994,2.486,1.544,6.385,2.6Z" transform="translate(1.761 33.624)" fill="#b2857f"/>
    <path id="Path_812" data-name="Path 812" d="M208.543,139.636c.039-.118.078-.222.131-.353a8.208,8.208,0,0,0,.667-4.527c-.157.039-.327.1-.51.17a5.99,5.99,0,0,0-1.793.968l-.052.079-.039.065-.615.981-.366-.445-.052-.065-.432-.523a4.3,4.3,0,0,1-.6-2.721v-.536a13.741,13.741,0,0,0-.772-5.194c-.249-.563-.065-1.348-1.662-.811a12.71,12.71,0,0,0-1.282.536,4.893,4.893,0,0,0-1.439,1.112,5.624,5.624,0,0,0-1.452,3.428v.209a7.784,7.784,0,0,0,2.6,5.94A7.456,7.456,0,0,0,208.4,139.7c.052-.026.118-.026.17-.052Z" transform="translate(3.462 43.507)" fill="#b2857f"/>
    <path id="Path_813" data-name="Path 813" d="M210.838,152.068a5.631,5.631,0,0,0,2.394-.432,5.968,5.968,0,0,0,3.4-4.5c.026-.157.065-.314.078-.471.026-.262.065-.523.065-.785a.566.566,0,0,1-.092.079,1.843,1.843,0,0,1-.589.445l-1.06.484-.118.052-.118-.746-.092-.536c-.183-1.086-1.662-5.574-3.821-7.249a2.659,2.659,0,0,0-1.622-.628,2.552,2.552,0,0,0-.9.2c-.118.052-.235.078-.366.144l-1.413.5c-2.538,1.688-3.454,5.378-2.015,8.74a7.408,7.408,0,0,0,6.267,4.684Z" transform="translate(8.241 50.425)" fill="#b2857f"/>
    <path id="Path_814" data-name="Path 814" d="M224.087,152.389c3.323-.968,5.1-4.907,3.978-8.793a8.125,8.125,0,0,0-2.237-3.69c-.026-.026-.052-.039-.065-.052a7.3,7.3,0,0,0-1.793-1.2c-.052-.026-.092-.026-.144-.052a5.445,5.445,0,0,0-5.037.236,4.937,4.937,0,0,0-.68.484,7.349,7.349,0,0,0-2.067,7.785c1.125,3.886,4.736,6.254,8.06,5.286Z" transform="translate(14.009 50.654)" fill="#b2857f"/>
    <path id="Path_815" data-name="Path 815" d="M211.175,160.436a8.275,8.275,0,0,0,.981-1.871,7.223,7.223,0,0,0,.039-5.207,5.577,5.577,0,0,0-1.976-2.525c-2.839-1.976-7.013-.89-9.329,2.434s-1.884,7.615.968,9.591,7.013.89,9.329-2.447Z" transform="translate(3.812 62.762)" fill="#b2857f"/>
    <path id="Path_816" data-name="Path 816" d="M214.85,163.529a5.789,5.789,0,0,0,4.893.85c3.323-.968,5.1-4.906,3.964-8.792s-4.736-6.254-8.06-5.286a5.408,5.408,0,0,0-1.544.733,7.242,7.242,0,0,0-2.434,8.06,8.033,8.033,0,0,0,3.166,4.436Z" transform="translate(11.874 62.835)" fill="#b2857f"/>
    <path id="Path_817" data-name="Path 817" d="M213.082,175.988c3.323-.968,5.1-4.907,3.964-8.792-.968-3.323-3.742-5.521-6.607-5.5a5,5,0,0,0-1.452.209c-3.323.968-5.1,4.906-3.978,8.793a7.527,7.527,0,0,0,5.168,5.325,5.428,5.428,0,0,0,2.892-.039Z" transform="translate(8.619 66.418)" fill="#b2857f"/>
    <path id="Path_818" data-name="Path 818" d="M290.959,156.386c-.052-.523-.118-1.034-.222-1.557a21.088,21.088,0,0,0-.824-2.9c-.144-.419-.314-.837-.484-1.256h.052l-.8-1.688c-.026-.065-.065-.118-.092-.183l-.1-.209h0c-.393-.8-.785-1.583-1.191-2.368-.523-.981-1.073-1.949-1.622-2.918-.667-1.165-1.348-2.329-2.015-3.493l-.89-1.531a1.974,1.974,0,0,0-.68-.981c-.379-.3-.471-.366-14.484-.366-10.14,0-10.166.026-10.546.3a1.864,1.864,0,0,0-.772,1.06c-.052.078-.092.157-.144.236l-.733,1.256c-.563.955-1.112,1.923-1.662,2.879-.733,1.282-1.452,2.591-2.172,3.886-.34.615-.667,1.282-1.034,2.041h0l-.563,1.2s-.026.065-.039.092l-.379.837h.039c-.353.864-.667,1.7-.9,2.486a15.532,15.532,0,0,0-.576,2.761c-.052.393-.078.8-.092,1.2,0,.327,0,.654.026.981.026.288.052.589.092.877a9.488,9.488,0,0,0,.222,1.021l.065.236a10.1,10.1,0,0,0,.942,2.394,15.658,15.658,0,0,0,2.368,3.206,19.339,19.339,0,0,0,2.067,1.9,23.216,23.216,0,0,0,4.671,2.878,25.206,25.206,0,0,0,4.37,1.557c.3.079.615.144.929.222a2.364,2.364,0,0,0,.249.275,2.445,2.445,0,0,0,.314.235,3.748,3.748,0,0,1,.837.693,4.144,4.144,0,0,1,.916,1.688,6.517,6.517,0,0,1,.222,1.439,7.42,7.42,0,0,1-.039,1.348,6.877,6.877,0,0,1-.576,1.963,4.97,4.97,0,0,1-2.7,2.565,2.265,2.265,0,0,0-.51.288l-.183.039c-.419.079-.837.144-1.269.236a14.9,14.9,0,0,0-2.578.746,6.531,6.531,0,0,0-1.269.654,2.284,2.284,0,0,0-.68.693,1.674,1.674,0,0,0-.236.89v.72a2.032,2.032,0,0,0,.052.379,1.712,1.712,0,0,0,.419.746,2.658,2.658,0,0,0,.837.6,7.756,7.756,0,0,0,1.622.576,22.848,22.848,0,0,0,2.368.458l.327.052c.3.052.6.079.9.1.209.026.406.039.615.065.6.078,1.217.118,1.819.157l.379.026c.5.026.994.052,1.492.065.667.026,1.322.039,1.989.052h.144c.288,0,.589,0,.877-.013h.968c.366-.026.72-.026,1.086-.039.222,0,.445-.026.68-.039l1.374-.078c.2,0,.392-.026.589-.039l1.125-.118h.157c.34-.052.693-.092,1.034-.144.183-.026.353-.052.536-.092l.3-.052a21.637,21.637,0,0,0,2.3-.484,6.109,6.109,0,0,0,1.322-.51,2.729,2.729,0,0,0,.733-.549,1.538,1.538,0,0,0,.445-1.282v-.065c0-.183,0-.366.013-.55a1.728,1.728,0,0,0-.432-1.125,3.189,3.189,0,0,0-.667-.55,6.955,6.955,0,0,0-1.125-.549,19.692,19.692,0,0,0-3.35-.89l-.641-.1a2.525,2.525,0,0,0-.563-.314,4.981,4.981,0,0,1-2-1.5,5.607,5.607,0,0,1-.994-1.95,6.009,6.009,0,0,1-.275-1.583c0-.249,0-.51.013-.759v-.144a7.349,7.349,0,0,1,.17-1.164,4.193,4.193,0,0,1,.706-1.57,4.03,4.03,0,0,1,1.06-.981,2.023,2.023,0,0,0,.563-.51l.72-.157a24.783,24.783,0,0,0,5.665-2.133,21.8,21.8,0,0,0,5.652-4.226,17.218,17.218,0,0,0,1.57-1.9,11.792,11.792,0,0,0,1.4-2.551,12.1,12.1,0,0,0,.628-2.277,9.448,9.448,0,0,0,.144-1.269,11.728,11.728,0,0,0-.039-1.544ZM252.9,148.6c.183-.353.353-.693.536-1.008.707-1.3,1.426-2.578,2.146-3.847l1.649-2.865.824-1.413c.065-.1.118-.209.17-.314,1.086-.026,4.174-.052,9.355-.052,6.241,0,11.632.039,13.215.092a1.436,1.436,0,0,0,.079.144l.916,1.583c.667,1.164,1.348,2.316,2.015,3.48.549.942,1.086,1.9,1.6,2.852.235.445.471.9.707,1.361H252.9Z" transform="translate(33.992 58.779)" fill="#b2857f"/>
  </g>
</svg>
