<svg xmlns="http://www.w3.org/2000/svg" width="85.695" height="182.058" viewBox="0 0 85.695 182.058">
  <g id="Group_209" data-name="Group 209" transform="translate(-47.224 -486.73)">
    <path id="Path_1002" data-name="Path 1002" d="M53.787,546.58c-.322.4-.751.939-.939,1.181a6.491,6.491,0,0,0-.483.966c-.966,2.12-1.932,4.24-2.871,6.359a8.235,8.235,0,0,0-.778,1.717c-.51,2.361-.939,4.75-1.4,7.138-.376,1.986.3,2.791,2.952,3.6,2.844.859,4.723.429,5.394-1.261a2.787,2.787,0,0,0,.188-.939q.282-4.669.483-9.338c.054-1.288.859-3.408,1.208-3.354a2.408,2.408,0,0,1,.751-1.02,26.186,26.186,0,0,1-4.481-5.045Z" transform="translate(0 100.749)" fill="#b2857f"/>
    <path id="Path_1003" data-name="Path 1003" d="M78.9,554.493a17.865,17.865,0,0,1-1.342-2.683,17.939,17.939,0,0,0-5.581,1.1c-.322.134-.644.268-.912.4.349,1.369.268,4.24,1.1,4.75,2.442,1.5,2.871,1.154,4.991,1.1a7.453,7.453,0,0,0,1.905-.081c.59-.161,1.476-.456,1.583-.885a3.525,3.525,0,0,0-.215-2.281c-.268-.59-1.1-.859-1.53-1.4Z" transform="translate(40.124 109.553)" fill="#b2857f"/>
    <path id="Path_1004" data-name="Path 1004" d="M82.262,521.783a39.467,39.467,0,0,1-7.191-.671,36.245,36.245,0,0,1-3.3,4.615,16.27,16.27,0,0,0-3.569,8.533,23.519,23.519,0,0,1-1.02,5.447c-1.825,5.447-3.81,10.841-5.742,16.261a5.44,5.44,0,0,1-3.569,3.3c.188.349.4.778.644,1.234.483.859,1.047,1.905,1.8,3.005a10.46,10.46,0,0,0,1.315,1.61,4.131,4.131,0,0,0,.778.617,1.475,1.475,0,0,0,.886.134,5.385,5.385,0,0,0,2.093-.832c.778-.429,1.556-.939,2.469-1.4a10.943,10.943,0,0,1,1.5-.564,4.473,4.473,0,0,1,.832-.134h.456a1.578,1.578,0,0,1,.537.161,3.2,3.2,0,0,1,1.234,1.315c.268.483.456.993.671,1.476a9.75,9.75,0,0,0,1.476,2.764,1.453,1.453,0,0,0,1.261.537,2.918,2.918,0,0,0,1.342-.617,32.139,32.139,0,0,0,2.361-2.334,8.391,8.391,0,0,1,1.369-1.154,4.5,4.5,0,0,1,.886-.429,2.992,2.992,0,0,1,.563-.107h.241a.736.736,0,0,1,.349.054,3.272,3.272,0,0,1,1.637,1.288,13.628,13.628,0,0,1,.939,1.5,7.925,7.925,0,0,0,1.717,2.442c.3.188.429.188.859.027a5.914,5.914,0,0,0,1.234-.725c.859-.59,1.664-1.261,2.549-1.905.456-.322.886-.617,1.4-.912a4.314,4.314,0,0,1,1.8-.617,3.088,3.088,0,0,1,.537.027,3.81,3.81,0,0,1,.429.081c.322.081.537.161.805.241.51.188.966.376,1.422.59.912.429,1.744.885,2.549,1.342.4.215.778.483,1.154.7.188.134.107.081.241.081a1.389,1.389,0,0,0,.429-.188,9.246,9.246,0,0,0,1.691-1.556c.51-.564.966-1.127,1.4-1.664.724-.886,1.315-1.717,1.852-2.415a4.91,4.91,0,0,1,.7-.966c.241-.349.456-.644.644-.912-1.825-2.71-2.2-6.011-2.469-8.855-.564-6.628-1.449-13.2-2.335-19.8-.671-4.911-3.7-11.807-6.9-14.919-3.918,3.139-9.58,4.267-14.866,4.267Z" transform="translate(17.921 51.78)" fill="#b2857f"/>
    <path id="Path_1005" data-name="Path 1005" d="M55.862,550.23a6.528,6.528,0,0,0,2.039,1.181,1.57,1.57,0,0,0,1.047.081,9.384,9.384,0,0,0,1.234-.4c.886-.349,1.8-.832,2.818-1.261.51-.215,1.047-.429,1.637-.644a5.032,5.032,0,0,1,2.12-.268,3.9,3.9,0,0,1,2.093,1.234,10.76,10.76,0,0,1,1.208,1.583c.7,1.073,1.288,2.173,1.878,3.22a10.522,10.522,0,0,0,1.959,2.683.957.957,0,0,0,.939.161,4.942,4.942,0,0,0,1.449-.671c1.02-.644,2.039-1.5,3.166-2.281a11.5,11.5,0,0,1,1.878-1.1,5.07,5.07,0,0,1,1.181-.349,2.753,2.753,0,0,1,.671-.027,1.042,1.042,0,0,1,.4.054l.241.054a4.749,4.749,0,0,1,2.013,1.288,14.712,14.712,0,0,1,1.342,1.61c.805,1.1,1.53,2.2,2.361,3.14a5.276,5.276,0,0,0,1.422,1.154,2.071,2.071,0,0,0,1.637.161,7.58,7.58,0,0,0,2.844-2.254,35.325,35.325,0,0,1,2.576-2.764,4.781,4.781,0,0,1,1.825-.993,4.194,4.194,0,0,1,2.066.188,56.157,56.157,0,0,1,6.064,2.281c.456.161.886.3,1.315.4a4.537,4.537,0,0,0,.644.134l.349.054h.215a4.625,4.625,0,0,0,2.093-.51,17.938,17.938,0,0,0,3.327-2.281c.886-.724,1.53-1.342,1.986-1.771-.242-1.073-2.308-3.166-1.61-3.944a4.26,4.26,0,0,0,.993-4.8c-1.181-2.737-.993-1.234-2.415-3.864a4.587,4.587,0,0,1-.456-2.791c-.161.268-.349.537-.537.805-.4.564-.832,1.181-1.315,1.771a9.587,9.587,0,0,1-1.8,1.825,3.032,3.032,0,0,1-.724.376.966.966,0,0,1-.563.027.5.5,0,0,1-.188-.054h-.08l-.188-.134-1.208-.564c-.805-.376-1.664-.778-2.549-1.1a8.937,8.937,0,0,0-2.5-.671,3.1,3.1,0,0,0-1.073.456,11.167,11.167,0,0,0-1.208.859c-.832.617-1.664,1.288-2.63,1.932a7.812,7.812,0,0,1-1.637.859,2.608,2.608,0,0,1-.537.134c-.107,0-.241.027-.349.027h-.3a2.235,2.235,0,0,1-1.154-.456,4.958,4.958,0,0,1-1.261-1.5c-.3-.51-.564-1.02-.832-1.53-.268-.483-.51-.993-.778-1.422a2,2,0,0,0-.859-.859h-.241a1.376,1.376,0,0,0-.268.027,3.144,3.144,0,0,0-.644.242,9.419,9.419,0,0,0-1.315.885c-.859.7-1.664,1.5-2.63,2.147a3.245,3.245,0,0,1-1.664.644,2.312,2.312,0,0,1-.456-.027,1.15,1.15,0,0,1-.456-.161,2.5,2.5,0,0,1-.725-.564,12.888,12.888,0,0,1-1.664-2.844,12.147,12.147,0,0,0-.778-1.315,2.076,2.076,0,0,0-.939-.832,1.943,1.943,0,0,0-1.1.161,8.548,8.548,0,0,0-1.208.617c-.778.483-1.556,1.02-2.388,1.476a6.739,6.739,0,0,1-2.818.939h-.483a.673.673,0,0,1-.268-.054,2.125,2.125,0,0,1-.751-.322,5.848,5.848,0,0,1-1.047-.885A10.123,10.123,0,0,1,67,536.921a22.352,22.352,0,0,1-1.5-3.3h0c-.322,3.113-4.025,5.206-7.862,5.957,1.744,1.208.966,2.093.027,2.925-.859.751-1.771,1.449-2.6,2.254-.51.483-.215,2.12-1.717,3.059a22.556,22.556,0,0,0,2.549,2.442Z" transform="translate(10.295 78.933)" fill="#b2857f"/>
    <path id="Path_1006" data-name="Path 1006" d="M53.177,553.242a4.981,4.981,0,0,0,1.905,1.69,2.394,2.394,0,0,0,.537.161c.268.027.563.081.805.081a14.526,14.526,0,0,0,1.556.054c2.174-.027,4.615-.564,7.379-.564a9.773,9.773,0,0,1,2.12.161,3.837,3.837,0,0,1,2.093,1.368,17.5,17.5,0,0,1,2.147,3.837,17.932,17.932,0,0,0,2.147,3.757,3.189,3.189,0,0,0,1.637,1.127,3.56,3.56,0,0,0,2.039-.188,18.33,18.33,0,0,0,3.864-2.254,14.817,14.817,0,0,1,4.293-2.254,4.673,4.673,0,0,1,2.71.161,11.8,11.8,0,0,1,2.254,1.127c1.369.859,2.549,1.878,3.73,2.764a10.4,10.4,0,0,0,3.488,1.932c.671.241,1.744-.7,2.657-1.664.939-.993,1.8-2.147,2.871-3.166a8.709,8.709,0,0,1,1.878-1.449,3.452,3.452,0,0,1,1.315-.429,2.519,2.519,0,0,1,.778,0l.483.054a13.656,13.656,0,0,1,3.971,1.181c1.207.564,2.227,1.288,3.193,1.852a7.549,7.549,0,0,0,1.342.644,1.573,1.573,0,0,0,.617.107,5.841,5.841,0,0,0,.725-.027,6.8,6.8,0,0,0,2.576-.859,14.024,14.024,0,0,0,3.542-3.032l.4-.483c.054-.161.081-.3.107-.4.188.027.107-.51-.429-1.744-.617-1.449-1.127-2.469,0-3.649,2.2-2.227-1.154-5.93-1.208-7.969-.322.456-.724.966-1.234,1.583a15.256,15.256,0,0,1-3.3,2.9,5.848,5.848,0,0,1-2.818.939h-.8c-.215-.054-.483-.107-.751-.161q-.765-.161-1.53-.4a63.015,63.015,0,0,1-5.957-2.549c-.241-.107-.563-.215-.724-.268a1.687,1.687,0,0,0-.322-.081h-.268a3.454,3.454,0,0,0-1.369.564,19.84,19.84,0,0,0-2.71,2.361,9.4,9.4,0,0,1-3.193,2.308,2.885,2.885,0,0,1-2.12-.161,6.447,6.447,0,0,1-1.691-1.208c-.993-.939-1.825-1.986-2.71-2.952a15.53,15.53,0,0,0-1.369-1.315,3.326,3.326,0,0,0-1.4-.724c-.859-.161-1.905.537-2.925,1.315s-1.986,1.691-3.166,2.5a7.077,7.077,0,0,1-2.066,1.02,3.279,3.279,0,0,1-1.368.107h-.08l-.161-.027h-.107a2.431,2.431,0,0,1-.376-.161,1.229,1.229,0,0,1-.376-.188,1.108,1.108,0,0,1-.3-.188,6.532,6.532,0,0,1-1.583-1.664,19.694,19.694,0,0,1-1.073-1.69c-.644-1.1-1.234-2.2-1.825-3.166a10.675,10.675,0,0,0-.912-1.288,2.084,2.084,0,0,0-.805-.617,3.152,3.152,0,0,0-1.234.134c-.483.134-.993.3-1.476.456-.993.349-1.986.751-2.979,1.047a6.146,6.146,0,0,1-1.583.322c-.3,0-.59,0-.912-.027a1.35,1.35,0,0,1-.429-.134,3.027,3.027,0,0,1-.349-.134A9.2,9.2,0,0,1,60.046,542a19.36,19.36,0,0,1-2.522-2.979.132.132,0,0,0-.08.027c.134,1.744-.671,1.583-2.254,2.63a7.881,7.881,0,0,0-1.959,1.932c-.912,1.261-1.583,2.71-2.576,3.864-.107.134-.161.215-.215.268.161.429.322.859.537,1.369a19.791,19.791,0,0,0,2.227,4.132Z" transform="translate(5.413 88.023)" fill="#b2857f"/>
    <path id="Path_1007" data-name="Path 1007" d="M127.928,559.656a48.456,48.456,0,0,1-2.442-5.555,4.7,4.7,0,0,1,.08-1.556,11.69,11.69,0,0,1-3.032,2.9,8.3,8.3,0,0,1-2.979,1.234c-.322.054-.617.081-.859.107a6.155,6.155,0,0,1-.993-.054,7.1,7.1,0,0,1-1.8-.644,16.287,16.287,0,0,0-6.6-2.361l-.483-.054h-.241a2.28,2.28,0,0,0-.59.215,6.734,6.734,0,0,0-1.342,1.1c-.886.939-1.771,2.039-2.818,3.14a10.85,10.85,0,0,1-1.825,1.61,4.584,4.584,0,0,1-1.315.617,4,4,0,0,1-.886.107h-.4c-.188-.027-.08,0-.134,0h-.054l-.161-.054a11.538,11.538,0,0,1-4.293-2.442c-1.207-.966-2.335-1.959-3.515-2.844a8.241,8.241,0,0,0-1.8-1.047,3.523,3.523,0,0,0-1.825-.241A13.086,13.086,0,0,0,83.6,555.5a22.534,22.534,0,0,1-4.213,2.013,4.6,4.6,0,0,1-2.415.134,4.246,4.246,0,0,1-2.013-1.342,27.7,27.7,0,0,1-2.388-3.783,15.275,15.275,0,0,0-2.308-3.381,2.619,2.619,0,0,0-1.342-.778,11.219,11.219,0,0,0-1.878.081,60.139,60.139,0,0,1-7.46.778,13.923,13.923,0,0,1-1.825-.134c-.3-.054-.537-.107-.832-.161a3.956,3.956,0,0,1-.993-.349,6.25,6.25,0,0,1-2.415-2.388,14.059,14.059,0,0,1-1.208-2.5c-.751,1.61-2.871,2.871-2.871,4.884a26.055,26.055,0,0,0,6.628,7.782c1.02.322,2.254,1.127,3.623,1.744,2.093.912,2.522.886,4.642,1.717a8.5,8.5,0,0,1,2.737,1.852c1.556,1.744,4.937,3.059,7.272,3.354,1.717.215,3.435.349,5.1.725a18.867,18.867,0,0,1,3.274,1.288c1.959.859,6.011-.027,8.05.537,3.864,1.5,5.1-.537,7.513-.725,4.642,2.039,6.6-.322,8.077-.617a9.339,9.339,0,0,1,1.556-.724,19.574,19.574,0,0,1,9.66-.886,29.1,29.1,0,0,0,6.547-.4c2.925-.7,4.7-2.523,5.072-2.576a18.964,18.964,0,0,1-1.342-2.093Z" transform="translate(3.73 95.884)" fill="#b2857f"/>
    <path id="Path_1008" data-name="Path 1008" d="M66.44,514.1a6.655,6.655,0,0,1,.483-1.4,19.223,19.223,0,0,1,4.454-5.1h-.161a1.694,1.694,0,0,1-.939-.885,1.641,1.641,0,0,1-.188-.644v-.161h-.215a1.771,1.771,0,0,1-.724-.161,2.458,2.458,0,0,1-.349-.215,1.015,1.015,0,0,1-.268-.322,1.206,1.206,0,0,1-.134-.8,1.889,1.889,0,0,1,1.369-1.5,1.65,1.65,0,0,1,.51-.054c-.027-.188-.08-.376-.107-.563a2.352,2.352,0,0,1,0-.751,1.647,1.647,0,0,1,.241-.751c.107-.107.161-.241.322-.3a1.185,1.185,0,0,1,.429-.161,1.265,1.265,0,0,1,.832.161,1.772,1.772,0,0,1,.644.537,2.613,2.613,0,0,1,.4.7,1.512,1.512,0,0,1,.107.322,2.878,2.878,0,0,1,.724-.161,1.993,1.993,0,0,1,.671.081,1.213,1.213,0,0,1,.644.483,1.156,1.156,0,0,1,.107.832,1.352,1.352,0,0,1-.322.617,1.471,1.471,0,0,1-.241.188,1.26,1.26,0,0,1,.322.241,15.94,15.94,0,0,0,2.308-2.764,6.056,6.056,0,0,0,.617-1.261,5,5,0,0,0,.268-1.046.827.827,0,0,1,.027-.268c-4.937-4.347-11.243-1.691-13.98,2.415-.993,1.476-2.066,2.9-3.193,4.427v.081c.161.4.322.885.537,1.4a41.047,41.047,0,0,0,3.971,7c.268.349.537.7.778,1.047v-.59a2.6,2.6,0,0,1,.08-.617Z" transform="translate(23.358 16.882)" fill="#b2857f"/>
    <path id="Path_1009" data-name="Path 1009" d="M62.9,536.077c1.664,3.22,3.623,6.306,5.34,9.526,1.047,1.986,1.959,4.079,2.925,6.118,0-.456-.027-.939,0-1.422,0-.7,0-1.449.054-2.174,0-.751.107-1.5.161-2.227.107-.751.161-1.5.3-2.227.107-.724.242-1.449.376-2.147a32.5,32.5,0,0,1,.966-3.73,12.736,12.736,0,0,1,.537-1.449c.161-.429.349-.778.483-1.073a5.181,5.181,0,0,1,.376-.644c0-.027.027-.054.054-.08-.429-.429-.859-.912-1.288-1.4a.026.026,0,0,0-.027-.027h-.027v-.054c-.456-.51-.886-1.073-1.342-1.61a40.4,40.4,0,0,1-4.374-6.95c-.242-.51-.456-.993-.644-1.4,0-.054-.027-.08-.054-.134-1.771-2.066-1.959-3.113-.617-5.045a42.064,42.064,0,0,1,4.83-5.85c1.959-1.986,4.186-3.7,6.333-5.608,2.576,1.556,5.259,3.435,8.157,4.884,3.22,1.637,5.045,3.81,4.776,7.621-.215,3.086.215,7.97-.537,10.948-.107,0,.537-2.978-1.959-2.334,1.261-.59,1.932-1.852.751-2.737-.134-1.825,2.227-.885.859-2.522-1.127-1.315-2.227-2.039-2.549-3.891a2.972,2.972,0,0,0-.805-1.476,10.958,10.958,0,0,0-1.1-1.127v.268a3.75,3.75,0,0,1-.241,1.073,8.891,8.891,0,0,1-.59,1.288,14.7,14.7,0,0,1-2.254,2.844h0a1.119,1.119,0,0,1,.215.8,1.658,1.658,0,0,1-.241.724,2.3,2.3,0,0,1-.51.51,1.81,1.81,0,0,1-.322.161.792.792,0,0,1-.349.054,1.394,1.394,0,0,1-.671-.188c-.054,0-.08-.054-.107-.107-.188.188-.4.376-.617.564,0,.054-.027.08-.054.134a.871.871,0,0,1-.215.241.965.965,0,0,1-.268.188h-.054c-1.905,1.771-3.73,3.623-4.535,5.367a4.536,4.536,0,0,0-.429,1.288,2.008,2.008,0,0,0-.054.563v.483a2.864,2.864,0,0,0,.161.886h0c.429.537.859,1.047,1.288,1.5.456.537.939.993,1.368,1.422.429.456.912.832,1.315,1.208s.832.644,1.181.939a8.006,8.006,0,0,0,.966.671c.08.054.134.08.215.134a42.3,42.3,0,0,1,3.676,2.147,43.625,43.625,0,0,1,3.81,2.818,26.618,26.618,0,0,1,3.381,3.354,13.945,13.945,0,0,1,1.959,2.979,8.049,8.049,0,0,0-.376-2.6,27.958,27.958,0,0,0-1.476-3.757c-.59-1.234-1.234-2.415-1.932-3.6-.671-1.181-1.4-2.335-2.147-3.488a43.21,43.21,0,0,1,4.615,6.789,19.2,19.2,0,0,1,1.637,3.81,6.68,6.68,0,0,1,.161,4.293l-.376.993-.349-1.02a13.264,13.264,0,0,0-2.281-3.945,29.475,29.475,0,0,0-3.247-3.354,44.067,44.067,0,0,0-3.649-2.978c-1.181-.885-2.388-1.717-3.623-2.522a.083.083,0,0,1-.054-.027c-.268-.161-.617-.349-.993-.617s-.805-.537-1.234-.885-.912-.7-1.4-1.154c-.483-.429-.993-.885-1.449-1.369a1.167,1.167,0,0,1-.161-.188c0,.027,0,.054-.054.08a4.926,4.926,0,0,0-.349.671c-.134.3-.3.644-.456,1.1a13.29,13.29,0,0,0-.456,1.449,34.358,34.358,0,0,0-.8,3.73c-.107.7-.215,1.4-.3,2.12s-.134,1.476-.188,2.2c0,.751-.08,1.476-.08,2.227,0,.724,0,1.449.027,2.147,0,.7.08,1.368.134,1.986.027.51.107.993.161,1.449.671,1.234,1.691,2.308,2.361,3.569a24.208,24.208,0,0,1,1.932,14.517h.08q1.047.2,2.174.322c5.608.671,12.88.322,17.844-2.871.322-.215.644-.429.966-.671a1.489,1.489,0,0,0,.215-.161c-1.047-3.059-1.664-7.3.241-10.277,3.7-5.85,1.047-10.465.08-12.665a17.6,17.6,0,0,0-3.3-4.562,16.046,16.046,0,0,0-1.234-1.073c-.429-.322-.859-.617-1.288-.912-.456-.241-.859-.537-1.288-.725s-.832-.429-1.208-.563a18.958,18.958,0,0,0-1.878-.671c-.134-.027-.241-.081-.349-.107-.027.107-.08.242-.107.349-2.5-2.147-3.193-3.381-2.657-4.481.751-1.5,2.335-2.173,4.508-1.852-.563,1.932-1.127,3.891-1.744,5.957a2.117,2.117,0,0,1,.349.081,17.34,17.34,0,0,1,1.932.537c.4.107.805.322,1.261.483s.886.429,1.369.644c.456.268.912.537,1.369.832a12.263,12.263,0,0,1,1.315,1.02,16.8,16.8,0,0,1,2.5,2.71,57.663,57.663,0,0,1,.188-11.163c.537-5.716-.617-11.565-.778-17.361-.134-4.615-2.174-7.057-6.735-8.157-3.354-.8-6.44-2.71-9.633-4.159a11.259,11.259,0,0,1-1.476-.939c1.02-4.079,4.293-6.386,6.977-9.15-.107-.161-.241-.322-.349-.483-1.637.832-3.274,1.664-5.286,2.683.4-2.656.751-4.991,1.127-7.379a3.9,3.9,0,0,0-3.3,4.105c-.054,3.059-1.905,4.964-4.535,6.682v-5.125c-.188-.027-.349-.08-.537-.107-.322.671-.671,1.342-1.154,2.308-1.959-2.388-.751-5.528-2.576-8.157-.161,1.315-.268,2.227-.376,3.3-.59-.349-1.154-.644-2.093-1.181.725,1.476,1.261,2.576,1.825,3.676a2.418,2.418,0,0,0-.241.268c-1.717-1.261-3.408-2.5-5.125-3.757-.08.134-.188.242-.268.376.859.912,1.691,1.852,2.6,2.71a13.439,13.439,0,0,1,4.159,7.138c.3,1.449,1.368,2.764,2.039,4.025-3.945,3.166-8.077,6.574-12.263,9.875-2.335,1.825-2.871,4.213-2.576,7,.59,5.742,3.14,10.76,5.716,15.751Z" transform="translate(16.73 0)" fill="#b2857f"/>
    <path id="Path_1010" data-name="Path 1010" d="M65.43,500.562a1.157,1.157,0,0,0,.188-.188.583.583,0,0,0-.107-.134A1.417,1.417,0,0,1,65.43,500.562Z" transform="translate(30.647 22.742)" fill="#b2857f"/>
    <path id="Path_1011" data-name="Path 1011" d="M68.092,503.653a.863.863,0,0,0,.188.107.132.132,0,0,1,.08.027.906.906,0,0,0,.537.054.852.852,0,0,0,.241-.08c.08-.027.134-.107.215-.134a1.519,1.519,0,0,0,.322-.4,1.59,1.59,0,0,0,.107-.456.541.541,0,0,0-.08-.3.053.053,0,0,0-.054-.054c0-.027-.054-.054-.08-.08a.841.841,0,0,0-.268-.134,2.97,2.97,0,0,0-.51-.054h-.054a.418.418,0,0,1-.322-.483c0-.134.107-.215.215-.3a2.212,2.212,0,0,0,.671-.51,1.091,1.091,0,0,0,.161-.3.438.438,0,0,0,0-.188c0-.054-.08-.081-.161-.134a1.4,1.4,0,0,0-.376-.054,2.76,2.76,0,0,0-.886.188h0a.384.384,0,0,1-.483-.268v-.054c-.054-.215-.08-.429-.134-.617a1.373,1.373,0,0,0-.268-.563,1.535,1.535,0,0,0-.4-.429.8.8,0,0,0-.51-.188.484.484,0,0,0-.268.054c-.08,0-.134.107-.215.161a1.309,1.309,0,0,0-.241.59,1.879,1.879,0,0,0,0,.671,3.2,3.2,0,0,0,.134.7.147.147,0,0,1-.107.161h-.027a1.369,1.369,0,0,0-.563.081,1.462,1.462,0,0,0-.483.3,1.763,1.763,0,0,0-.322.456,1.734,1.734,0,0,0-.107.51.659.659,0,0,0,.134.4c.027.054.107.081.134.134l.188.107a2.894,2.894,0,0,0,.51.081h.563a.367.367,0,0,1,.376.376v.134a.852.852,0,0,0-.054.376,1.215,1.215,0,0,0,.08.429,1.339,1.339,0,0,0,.537.671.455.455,0,0,0,.376.027.567.567,0,0,0,.188-.08.819.819,0,0,0,.188-.134,3.637,3.637,0,0,0,.59-.885.037.037,0,0,1,.054,0h0l.215.161h.027Zm-.161-1.825a.825.825,0,0,1-.349.59.936.936,0,0,1-.456.161,1.2,1.2,0,0,1-.51-.134,1.406,1.406,0,0,1-.671-.832.7.7,0,0,1,.134-.59,1.313,1.313,0,0,1,.483-.376.949.949,0,0,1,.537-.054.761.761,0,0,1,.456.188,1.049,1.049,0,0,1,.349.617.551.551,0,0,1,0,.241v.241Z" transform="translate(28.307 19.409)" fill="#b2857f"/>
    <path id="Path_1012" data-name="Path 1012" d="M66,499.357a2,2,0,0,1-.3-.027,1.305,1.305,0,0,0-.322.027.641.641,0,0,0-.3.161.65.65,0,0,0-.215.3.553.553,0,0,0,.08.4.63.63,0,0,0,.376.188c.08,0,.322,0,.376-.054.107,0,.215-.054.3-.054a.637.637,0,0,0,.456-.241.272.272,0,0,0,.054-.215.645.645,0,0,0-.054-.215.621.621,0,0,0-.456-.241Z" transform="translate(29.698 21.21)" fill="#b2857f"/>
  </g>
</svg>
