<svg xmlns="http://www.w3.org/2000/svg" width="36.136" height="34.178" viewBox="0 0 36.136 34.178">
  <g id="Group_187" data-name="Group 187" transform="translate(-296.36 -464.28)">
    <path id="Path_841" data-name="Path 841" d="M350.408,479.032l-.1-.18c-1.27-2.2-2.588-3.416-3.922-3.614a3.232,3.232,0,0,0-2.693.67c-.086.075-.169.157-.247.24.1-1.315.195-2.322.262-2.629a.515.515,0,0,0-.112-.457c-.693-.865-6.356-.921-6.416-.921-2.468,0-2.757.307-2.854.652-.045.154-.052.453.371.712,1.03.625,1.963,9.39,1.989,12.072-3.708,1.985-6.581,6.442-6.581,10.27a8.205,8.205,0,0,0,4.588,7.48l.094.049h10.064l.094-.049a8.213,8.213,0,0,0,4.588-7.48c0-.135,0-.273-.011-.412a8.445,8.445,0,0,0,3.686-4.513c1.468-4.528-1.521-9.686-2.8-11.892Zm-7.311,2.693a1.253,1.253,0,0,0,.243.022c.805,0,1.285-.588,1.285-1.573a1.825,1.825,0,0,1,.97-1.8c.03-.015.06-.03.086-.045a1.09,1.09,0,0,1,.214.011,5.6,5.6,0,0,1,1.685,2.079c1.176,2.038,2.416,6.139,1.719,7.345a.575.575,0,0,1-.554.3,3.236,3.236,0,0,1-1.524-.558,2.527,2.527,0,0,0-1.255-.288,4.155,4.155,0,0,0-.633.052,11.731,11.731,0,0,0-2.382-1.708c0-.715.06-2.18.15-3.847Zm5.573,14.211a7.369,7.369,0,0,1-4.03,6.585H335a7.364,7.364,0,0,1-4.034-6.671c0-3.551,2.847-7.869,6.341-9.626l.232-.116v-.258c.015-.678-.532-10.63-2.075-12.757a12.661,12.661,0,0,1,1.719-.086,23.589,23.589,0,0,1,5.648.562c-.127.843-.292,3.053-.435,5.382-.019.292-.034.584-.052.876-.154,2.682-.27,5.319-.251,6.03l.008.255.228.116a10.392,10.392,0,0,1,2,1.333c.124.1.247.21.367.322s.24.221.36.337a12.138,12.138,0,0,1,3.562,6.768c.019.157.034.315.041.472.007.131.011.266.011.393v.09Zm3.719-5.277a7.441,7.441,0,0,1-2.978,3.813,12.872,12.872,0,0,0-3.27-6.382,1.538,1.538,0,0,1,.641.165,4.076,4.076,0,0,0,1.955.674,1.429,1.429,0,0,0,1.3-.73c.993-1.715-.592-6.251-1.719-8.2-1.008-1.742-1.858-2.431-2.277-2.495a2.214,2.214,0,0,0-.315-.026.88.88,0,0,0-.506.131h-.011a2.692,2.692,0,0,0-1.446,2.569c0,.715-.3.715-.427.715-.071,0-.1-.011-.1-.008a1.894,1.894,0,0,1-.041-.554v-.154c0-.116,0-.229,0-.337.015-.288.034-.573.052-.862a3.481,3.481,0,0,1,1-2.423,2.4,2.4,0,0,1,2.008-.472c1.045.157,2.187,1.259,3.3,3.195l.1.184c1.221,2.105,4.075,7.034,2.723,11.2Z" transform="translate(-21.103 -4.916)" fill="#8e6a65"/>
    <path id="Path_842" data-name="Path 842" d="M348.168,518.438l-.127-.169h-6.266c-.026.034-.052.064-.079.1l-.243.333c-.034.049-.067.094-.1.142-.06.094-.12.191-.18.288a5.878,5.878,0,0,0-.431.768,8.722,8.722,0,0,0-.476,1.172c-.052.206-.1.416-.15.622-.022.1-.052.21-.071.315l-.034.318c-.022.213-.049.427-.071.637,0,.214,0,.423.008.629a5.549,5.549,0,0,0,.022.614c.026.2.052.4.079.588s.041.382.082.562.086.352.127.517c.09.33.139.644.24.906s.172.494.24.685c.135.382.214.6.214.6s-.112-.2-.311-.554c-.1-.176-.221-.393-.36-.64s-.251-.551-.4-.869c-.071-.161-.146-.33-.221-.506s-.12-.367-.187-.562-.124-.4-.187-.6a5.843,5.843,0,0,1-.139-.648c-.041-.225-.082-.449-.124-.682-.015-.236-.03-.472-.049-.712l-.022-.363c0-.124.011-.243.019-.367.015-.247.026-.494.045-.745a10.123,10.123,0,0,1,.311-1.461c.019-.075.045-.15.067-.225q.067-.219.146-.427c.056-.146.112-.288.172-.427h-2.289l-.127.169c-.951,1.244-2.551,3.7-2.551,6.259a6.345,6.345,0,0,0,3.3,5.757l.1.06h9.207l.1-.06a6.411,6.411,0,0,0,3.274-5.236c.011-.157.019-.318.019-.479V524.7c0-.142-.007-.285-.015-.431a11.668,11.668,0,0,0-2.536-5.828Z" transform="translate(-24.005 -33.768)" fill="#8e6a65"/>
    <path id="Path_843" data-name="Path 843" d="M311.368,480.4c.843-.464,1-1.8.352-2.981a2.4,2.4,0,0,0-2.341-1.435,5.289,5.289,0,0,0-2.626-2.566,10.659,10.659,0,0,1,3.974-.667l.056-.768a8.333,8.333,0,0,0-1.944.12,24.015,24.015,0,0,0,1.011-5.491c0-2.247-.494-2.337-1.1-2.337s-1.1.09-1.1,2.337a24.106,24.106,0,0,0,1.019,5.521,12.517,12.517,0,0,0-2.1.584,24.951,24.951,0,0,0-1.918-6.218c-1.285-2.337-1.918-2.112-2.637-1.715s-1.247.809.037,3.146a24.691,24.691,0,0,0,4.188,4.918c-.135.056-.27.112-.4.172h-.008v.008a9.732,9.732,0,0,0-2.513,1.6,22.49,22.49,0,0,0-3.068-4.206c-1.622-1.554-2.034-1.255-2.461-.813s-.7.869.918,2.423a22.328,22.328,0,0,0,4.319,2.873,5.354,5.354,0,0,0-1.386,2.277,17.34,17.34,0,0,0-3.922,1.1c-1.551.753-1.446,1.127-1.24,1.554s.438.738,1.989-.015a17.364,17.364,0,0,0,3.292-2.408l.052.026a16.823,16.823,0,0,0-1.026,3.716c-.165,1.715.21,1.824.682,1.869s.858.011,1.023-1.7a18.158,18.158,0,0,0-.378-4.27,4.679,4.679,0,0,1,1.109-1.588,7.435,7.435,0,0,0,.745,2.85,2.343,2.343,0,0,0-.12,2.813c.648,1.184,1.862,1.768,2.7,1.3s1-1.8.352-2.981c-.633-1.15-1.794-1.73-2.633-1.333a9.12,9.12,0,0,1-.457-3.157,10.014,10.014,0,0,1,1.981-1.154c1.569.588,2.805,1.281,3.262,2.3a.157.157,0,0,1-.037.015c-.843.464-1,1.8-.352,2.981S310.525,480.869,311.368,480.4Zm-6.806-1.015a.372.372,0,0,1,.285.056.478.478,0,0,1,.124.109.842.842,0,0,1,.191.378c.079.356-.064.689-.315.742s-.521-.187-.6-.539.064-.689.315-.742Zm4.817-2.03c.255-.056.521.187.6.539s-.064.689-.315.742-.521-.187-.6-.539S309.128,477.412,309.379,477.359Z" transform="translate(0)" fill="#8e6a65"/>
  </g>
</svg>
