<svg xmlns="http://www.w3.org/2000/svg" width="83.068" height="78.566" viewBox="0 0 83.068 78.566">
  <g id="Group_187" data-name="Group 187" transform="translate(-296.36 -464.28)">
    <path id="Path_841" data-name="Path 841" d="M376.783,487.982l-.241-.413c-2.919-5.054-5.95-7.852-9.015-8.309a7.429,7.429,0,0,0-6.191,1.541c-.2.172-.387.361-.568.551.224-3.022.448-5.338.6-6.044a1.183,1.183,0,0,0-.258-1.051c-1.593-1.989-14.611-2.118-14.749-2.118-5.674,0-6.337.706-6.561,1.5-.1.353-.12,1.042.852,1.636,2.368,1.438,4.512,21.585,4.572,27.75-8.524,4.563-15.128,14.809-15.128,23.609a18.862,18.862,0,0,0,10.547,17.194l.215.112H364l.215-.112a18.88,18.88,0,0,0,10.547-17.194c0-.31-.009-.629-.026-.947a19.414,19.414,0,0,0,8.472-10.375c3.375-10.409-3.5-22.265-6.432-27.337Zm-16.807,6.191a2.887,2.887,0,0,0,.56.052c1.851,0,2.953-1.352,2.953-3.616a4.2,4.2,0,0,1,2.23-4.133c.069-.035.138-.069.2-.1a2.51,2.51,0,0,1,.491.026c.413.181,1.911,1.386,3.875,4.779,2.7,4.684,5.553,14.112,3.952,16.884a1.321,1.321,0,0,1-1.274.7,7.439,7.439,0,0,1-3.5-1.283,5.81,5.81,0,0,0-2.884-.663,9.544,9.544,0,0,0-1.455.121,26.967,26.967,0,0,0-5.476-3.926c0-1.645.138-5.011.344-8.843Zm12.812,32.666a16.94,16.94,0,0,1-9.264,15.136H341.362a16.927,16.927,0,0,1-9.273-15.334c0-8.162,6.544-18.09,14.577-22.128l.534-.267v-.594c.035-1.558-1.222-24.435-4.77-29.325a29.1,29.1,0,0,1,3.952-.2c5.545,0,11.451.689,12.984,1.291-.293,1.937-.672,7.017-1,12.373-.043.672-.077,1.343-.12,2.015-.353,6.165-.62,12.226-.577,13.862l.017.585.525.267a23.892,23.892,0,0,1,4.6,3.065c.284.241.568.482.844.74s.551.508.827.775c4.365,4.314,7.534,10.169,8.188,15.558.043.362.078.723.095,1.085.017.3.026.611.026.9v.207Zm8.55-12.132a17.1,17.1,0,0,1-6.845,8.765,29.588,29.588,0,0,0-7.517-14.671,3.536,3.536,0,0,1,1.472.379,9.369,9.369,0,0,0,4.494,1.55,3.284,3.284,0,0,0,2.988-1.679c2.282-3.943-1.36-14.37-3.952-18.856-2.316-4-4.271-5.588-5.235-5.734a5.1,5.1,0,0,0-.723-.06,2.022,2.022,0,0,0-1.162.3h-.026a6.188,6.188,0,0,0-3.324,5.906c0,1.644-.689,1.644-.981,1.644-.164,0-.232-.026-.241-.017a4.354,4.354,0,0,1-.095-1.274v-.353c0-.267,0-.525.009-.775.034-.663.077-1.318.121-1.98.275-2.7,1.007-4.469,2.29-5.571a5.506,5.506,0,0,1,4.615-1.085c2.4.362,5.028,2.893,7.594,7.344l.241.422c2.807,4.839,9.368,16.17,6.259,25.735Z" transform="translate(-4.69 -1.092)" fill="#8e6a65"/>
    <path id="Path_842" data-name="Path 842" d="M365.607,518.657l-.293-.387h-14.4c-.06.078-.121.146-.181.224-.181.25-.37.508-.56.766-.078.112-.155.215-.241.327-.138.215-.276.439-.413.663a13.5,13.5,0,0,0-.99,1.765,20.044,20.044,0,0,0-1.093,2.695c-.121.474-.224.956-.344,1.429-.052.241-.12.482-.164.723l-.077.732c-.052.491-.112.981-.164,1.464,0,.491.009.973.017,1.446a12.753,12.753,0,0,0,.052,1.412c.06.465.121.913.181,1.352s.095.878.19,1.292.2.809.293,1.188c.207.758.319,1.481.551,2.083.215.611.4,1.136.551,1.576.31.878.491,1.378.491,1.378s-.258-.465-.715-1.274c-.232-.4-.508-.9-.827-1.472-.336-.568-.577-1.266-.921-2-.164-.37-.336-.758-.508-1.162s-.276-.844-.431-1.292c-.138-.448-.284-.912-.43-1.386a13.434,13.434,0,0,1-.319-1.49c-.095-.517-.189-1.033-.284-1.567-.034-.542-.069-1.085-.112-1.636l-.052-.835c0-.284.026-.56.043-.844.034-.568.06-1.137.1-1.713a23.266,23.266,0,0,1,.715-3.358c.043-.172.1-.344.155-.517q.155-.5.336-.982c.129-.336.258-.663.4-.981H340.9l-.293.387c-2.187,2.859-5.863,8.515-5.863,14.387a14.585,14.585,0,0,0,7.577,13.233l.232.138h21.163l.232-.138a14.736,14.736,0,0,0,7.525-12.037c.026-.362.043-.732.043-1.1v-.095c0-.327-.017-.654-.034-.99-.37-5.51-3.763-10.7-5.829-13.4Z" transform="translate(-5.335 -7.505)" fill="#8e6a65"/>
    <path id="Path_843" data-name="Path 843" d="M330.86,501.346c1.937-1.068,2.3-4.133.809-6.853-1.292-2.351-3.539-3.668-5.381-3.3-1.188-2.936-3.857-4.8-6.036-5.9a24.5,24.5,0,0,1,9.135-1.532l.129-1.765a19.155,19.155,0,0,0-4.469.276c.6-2.092,2.325-8.369,2.325-12.622,0-5.166-1.136-5.373-2.531-5.373s-2.531.207-2.531,5.373c0,4.3,1.756,10.676,2.342,12.691a28.764,28.764,0,0,0-4.822,1.343c-.542-2.85-2.084-10.056-4.408-14.293-2.953-5.373-4.408-4.856-6.061-3.943s-2.867,1.86.086,7.233c2.3,4.184,7.465,9.273,9.626,11.3-.31.129-.62.258-.93.4h-.017v.017a22.371,22.371,0,0,0-5.777,3.676c-1.386-2.342-4.322-7.052-7.052-9.669-3.728-3.573-4.675-2.884-5.657-1.868s-1.619,2,2.109,5.571c2.712,2.6,7.516,5.313,9.927,6.6a12.307,12.307,0,0,0-3.186,5.235,39.857,39.857,0,0,0-9.015,2.531c-3.565,1.731-3.323,2.592-2.85,3.573s1.007,1.7,4.572-.034a39.917,39.917,0,0,0,7.568-5.536l.121.06a38.669,38.669,0,0,0-2.359,8.541c-.379,3.943.482,4.193,1.567,4.3s1.972.026,2.351-3.917a41.742,41.742,0,0,0-.87-9.815A10.756,10.756,0,0,1,312.125,490a17.091,17.091,0,0,0,1.713,6.552c-1.455,1.3-1.619,4.021-.275,6.466,1.49,2.721,4.279,4.064,6.216,3s2.3-4.133.809-6.854c-1.455-2.643-4.124-3.978-6.053-3.065a20.965,20.965,0,0,1-1.05-7.258,23.019,23.019,0,0,1,4.555-2.652c3.607,1.352,6.449,2.945,7.5,5.278a.361.361,0,0,1-.086.034c-1.937,1.068-2.3,4.133-.809,6.854S328.923,502.413,330.86,501.346Zm-15.644-2.333a.854.854,0,0,1,.654.129,1.1,1.1,0,0,1,.284.25,1.936,1.936,0,0,1,.439.87c.181.818-.146,1.584-.723,1.7s-1.2-.431-1.378-1.24.146-1.584.723-1.7Zm11.072-4.667c.586-.129,1.2.431,1.378,1.24s-.146,1.584-.723,1.7-1.2-.43-1.378-1.24S325.711,494.467,326.288,494.346Z" transform="translate(0 0)" fill="#8e6a65"/>
  </g>
</svg>
