<svg xmlns="http://www.w3.org/2000/svg" width="82.093" height="82.075" viewBox="0 0 82.093 82.075">
  <path id="instagram_1_" data-name="instagram (1)" d="M40.981,51.819A21.043,21.043,0,1,0,62.024,72.862,21.01,21.01,0,0,0,40.981,51.819Zm0,34.724A13.681,13.681,0,1,1,54.661,72.862,13.705,13.705,0,0,1,40.981,86.543ZM67.792,50.959a4.908,4.908,0,1,1-4.908-4.908A4.9,4.9,0,0,1,67.792,50.959ZM81.729,55.94c-.311-6.575-1.813-12.4-6.63-17.2-4.8-4.8-10.622-6.3-17.2-6.63-6.776-.385-27.087-.385-33.863,0-6.556.311-12.38,1.813-17.2,6.611s-6.3,10.622-6.63,17.2c-.385,6.776-.385,27.087,0,33.863.311,6.575,1.813,12.4,6.63,17.2s10.622,6.3,17.2,6.63c6.776.385,27.087.385,33.863,0,6.575-.311,12.4-1.813,17.2-6.63,4.8-4.8,6.3-10.622,6.63-17.2.385-6.776.385-27.068,0-33.844ZM72.975,97.055a13.85,13.85,0,0,1-7.8,7.8c-5.4,2.143-18.223,1.648-24.193,1.648s-18.809.476-24.193-1.648a13.85,13.85,0,0,1-7.8-7.8c-2.143-5.4-1.648-18.223-1.648-24.193S6.861,54.054,8.986,48.669a13.851,13.851,0,0,1,7.8-7.8c5.4-2.143,18.223-1.648,24.193-1.648s18.809-.476,24.193,1.648a13.851,13.851,0,0,1,7.8,7.8c2.143,5.4,1.648,18.223,1.648,24.193S75.118,91.671,72.975,97.055Z" transform="translate(0.075 -31.825)" fill="#9c121e"/>
</svg>
