<svg xmlns="http://www.w3.org/2000/svg" width="29.24" height="37.953" viewBox="0 0 29.24 37.953">
  <g id="Group_290" data-name="Group 290" transform="translate(0.241 80.693) rotate(-90)">
    <g id="Group_166" data-name="Group 166" transform="translate(42.99 0.012)">
      <g id="Group_164" data-name="Group 164" transform="translate(0 0)">
        <g id="Group_162" data-name="Group 162" transform="translate(0.799 0.796)">
          <path id="Path_661" data-name="Path 661" d="M103.332,5.145c-1.6,1.953-2.45,7.765-2.45,13.3s.848,11.332,2.447,13.29a51.106,51.106,0,0,1-10.121.052c-.162-.018-.323-.034-.485-.054-.515-.057-1.033-.128-1.551-.208-.033-.038-.064-.079-.1-.12a3.469,3.469,0,0,0,.239-.336,3.687,3.687,0,0,1-.221-.371c-.072-.131-.143-.28-.213-.441C90,28.238,89.2,24.1,89.2,18.441s.8-9.8,1.681-11.817c.072-.162.143-.31.215-.441a3.647,3.647,0,0,1,.223-.369,3.68,3.68,0,0,0-.239-.336,1.54,1.54,0,0,1,.1-.123q.77-.118,1.538-.2L93.2,5.1a50.952,50.952,0,0,1,10.13.049Z" transform="translate(-82.421 -4.867)" fill="none" stroke="#b2857e" stroke-width="0.5"/>
          <path id="Path_662" data-name="Path 662" d="M215.028,33.525q-.135-1.006-.218-2.153c-.072-.968-.11-2.007-.11-3.111s.038-2.143.11-3.109q.081-1.146.218-2.153c.521-3.87,1.563-6.176,2.406-6.368a.541.541,0,0,1,.113-.011c1.189,0,2.848,4.429,2.848,11.643s-1.66,11.643-2.848,11.643a.541.541,0,0,1-.113-.011c-.843-.192-1.884-2.5-2.406-6.368Z" transform="translate(-187.34 -14.693)" fill="none" stroke="#b2857e" stroke-width="0.5"/>
          <path id="Path_663" data-name="Path 663" d="M52.65,14.178c-.059.246-.12.5-.177.761a43.968,43.968,0,0,0-.838,8.893,43.85,43.85,0,0,0,.838,8.893c.057.262.118.515.177.761.057.22.116.431.174.638a9.621,9.621,0,0,0,.915,2.222c-.659-.159-1.317-.341-1.966-.548-.148-.046-.3-.093-.444-.144-.182-.061-.362-.121-.54-.189s-.367-.131-.549-.2c-1.113-.956-2.379-5.133-2.379-11.433s1.263-10.467,2.375-11.43c.184-.071.369-.138.558-.2s.357-.126.538-.185c.148-.049.3-.1.444-.144.649-.207,1.305-.387,1.965-.548a9.605,9.605,0,0,0-.915,2.22C52.767,13.745,52.707,13.959,52.65,14.178Z" transform="translate(-47.86 -10.262)" fill="none" stroke="#b2857e" stroke-width="0.5"/>
          <path id="Path_664" data-name="Path 664" d="M180.8,34.26a4.41,4.41,0,0,1-.243-.423c-.935-1.845-1.814-6.018-1.814-11.819s.876-9.967,1.81-11.814a4.425,4.425,0,0,1,.241-.423,2.527,2.527,0,0,1,.257-.336.838.838,0,0,1,.469-.3c.093.013.185.028.279.044.251.039.5.08.733.12.184.031.364.064.54.1,1.422.256,2.555.51,3.3.692a8.86,8.86,0,0,0-1.761,4.1c-.08.351-.152.72-.22,1.1-.084.466-.157.948-.221,1.441a42.254,42.254,0,0,0,0,10.561c.064.494.138.976.221,1.441.067.376.139.743.22,1.1a8.86,8.86,0,0,0,1.761,4.1c-.746.184-1.881.438-3.3.7l-.54.093c-.239.039-.485.082-.74.121l-.264.041a.848.848,0,0,1-.474-.3,2.174,2.174,0,0,1-.257-.335Z" transform="translate(-157.277 -8.448)" fill="none" stroke="#b2857e" stroke-width="0.5"/>
          <path id="Path_665" data-name="Path 665" d="M91.791,165.764a.539.539,0,0,1-.261-.074l.339.066a.343.343,0,0,1-.08.008Z" transform="translate(-84.369 -139.317)" fill="none" stroke="#b2857e" stroke-width="0.5"/>
        </g>
        <path id="Path_666" data-name="Path 666" d="M53.192.4c-.643.089-1.289.19-1.933.31-.016,0-.033,0-.048,0a1.216,1.216,0,0,0-.505.112A31.1,31.1,0,0,0,46.6,1.938c-2.345.074-3.606,6.445-3.606,12.44s1.261,12.366,3.606,12.44a31.387,31.387,0,0,0,4.116,1.125,1.218,1.218,0,0,0,.5.11.461.461,0,0,0,.048,0q1.023.192,2.045.323a51.8,51.8,0,0,0,12.479-.018h0a.807.807,0,0,0,.11.007,1.137,1.137,0,0,0,.384-.066c.62-.075,1.214-.161,1.776-.246a.37.37,0,0,0,.043,0,1.178,1.178,0,0,0,.405-.072,53.085,53.085,0,0,0,5.553-1.163c2.33-.11,3.586-6.463,3.586-12.44s-1.256-12.33-3.586-12.44A52.244,52.244,0,0,0,68.511.777,1.178,1.178,0,0,0,68.1.7a.385.385,0,0,0-.043,0c-.571-.085-1.176-.171-1.8-.248A1.144,1.144,0,0,0,65.9.4a.441.441,0,0,0-.08,0A51.615,51.615,0,0,0,53.192.4ZM64.7,27.671a51.106,51.106,0,0,1-10.121.052c-.162-.018-.323-.034-.485-.054-.346-.039-.692-.085-1.038-.134-.077-.113-.517-.761-.59-.9s-.143-.28-.213-.441c-.884-2.015-1.679-6.158-1.679-11.812s.8-9.8,1.681-11.817c.072-.162.143-.31.215-.441a3.646,3.646,0,0,1,.223-.369l-.02-.028c.118-.18.254-.382.333-.5.362-.051.723-.1,1.084-.141l.487-.052a50.952,50.952,0,0,1,10.13.049c-1.6,1.953-2.45,7.765-2.45,13.3S63.1,25.713,64.7,27.671Zm-13.745-.492.339.066a.343.343,0,0,1-.08.008.539.539,0,0,1-.261-.074Zm25.894-12.8c0,7.214-1.66,11.643-2.848,11.643a.541.541,0,0,1-.113-.011c-.843-.192-1.884-2.5-2.406-6.368q-.135-1.006-.218-2.153c-.072-.968-.11-2.007-.11-3.111s.038-2.143.11-3.109q.081-1.146.218-2.153C72,5.246,73.041,2.94,73.884,2.748A.541.541,0,0,1,74,2.737c1.189,0,2.848,4.429,2.848,11.643ZM69.582,26.992l-.54.093c-.239.039-.485.082-.74.121l-.264.041a.848.848,0,0,1-.474-.3,2.173,2.173,0,0,1-.257-.335,4.409,4.409,0,0,1-.243-.423c-.935-1.845-1.814-6.018-1.814-11.819s.876-9.967,1.81-11.814A4.418,4.418,0,0,1,67.3,2.14,2.525,2.525,0,0,1,67.56,1.8a.838.838,0,0,1,.469-.3c.093.013.185.028.279.044.251.039.5.08.733.12.184.031.364.064.54.1,1.422.256,2.555.51,3.3.692a8.86,8.86,0,0,0-1.761,4.1c-.08.351-.153.72-.22,1.1-.084.466-.157.948-.221,1.441a42.25,42.25,0,0,0,0,10.561c.064.494.138.976.221,1.441.067.376.139.743.22,1.1a8.86,8.86,0,0,0,1.761,4.1c-.746.184-1.881.438-3.3.7ZM49.668,1.866a9.605,9.605,0,0,0-.915,2.22c-.057.2-.116.418-.174.638-.059.246-.12.5-.177.761a43.968,43.968,0,0,0-.838,8.893,43.85,43.85,0,0,0,.838,8.893c.057.262.118.515.177.761.057.22.116.431.174.638a9.621,9.621,0,0,0,.915,2.222c-.659-.159-1.317-.341-1.966-.548-.148-.046-.3-.093-.444-.144-.182-.061-.362-.121-.54-.189s-.367-.131-.549-.2c-1.113-.956-2.379-5.133-2.379-11.433s1.263-10.467,2.375-11.43c.184-.071.369-.138.558-.2s.357-.126.538-.185c.148-.049.3-.1.444-.144.649-.207,1.305-.387,1.965-.548Z" transform="translate(-42.99 -0.012)" fill="none" stroke="#b2857e" stroke-width="0.5"/>
        <g id="Group_163" data-name="Group 163" transform="translate(28.358 3.402)">
          <path id="Path_667" data-name="Path 667" d="M219.769,21.98c-1.451,0-2.629,4.846-2.629,10.823s1.177,10.823,2.629,10.823,2.63-4.846,2.63-10.823-1.177-10.823-2.63-10.823Z" transform="translate(-216.94 -21.78)" fill="none" stroke="#b2857e" stroke-width="0.5"/>
          <path id="Path_668" data-name="Path 668" d="M218.749,20.76c1.838,0,2.829,5.679,2.829,11.023s-.99,11.023-2.829,11.023-2.829-5.679-2.829-11.023.992-11.023,2.829-11.023Zm0,.4c-1.15,0-2.429,4.362-2.429,10.623s1.281,10.623,2.429,10.623,2.43-4.364,2.43-10.623S219.9,21.16,218.749,21.16Z" transform="translate(-215.92 -20.76)" fill="none" stroke="#b2857e" stroke-width="0.5"/>
        </g>
      </g>
      <path id="Path_669" data-name="Path 669" d="M176.305,149.581a.423.423,0,0,1,.2.177.4.4,0,0,1,.141.159.306.306,0,0,1-.082.349.384.384,0,0,1-.521-.016.555.555,0,0,1-.09-.471.27.27,0,0,1,.349-.2Z" transform="translate(-154.141 -125.041)" fill="none" stroke="#b2857e" stroke-width="0.5"/>
      <path id="Path_670" data-name="Path 670" d="M169.74,117.878a.27.27,0,0,1,.087.038.321.321,0,0,1,.141.075.259.259,0,0,1,.084.244.268.268,0,0,1,0,.072.288.288,0,0,1-.161.244.406.406,0,0,1-.246.021.318.318,0,0,1-.179-.118.361.361,0,0,1-.11-.2.306.306,0,0,1,.157-.344.559.559,0,0,1,.082-.031.308.308,0,0,1,.139,0Z" transform="translate(-148.633 -98.542)" fill="none" stroke="#b2857e" stroke-width="0.5"/>
      <path id="Path_671" data-name="Path 671" d="M169.294,80.246a.178.178,0,0,1,.093.131.257.257,0,0,1,.077.182.377.377,0,0,1-.11.28.272.272,0,0,1-.333.023.441.441,0,0,1-.139-.479.262.262,0,0,1,.177-.179.32.32,0,0,1,.234.043Z" transform="translate(-148.22 -67.047)" fill="none" stroke="#b2857e" stroke-width="0.5"/>
      <path id="Path_672" data-name="Path 672" d="M173.067,43.657a.394.394,0,0,1,.013.471.41.41,0,0,1-.356.208.36.36,0,0,1-.307-.451.377.377,0,0,1,.171-.235l0,0a.378.378,0,0,1,.1-.071.314.314,0,0,1,.379.077Z" transform="translate(-151.185 -36.404)" fill="none" stroke="#b2857e" stroke-width="0.5"/>
      <path id="Path_673" data-name="Path 673" d="M181.721,13.234a.26.26,0,0,1,.1.121.486.486,0,0,1,.038.18.293.293,0,0,1-.216.279.2.2,0,0,1-.043.008.3.3,0,0,1-.057.02.276.276,0,0,1-.328-.2.322.322,0,0,1,0-.143.267.267,0,0,1,.126-.2.275.275,0,0,1,.034-.03l0,0a.341.341,0,0,1,.138-.074.282.282,0,0,1,.2.033Z" transform="translate(-158.545 -11.031)" fill="none" stroke="#b2857e" stroke-width="0.5"/>
      <path id="Path_674" data-name="Path 674" d="M88.172,152.693a.177.177,0,0,0-.036.118.247.247,0,0,0,.115.2.37.37,0,0,0,.184.059.474.474,0,0,0,.048,0,.252.252,0,0,0,.038-.008h0l.026-.01a.3.3,0,0,0,.19-.228.249.249,0,0,0-.194-.231,1.719,1.719,0,0,0-.2-.011.172.172,0,0,0-.164.113Z" transform="translate(-80.732 -127.559)" fill="none" stroke="#b2857e" stroke-width="0.5"/>
      <path id="Path_675" data-name="Path 675" d="M82.234,115.6c-.2.021-.22.266-.154.41a.352.352,0,0,0,.171.174.169.169,0,0,0,.185.013.443.443,0,0,0,.177-.082.2.2,0,0,0,.011-.285.2.2,0,0,0-.069-.048.318.318,0,0,0-.321-.179Z" transform="translate(-75.642 -96.645)" fill="none" stroke="#b2857e" stroke-width="0.5"/>
      <path id="Path_676" data-name="Path 676" d="M81.245,71.487a.242.242,0,0,0-.23.166.459.459,0,0,0-.025.261.351.351,0,0,0,.23.251.293.293,0,0,0,.343-.1.278.278,0,0,0,.085-.148.339.339,0,0,0-.082-.316.422.422,0,0,0-.321-.116Z" transform="translate(-74.751 -59.763)" fill="none" stroke="#b2857e" stroke-width="0.5"/>
      <path id="Path_677" data-name="Path 677" d="M86.69,28.7a.3.3,0,0,1,.292.31c0,.02,0,.039,0,.059a.544.544,0,0,1-.007.164.294.294,0,0,1-.085.153.2.2,0,0,1-.092.071h0l-.023.008a.344.344,0,0,1-.318-.031l0,0a.164.164,0,0,1-.023-.013.29.29,0,0,1-.092-.4.694.694,0,0,1,.054-.064.3.3,0,0,1,.305-.257Z" transform="translate(-79.186 -23.995)" fill="none" stroke="#b2857e" stroke-width="0.5"/>
      <path id="Path_678" data-name="Path 678" d="M93.069,10a.267.267,0,0,1,.067.182h0a.26.26,0,0,1-.084.184.252.252,0,0,1-.182.067.263.263,0,0,1-.184-.084.267.267,0,0,1-.067-.182h0a.247.247,0,0,1,.084-.182.262.262,0,0,1,.184-.069A.257.257,0,0,1,93.069,10Z" transform="translate(-84.481 -8.295)" fill="none" stroke="#b2857e" stroke-width="0.5"/>
      <path id="Path_679" data-name="Path 679" d="M90.621,163.9a1.046,1.046,0,0,0,.09.057l.015.007.056.021a.259.259,0,0,1,.179.269.421.421,0,0,1,.051.084c.048.107-.044.256-.171.208a.259.259,0,0,0-.051-.015h0a.258.258,0,0,1-.049-.008.236.236,0,0,1-.089.008.36.36,0,0,1-.289-.172.2.2,0,0,1-.036-.121s0-.008-.007-.013a.222.222,0,0,1-.011-.253.232.232,0,0,1,.316-.074Z" transform="translate(-82.518 -136.991)" fill="none" stroke="#b2857e" stroke-width="0.5"/>
      <path id="Path_680" data-name="Path 680" d="M178.107,151.75c0,.134-.128.289-.272.246a.094.094,0,0,1-.066-.092.092.092,0,0,1,.072-.087.063.063,0,0,1,.034,0h.011c.01,0,.011,0,0,0l.007,0s0,0,0-.008,0,0,0,0a.228.228,0,0,0,.016-.026.022.022,0,0,1,0-.007.017.017,0,0,1,0-.007s0-.03,0-.011a.089.089,0,0,1,.177,0Z" transform="translate(-155.667 -126.795)" fill="none" stroke="#b2857e" stroke-width="0.5"/>
      <path id="Path_681" data-name="Path 681" d="M171.813,119.843a.17.17,0,0,1-.039.238.149.149,0,0,1-.136.034.066.066,0,0,1-.038-.1.069.069,0,0,1,.041-.028c.036-.008.044-.007.069-.034a.093.093,0,0,0,.025-.069C171.73,119.843,171.782,119.8,171.813,119.843Z" transform="translate(-150.5 -100.178)" fill="none" stroke="#b2857e" stroke-width="0.5"/>
      <path id="Path_682" data-name="Path 682" d="M170.976,82.795h0v.03a.243.243,0,0,1-.008.059.149.149,0,0,1-.108.107.1.1,0,0,1-.12-.1.16.16,0,0,1,.021-.072.122.122,0,0,1,.011-.02.219.219,0,0,0,.018-.023s.016-.02,0,0a.089.089,0,0,1,.089-.038.068.068,0,0,1,.093.064Z" transform="translate(-149.791 -69.161)" fill="none" stroke="#b2857e" stroke-width="0.5"/>
      <path id="Path_683" data-name="Path 683" d="M174.6,46.121a.155.155,0,0,0-.052.179.075.075,0,0,0,.066.041.244.244,0,0,0,.234-.171.066.066,0,0,0-.021-.061.105.105,0,0,0-.051-.052c-.056-.025-.134.026-.175.062Z" transform="translate(-152.961 -38.501)" fill="none" stroke="#b2857e" stroke-width="0.5"/>
      <g id="Group_165" data-name="Group 165" transform="translate(22.935 2.452)">
        <path id="Path_684" data-name="Path 684" d="M184.263,15s0,0-.007,0S184.252,15,184.263,15Z" transform="translate(-184.022 -14.994)" fill="none" stroke="#b2857e" stroke-width="0.5"/>
        <path id="Path_685" data-name="Path 685" d="M183.094,14.968a.033.033,0,0,1-.01,0,.089.089,0,0,0-.041.033.093.093,0,0,0-.092.044h0l-.011.01c-.01.008-.021.016-.031.026a.149.149,0,0,0-.059.1.1.1,0,0,0,.077.1.161.161,0,0,0,.1-.008.273.273,0,0,0,.121-.133c.023-.049.061-.144-.007-.177a.07.07,0,0,0-.044-.008Z" transform="translate(-182.85 -14.964)" fill="none" stroke="#b2857e" stroke-width="0.5"/>
      </g>
      <path id="Path_686" data-name="Path 686" d="M90.325,153.565a.076.076,0,0,1,.023.1l0,.011c0,.007,0,.011-.007.018a.2.2,0,0,1-.036.066.129.129,0,0,1-.056.033.2.2,0,0,1-.031,0h0a.062.062,0,0,1-.056-.107.246.246,0,0,1,.021-.018.136.136,0,0,1,.02-.013l0-.021a.146.146,0,0,1,.023-.054.078.078,0,0,1,.1-.025Z" transform="translate(-82.401 -128.373)" fill="none" stroke="#b2857e" stroke-width="0.5"/>
      <path id="Path_687" data-name="Path 687" d="M84.34,117.16a.241.241,0,0,1-.118.185c-.059.038-.156.062-.2-.016a.079.079,0,0,1,0-.079.114.114,0,0,1,.064-.046h0a.014.014,0,0,0,.008,0l0,0a.2.2,0,0,0,.02-.018s0,0,0,0a.006.006,0,0,0,0,0,.058.058,0,0,1,.008-.013v0h0a.1.1,0,0,1,.1-.1.1.1,0,0,1,.1.1Z" transform="translate(-77.288 -97.865)" fill="none" stroke="#b2857e" stroke-width="0.5"/>
      <path id="Path_688" data-name="Path 688" d="M83.242,73.059a.319.319,0,0,1-.075.212.223.223,0,0,1-.207.08.068.068,0,0,1-.011-.125c.013-.008.021-.021.034-.03a.268.268,0,0,0,.048-.038.149.149,0,0,0,.03-.1A.091.091,0,0,1,83.242,73.059Z" transform="translate(-76.366 -61.004)" fill="none" stroke="#b2857e" stroke-width="0.5"/>
      <path id="Path_689" data-name="Path 689" d="M88.389,30.944c.016.154-.143.362-.308.274-.066-.034-.033-.154.043-.143h.013a.163.163,0,0,0,.018-.016s.011-.016.015-.02.008-.016.013-.025c-.01.018,0-.015,0-.018a.137.137,0,0,0,.007-.025s0-.028.007-.036c.025-.089.177-.093.189.007Z" transform="translate(-80.657 -25.809)" fill="none" stroke="#b2857e" stroke-width="0.5"/>
      <path id="Path_690" data-name="Path 690" d="M94.233,11.154a.085.085,0,0,0-.049.036.248.248,0,0,0-.015.03c0-.01,0,.007-.008.013h0l0,0-.007,0h0a.159.159,0,0,0-.064.028.075.075,0,0,0,.011.12.115.115,0,0,0,.115,0,.175.175,0,0,0,.061-.044.126.126,0,0,0,.038-.11.107.107,0,0,0-.015-.038s-.02-.026-.015-.02a.039.039,0,0,0-.044-.02Z" transform="translate(-85.684 -9.322)" fill="none" stroke="#b2857e" stroke-width="0.5"/>
      <path id="Path_691" data-name="Path 691" d="M228.647,121.032l-.684.543-1.646,1.3c-.641.508-1.223.968-1.648,1.3l-.689.536s.3-.149.764-.428a16.433,16.433,0,0,0,1.738-1.2,17.157,17.157,0,0,0,1.571-1.412c.379-.385.6-.641.6-.641Z" transform="translate(-194.3 -101.184)" fill="none" stroke="#b2857e" stroke-width="0.5"/>
      <path id="Path_692" data-name="Path 692" d="M224.69,105.81s-.313.116-.8.346c-.243.115-.53.259-.843.428s-.651.362-1,.574-.677.421-.976.615-.562.369-.786.517l-.725.48s.308-.126.79-.366c.241-.12.525-.267.835-.439s.648-.367,1-.579.679-.418.977-.608l.794-.5c.453-.287.736-.461.736-.462Z" transform="translate(-190.605 -88.46)" fill="none" stroke="#b2857e" stroke-width="0.5"/>
      <path id="Path_693" data-name="Path 693" d="M222.154,82.133s-.33.134-.851.369-1.236.567-2.025.933c-.394.182-.769.356-1.113.507s-.656.28-.922.384c-.531.207-.872.305-.872.305s.089-.01.246-.036.387-.071.666-.144.607-.172.964-.3.745-.289,1.143-.474a22.319,22.319,0,0,0,1.976-1.056c.492-.294.79-.487.79-.487Z" transform="translate(-187.938 -68.664)" fill="none" stroke="#b2857e" stroke-width="0.5"/>
      <path id="Path_694" data-name="Path 694" d="M223.154,62.11s-.305.028-.794.1a15.312,15.312,0,0,0-1.889.4c-.364.1-.705.218-1.012.336s-.576.238-.8.348a6.9,6.9,0,0,0-.7.39s.285-.112.751-.267c.233-.079.512-.166.822-.259s.653-.192,1.012-.294c.718-.2,1.373-.387,1.845-.526S223.155,62.11,223.154,62.11Z" transform="translate(-189.267 -51.927)" fill="none" stroke="#b2857e" stroke-width="0.5"/>
      <path id="Path_695" data-name="Path 695" d="M224.234,38.042s-.249.054-.646.153-.943.243-1.535.438-1.117.407-1.492.572-.6.284-.6.284.248-.057.644-.161.94-.251,1.532-.446,1.117-.4,1.494-.564.6-.277.6-.277Z" transform="translate(-190.939 -31.804)" fill="none" stroke="#b2857e" stroke-width="0.5"/>
      <path id="Path_696" data-name="Path 696" d="M186.82,143.544s.264.023.689.013a12.708,12.708,0,0,0,1.653-.154,12.931,12.931,0,0,0,1.619-.364c.2-.061.367-.118.479-.162a1.463,1.463,0,0,0,.169-.077,1.781,1.781,0,0,1-.179.038c-.116.02-.285.044-.5.074-.418.057-1,.131-1.633.233s-1.209.208-1.625.284-.676.118-.676.118Z" transform="translate(-163.234 -119.384)" fill="none" stroke="#b2857e" stroke-width="0.5"/>
      <path id="Path_697" data-name="Path 697" d="M103.65,148.86s.138.028.387.072.612.1,1.061.164.986.121,1.584.167,1.256.079,1.95.085,1.353-.015,1.951-.051,1.136-.092,1.586-.148.812-.115,1.061-.157.387-.072.387-.071l-.392.03c-.253.018-.618.044-1.068.067s-.987.044-1.584.057-1.251.016-1.938.01c-1.374-.011-2.621-.066-3.522-.121-.451-.028-.815-.054-1.068-.074l-.392-.031Z" transform="translate(-93.703 -124.451)" fill="none" stroke="#b2857e" stroke-width="0.5"/>
      <path id="Path_698" data-name="Path 698" d="M56.56,144.3a4.036,4.036,0,0,0,.42.215,4.544,4.544,0,0,0,1.091.328,4.347,4.347,0,0,0,.626.056,4.027,4.027,0,0,0,.513-.023,3.88,3.88,0,0,0,.466-.077s-.18-.02-.464-.054-.672-.092-1.1-.162-.812-.139-1.094-.194l-.459-.089Z" transform="translate(-54.335 -120.638)" fill="none" stroke="#b2857e" stroke-width="0.5"/>
      <path id="Path_699" data-name="Path 699" d="M191.372,25.421s.216.064.569.151.84.2,1.381.3,1.033.169,1.392.22.582.082.582.08-.207-.093-.553-.21a9.893,9.893,0,0,0-1.376-.351,12.392,12.392,0,0,0-1.409-.167c-.362-.021-.589-.02-.589-.02Z" transform="translate(-167.038 -21.253)" fill="none" stroke="#b2857e" stroke-width="0.5"/>
      <path id="Path_700" data-name="Path 700" d="M104.372,21.766s.54.052,1.415.09c.438.02.959.036,1.538.044s1.215.013,1.883.011,1.3,0,1.879,0,1.1.007,1.535.018c.874.021,1.414.062,1.414.062s-.533-.1-1.407-.194c-.436-.044-.958-.084-1.537-.108s-1.217-.039-1.886-.038-1.3.015-1.883.03-1.1.033-1.537.046c-.874.028-1.417.041-1.417.041Z" transform="translate(-94.304 -18.101)" fill="none" stroke="#b2857e" stroke-width="0.5"/>
      <path id="Path_701" data-name="Path 701" d="M60.73,21.491l.415-.09c.254-.056.6-.125.984-.2s.731-.144.987-.192.417-.077.417-.079a3.107,3.107,0,0,0-.425-.054,4,4,0,0,0-1.03.066,3.894,3.894,0,0,0-.977.335A3.241,3.241,0,0,0,60.73,21.491Z" transform="translate(-57.821 -17.447)" fill="none" stroke="#b2857e" stroke-width="0.5"/>
      <path id="Path_702" data-name="Path 702" d="M184.542,121.75s.243,0,.633-.008.927-.021,1.517-.048,1.127-.059,1.515-.085.631-.046.631-.046-.239-.044-.63-.085a10.4,10.4,0,0,0-3.049.133c-.385.074-.62.139-.62.139Z" transform="translate(-161.328 -101.513)" fill="none" stroke="#b2857e" stroke-width="0.5"/>
      <path id="Path_703" data-name="Path 703" d="M102.13,122.451s.13.03.366.074.581.1,1.009.151.94.09,1.509.107,1.2.013,1.851-.013,1.279-.069,1.845-.112l1.5-.115c.854-.064,1.386-.092,1.386-.093s-.531-.038-1.391-.039c-.43,0-.941.007-1.509.025s-1.191.044-1.843.071-1.274.048-1.838.054-1.074,0-1.5-.016-.774-.041-1.012-.059S102.13,122.451,102.13,122.451Z" transform="translate(-92.432 -102.338)" fill="none" stroke="#b2857e" stroke-width="0.5"/>
      <path id="Path_704" data-name="Path 704" d="M53.9,117.34a3.444,3.444,0,0,0,.39.213,4.137,4.137,0,0,0,1.023.325,3.919,3.919,0,0,0,1.074.038,3.142,3.142,0,0,0,.439-.077s-.171-.018-.438-.054-.631-.1-1.03-.166-.763-.138-1.027-.19l-.433-.087Z" transform="translate(-52.111 -98.1)" fill="none" stroke="#b2857e" stroke-width="0.5"/>
      <path id="Path_705" data-name="Path 705" d="M185.682,95.52s.2.01.515.015.753.007,1.232-.007.912-.034,1.228-.048l.513-.021a4.964,4.964,0,0,0-.507-.11,6.527,6.527,0,0,0-1.243-.084,7.669,7.669,0,0,0-1.236.139c-.313.061-.5.116-.5.116Z" transform="translate(-162.281 -79.643)" fill="none" stroke="#b2857e" stroke-width="0.5"/>
      <path id="Path_706" data-name="Path 706" d="M97.95,94.332s.546.057,1.432.1c.443.021.971.038,1.556.046s1.23.008,1.9,0,1.317-.018,1.9-.025,1.11-.011,1.553-.011c.884,0,1.433.015,1.433.015s-.543-.08-1.428-.146c-.443-.033-.969-.062-1.556-.079s-1.23-.023-1.906-.016-1.318.023-1.9.039l-1.553.044c-.884.025-1.433.031-1.433.033Z" transform="translate(-88.937 -78.767)" fill="none" stroke="#b2857e" stroke-width="0.5"/>
      <path id="Path_707" data-name="Path 707" d="M50.1,91.729s.184.056.485.113a7.049,7.049,0,0,0,1.192.121,7.663,7.663,0,0,0,1.2-.082c.3-.044.49-.089.49-.089s-.19-.021-.5-.043-.725-.044-1.186-.051-.881,0-1.186.011-.5.018-.5.018Z" transform="translate(-48.934 -76.662)" fill="none" stroke="#b2857e" stroke-width="0.5"/>
      <path id="Path_708" data-name="Path 708" d="M185.69,70.355s.166.043.435.093a10.179,10.179,0,0,0,1.053.139c.412.033.787.034,1.059.031s.443-.015.443-.015-.162-.054-.43-.116a7.073,7.073,0,0,0-1.053-.162,7.78,7.78,0,0,0-1.064-.008C185.861,70.333,185.69,70.355,185.69,70.355Z" transform="translate(-162.289 -58.776)" fill="none" stroke="#b2857e" stroke-width="0.5"/>
      <path id="Path_709" data-name="Path 709" d="M99.47,68.069s.536.044,1.4.093,2.066.1,3.39.125,2.524,0,3.393-.031,1.405-.062,1.405-.062-.536-.033-1.4-.069-2.066-.082-3.39-.1-2.524-.01-3.391.008-1.405.038-1.405.038Z" transform="translate(-90.208 -56.862)" fill="none" stroke="#b2857e" stroke-width="0.5"/>
      <path id="Path_710" data-name="Path 710" d="M51.62,65.878a3.174,3.174,0,0,0,.4.113,5.5,5.5,0,0,0,1.992.051,3.056,3.056,0,0,0,.3-.062.66.66,0,0,0,.08-.026.1.1,0,0,0,.026-.013h-.03c-.02,0-.046,0-.082,0-.071,0-.174-.016-.3-.028-.254-.025-.6-.057-.987-.066s-.735,0-.989.016l-.413.02Z" transform="translate(-50.205 -55.045)" fill="none" stroke="#b2857e" stroke-width="0.5"/>
      <path id="Path_711" data-name="Path 711" d="M186.82,48.663s.19.021.5.048.725.061,1.184.093.879.057,1.186.077.5.033.5.031a4.512,4.512,0,0,0-.474-.161,5.875,5.875,0,0,0-1.189-.212,6.216,6.216,0,0,0-1.205.038,4.9,4.9,0,0,0-.494.085Z" transform="translate(-163.234 -40.57)" fill="none" stroke="#b2857e" stroke-width="0.5"/>
      <path id="Path_712" data-name="Path 712" d="M95.662,45.565s.582.033,1.525.059c.471.013,1.031.025,1.655.034s1.307.016,2.024.023,1.4.013,2.022.023,1.181.025,1.651.041c.941.033,1.523.071,1.523.069s-.144-.025-.405-.062-.64-.089-1.109-.138-1.03-.1-1.653-.131-1.309-.057-2.029-.064-1.405,0-2.029.02-1.184.038-1.655.056c-.941.039-1.523.072-1.523.072Z" transform="translate(-87.023 -37.971)" fill="none" stroke="#b2857e" stroke-width="0.5"/>
      <path id="Path_713" data-name="Path 713" d="M52.76,43.156s.172.033.448.071.656.082,1.076.1.8.018,1.079.016.451,0,.451,0a3.452,3.452,0,0,0-.436-.128,6.4,6.4,0,0,0-1.079-.149,7.386,7.386,0,0,0-1.087.028c-.279.028-.449.062-.449.062Z" transform="translate(-51.158 -35.998)" fill="none" stroke="#b2857e" stroke-width="0.5"/>
    </g>
    <g id="Group_168" data-name="Group 168" transform="translate(73.982 16.804)">
      <g id="Group_167" data-name="Group 167" transform="translate(0)">
        <path id="Path_714" data-name="Path 714" d="M233.509,104.259c0,.541-.148.979-.33.979s-.33-.438-.33-.979.148-.979.33-.979S233.509,103.718,233.509,104.259Z" transform="translate(-232.707 -103.137)" fill="none" stroke="#b2857e" stroke-width="0.5"/>
        <path id="Path_715" data-name="Path 715" d="M232.452,104.653c-.326,0-.472-.564-.472-1.122s.146-1.122.472-1.122.472.564.472,1.122S232.779,104.653,232.452,104.653Zm0-1.955a1.934,1.934,0,1,0,.189.833A1.347,1.347,0,0,0,232.452,102.7Z" transform="translate(-231.98 -102.41)" fill="none" stroke="#b2857e" stroke-width="0.5"/>
      </g>
      <path id="Path_716" data-name="Path 716" d="M233.961,104.127s3.736-.431,4.664.143c1.113.689,1.282,2.271,1.333,3.276h-1.317a4.868,4.868,0,0,0-.648-1.991c-.448-.439-4.032,0-4.032,0a1.556,1.556,0,0,1-.151-.8A.932.932,0,0,1,233.961,104.127Z" transform="translate(-233.51 -103.716)" fill="none" stroke="#b2857e" stroke-width="0.5"/>
    </g>
    <path id="Path_717" data-name="Path 717" d="M242.775,106.34a2.651,2.651,0,0,0-.5-.63,3.3,3.3,0,0,0-.3-.261,1.121,1.121,0,0,0-.4-.153,6.422,6.422,0,0,0-1.046-.107c-.756-.028-1.45-.025-1.951-.036s-.815-.023-.813-.025.308-.049.807-.108a13,13,0,0,1,1.968-.1,4.511,4.511,0,0,1,1.092.156,1.2,1.2,0,0,1,.456.23,2.864,2.864,0,0,1,.285.312,2.523,2.523,0,0,1,.316.515c.057.13.079.2.08.2Z" transform="translate(-162.838 -87.703)" fill="none" stroke="#b2857e" stroke-width="0.5"/>
    <g id="Group_169" data-name="Group 169" transform="translate(74.977 13.265)">
      <path id="Path_718" data-name="Path 718" d="M238.092,84.78a11.517,11.517,0,0,1,0-1.907c.1-.175,3.962-2.473,4.465-1.969.405.4,1.143,1.9.667,2.145a33.037,33.037,0,0,1-4.044.482c-.175.01-.6,1.25-.6,1.25Z" transform="translate(-238.046 -80.831)" fill="none" stroke="#b2857e" stroke-width="0.5"/>
      <path id="Path_719" data-name="Path 719" d="M241.593,84.243s.508-.121,1.337-.28c.413-.08.905-.177,1.446-.292l.2-.044.052-.011.026-.007.013,0h0s0-.018,0,.016v0l0,.008c.007.021.013.026.007.02a.079.079,0,0,0-.02-.013s-.011-.007-.018-.008l-.01,0h0a.421.421,0,0,0-.015-.139,1.754,1.754,0,0,0-.061-.2,7.163,7.163,0,0,0-.39-.825l-.087-.161a.285.285,0,0,0-.1-.011,1.852,1.852,0,0,0-.412.079c-.28.08-.553.182-.808.282-.513.2-.972.4-1.359.571-.772.336-1.255.54-1.255.538s.443-.276,1.179-.689c.369-.2.812-.446,1.322-.681a7.321,7.321,0,0,1,.828-.33,1.994,1.994,0,0,1,.492-.1.853.853,0,0,1,.154.008.465.465,0,0,1,.092.026.353.353,0,0,1,.1.062.508.508,0,0,1,.039.044l.018.025.011.021.03.052.057.107a6.081,6.081,0,0,1,.4.877,1.783,1.783,0,0,1,.066.236.817.817,0,0,1,.016.133.487.487,0,0,1-.02.166.286.286,0,0,1-.062.1.268.268,0,0,1-.116.069.329.329,0,0,1-.039.008l-.026,0-.052.008-.21.033c-.554.085-1.054.139-1.474.179-.841.075-1.361.112-1.361.113Z" transform="translate(-239.805 -81.78)" fill="none" stroke="#b2857e" stroke-width="0.5"/>
    </g>
  </g>
</svg>
