<svg xmlns="http://www.w3.org/2000/svg" width="238" height="275.472" viewBox="0 0 238 275.472">
  <g id="Component_15_1" data-name="Component 15 – 1" transform="translate(1.972 2.27)">
    <line id="Line_508" data-name="Line 508" x1="162.676" transform="translate(35.69 135.467)" fill="none" stroke="rgba(255,133,116,0.26)" stroke-linecap="round" stroke-width="3" opacity="0.42"/>
    <line id="Line_509" data-name="Line 509" x1="52.328" y1="9.148" transform="translate(91.246 129.079) rotate(4)" fill="none" stroke="rgba(255,133,116,0.26)" stroke-linecap="round" stroke-width="3" opacity="0.11"/>
    <line id="Line_510" data-name="Line 510" x1="38.479" transform="translate(97.976 132.789) rotate(8)" fill="none" stroke="rgba(255,133,116,0.26)" stroke-linecap="round" stroke-width="3" opacity="0.55"/>
    <line id="Line_511" data-name="Line 511" x1="155.866" transform="matrix(0.978, 0.208, -0.208, 0.978, 40.798, 119.264)" fill="none" stroke="rgba(255,133,116,0.26)" stroke-linecap="round" stroke-width="3" opacity="0.6"/>
    <line id="Line_512" data-name="Line 512" x2="114.068" y2="35.171" transform="matrix(0.961, 0.276, -0.276, 0.961, 67.05, 102.842)" fill="none" stroke="rgba(255,133,116,0.26)" stroke-linecap="round" stroke-width="3" opacity="0.72"/>
    <line id="Line_513" data-name="Line 513" x1="85.726" transform="matrix(0.94, 0.342, -0.342, 0.94, 76.75, 120.806)" fill="none" stroke="rgba(255,133,116,0.26)" stroke-linecap="round" stroke-width="3" opacity="0.4"/>
    <line id="Line_514" data-name="Line 514" x1="177.297" transform="translate(36.043 99.411) rotate(24)" fill="none" stroke="rgba(255,133,116,0.26)" stroke-linecap="round" stroke-width="3" opacity="0.21"/>
    <line id="Line_515" data-name="Line 515" x1="67.704" transform="translate(87.139 119.574) rotate(28)" fill="none" stroke="rgba(255,133,116,0.26)" stroke-linecap="round" stroke-width="3" opacity="0.44"/>
    <line id="Line_516" data-name="Line 516" x2="0.974" transform="matrix(0.848, 0.53, -0.53, 0.848, 116.615, 135.209)" fill="none" stroke="rgba(255,133,116,0.26)" stroke-linecap="round" stroke-width="3" opacity="0.46"/>
    <line id="Line_517" data-name="Line 517" x2="45.786" transform="translate(98.507 122.012) rotate(36)" fill="none" stroke="rgba(255,133,116,0.26)" stroke-linecap="round" stroke-width="3" opacity="0.54"/>
    <line id="Line_518" data-name="Line 518" x2="198.242" transform="matrix(0.766, 0.643, -0.643, 0.766, 41.097, 71.752)" fill="none" stroke="rgba(255,133,116,0.26)" stroke-linecap="round" stroke-width="3" opacity="0.15"/>
    <line id="Line_519" data-name="Line 519" x2="129.225" y2="16.361" transform="matrix(0.719, 0.695, -0.695, 0.719, 76.232, 84.699)" fill="none" stroke="rgba(255,133,116,0.26)" stroke-linecap="round" stroke-width="3" opacity="0.1"/>
    <line id="Line_520" data-name="Line 520" x1="64.782" transform="translate(95.355 111.395) rotate(48)" fill="none" stroke="rgba(255,133,116,0.26)" stroke-linecap="round" stroke-width="3" opacity="0.52"/>
    <line id="Line_521" data-name="Line 521" x2="14.125" transform="translate(112.68 129.901) rotate(52)" fill="none" stroke="rgba(255,133,116,0.26)" stroke-linecap="round" stroke-width="3" opacity="0.6"/>
    <line id="Line_522" data-name="Line 522" x1="161.888" y2="48.504" transform="matrix(0.559, 0.829, -0.829, 0.559, 91.87, 54.8)" fill="none" stroke="rgba(255,133,116,0.26)" stroke-linecap="round" stroke-width="3" opacity="0.66"/>
    <line id="Line_523" data-name="Line 523" y1="44.835" x2="206.798" transform="translate(84.742 34.712) rotate(60)" fill="none" stroke="rgba(255,133,116,0.26)" stroke-linecap="round" stroke-width="3" opacity="0.4"/>
    <line id="Line_524" data-name="Line 524" y1="39.689" x2="181.161" transform="translate(95.157 45.354) rotate(64)" fill="none" stroke="rgba(255,133,116,0.26)" stroke-linecap="round" stroke-width="3" opacity="0.49"/>
    <line id="Line_525" data-name="Line 525" x2="45.786" transform="matrix(0.375, 0.927, -0.927, 0.375, 108.453, 114.241)" fill="none" stroke="rgba(255,133,116,0.26)" stroke-linecap="round" stroke-width="3" opacity="0.16"/>
    <line id="Line_526" data-name="Line 526" x2="159.275" transform="translate(92.418 59.727) rotate(72)" fill="none" stroke="rgba(255,133,116,0.26)" stroke-linecap="round" stroke-width="3" opacity="0.53"/>
    <line id="Line_527" data-name="Line 527" x1="27.764" transform="translate(113.669 121.997) rotate(76)" fill="none" stroke="rgba(255,133,116,0.26)" stroke-linecap="round" stroke-width="3" opacity="0.24"/>
    <line id="Line_528" data-name="Line 528" y1="16.292" x2="108.278" transform="translate(115.649 80.736) rotate(80)" fill="none" stroke="rgba(255,133,116,0.26)" stroke-linecap="round" stroke-width="3" opacity="0.29"/>
    <line id="Line_529" data-name="Line 529" x1="154.463" y2="9.874" transform="translate(113.866 58.142) rotate(84)" fill="none" stroke="rgba(255,133,116,0.26)" stroke-linecap="round" stroke-width="3" opacity="0.41"/>
    <line id="Line_530" data-name="Line 530" x1="191.287" y2="3.305" transform="translate(115.341 39.824) rotate(88)" fill="none" stroke="rgba(255,133,116,0.26)" stroke-linecap="round" stroke-width="3" opacity="0.95"/>
    <line id="Line_531" data-name="Line 531" x1="148.559" transform="translate(119.62 61.232) rotate(92)" fill="none" stroke="rgba(255,133,116,0.26)" stroke-linecap="round" stroke-width="3" opacity="0.13"/>
    <line id="Line_532" data-name="Line 532" x2="33.121" transform="translate(118.759 118.996) rotate(96)" fill="none" stroke="rgba(255,133,116,0.26)" stroke-linecap="round" stroke-width="3" opacity="0.17"/>
    <line id="Line_533" data-name="Line 533" x1="222.858" y1="16.358" transform="translate(144.432 27.151) rotate(100)" fill="none" stroke="rgba(255,133,116,0.26)" stroke-linecap="round" stroke-width="3" opacity="0.49"/>
    <line id="Line_534" data-name="Line 534" x2="218.873" y2="22.666" transform="translate(154.499 32.024) rotate(104)" fill="none" stroke="rgba(255,133,116,0.26)" stroke-linecap="round" stroke-width="3" opacity="0.36"/>
    <line id="Line_535" data-name="Line 535" x2="85.726" transform="translate(130.273 94.701) rotate(108)" fill="none" stroke="rgba(255,133,116,0.26)" stroke-linecap="round" stroke-width="3" opacity="0.59"/>
    <line id="Line_536" data-name="Line 536" x1="121.469" y1="33.97" transform="matrix(-0.375, 0.927, -0.927, -0.375, 155.528, 85.517)" fill="none" stroke="rgba(255,133,116,0.26)" stroke-linecap="round" stroke-width="3" opacity="0.72"/>
    <line id="Line_537" data-name="Line 537" x2="281.81" y2="40.251" transform="translate(196.885 17.645) rotate(116)" fill="none" stroke="rgba(255,133,116,0.26)" stroke-linecap="round" stroke-width="3" opacity="0.32"/>
    <line id="Line_538" data-name="Line 538" x1="239.421" y1="45.122" transform="translate(196.422 43.075) rotate(120)" fill="none" stroke="rgba(255,133,116,0.26)" stroke-linecap="round" stroke-width="3" opacity="0.19"/>
    <line id="Line_539" data-name="Line 539" x1="113.003" transform="matrix(-0.559, 0.829, -0.829, -0.559, 148.623, 88.625)" fill="none" stroke="rgba(255,133,116,0.26)" stroke-linecap="round" stroke-width="3" opacity="0.7"/>
    <line id="Line_540" data-name="Line 540" x2="201.651" transform="translate(179.102 56.015) rotate(128)" fill="none" stroke="rgba(255,133,116,0.26)" stroke-linecap="round" stroke-width="3" opacity="0.33"/>
    <line id="Line_541" data-name="Line 541" x2="174.599" y2="55.496" transform="translate(196.064 89.157) rotate(132)" fill="none" stroke="rgba(255,133,116,0.26)" stroke-linecap="round" stroke-width="3" opacity="0.07"/>
    <line id="Line_542" data-name="Line 542" x1="169.213" y2="75.54" transform="matrix(-0.719, 0.695, -0.695, -0.719, 204.126, 103.863)" fill="none" stroke="rgba(255,133,116,0.26)" stroke-linecap="round" stroke-width="3" opacity="0.39"/>
    <line id="Line_543" data-name="Line 543" x1="148.557" y2="8.381" transform="matrix(-0.766, 0.643, -0.643, -0.766, 176.623, 90.933)" fill="none" stroke="rgba(255,133,116,0.26)" stroke-linecap="round" stroke-width="3" opacity="0.7"/>
    <line id="Line_544" data-name="Line 544" x2="217.238" transform="translate(204.902 71.622) rotate(144)" fill="none" stroke="rgba(255,133,116,0.26)" stroke-linecap="round" stroke-width="3" opacity="0.82"/>
    <line id="Line_545" data-name="Line 545" y1="61.826" x2="126.576" transform="matrix(-0.848, 0.53, -0.53, -0.848, 187.081, 128.144)" fill="none" stroke="rgba(255,133,116,0.26)" stroke-linecap="round" stroke-width="3" opacity="0.34"/>
    <line id="Line_546" data-name="Line 546" x2="178.271" transform="translate(195.73 93.619) rotate(152)" fill="none" stroke="rgba(255,133,116,0.26)" stroke-linecap="round" stroke-width="3" opacity="0.11"/>
    <line id="Line_547" data-name="Line 547" x1="55.04" transform="translate(142.168 124.273) rotate(156)" fill="none" stroke="rgba(255,133,116,0.26)" stroke-linecap="round" stroke-width="3" opacity="0.85"/>
    <line id="Line_548" data-name="Line 548" x2="15.099" transform="matrix(-0.94, 0.342, -0.342, -0.94, 124.123, 132.885)" fill="none" stroke="rgba(255,133,116,0.26)" stroke-linecap="round" stroke-width="3" opacity="0.37"/>
    <line id="Line_549" data-name="Line 549" x1="200.442" y2="35.544" transform="matrix(-0.961, 0.276, -0.276, -0.961, 218.265, 124.925)" fill="none" stroke="rgba(255,133,116,0.26)" stroke-linecap="round" stroke-width="3" opacity="0.08"/>
    <line id="Line_550" data-name="Line 550" x1="168.626" y2="27.001" transform="matrix(-0.978, 0.208, -0.208, -0.978, 202.306, 131.142)" fill="none" stroke="rgba(255,133,116,0.26)" stroke-linecap="round" stroke-width="3" opacity="0.93"/>
    <line id="Line_551" data-name="Line 551" y1="18.101" x2="59.699" transform="translate(147.847 140.274) rotate(172)" fill="none" stroke="rgba(255,133,116,0.26)" stroke-linecap="round" stroke-width="3" opacity="0.98"/>
    <line id="Line_552" data-name="Line 552" y1="9.154" x2="84.87" transform="translate(159.679 137.073) rotate(176)" fill="none" stroke="rgba(255,133,116,0.26)" stroke-linecap="round" stroke-width="3" opacity="0.43"/>
    <line id="Line_553" data-name="Line 553" x1="47.238" transform="translate(140.648 135.467) rotate(180)" fill="none" stroke="rgba(255,133,116,0.26)" stroke-linecap="round" stroke-width="3" opacity="0.62"/>
    <line id="Line_554" data-name="Line 554" x1="167.077" y1="9.162" transform="translate(200.045 145.864) rotate(-176)" fill="none" stroke="rgba(255,133,116,0.26)" stroke-linecap="round" stroke-width="3" opacity="0.72"/>
    <line id="Line_555" data-name="Line 555" x2="84.752" transform="translate(158.991 141.364) rotate(-172)" fill="none" stroke="rgba(255,133,116,0.26)" stroke-linecap="round" stroke-width="3" opacity="0.58"/>
    <line id="Line_556" data-name="Line 556" x2="233.528" y2="27.079" transform="matrix(-0.978, -0.208, 0.208, -0.978, 228.425, 172.987)" fill="none" stroke="rgba(255,133,116,0.26)" stroke-linecap="round" stroke-width="3" opacity="0.21"/>
    <line id="Line_557" data-name="Line 557" x2="134.921" transform="matrix(-0.961, -0.276, 0.276, -0.961, 181.875, 154.061)" fill="none" stroke="rgba(255,133,116,0.26)" stroke-linecap="round" stroke-width="3" opacity="0.2"/>
    <line id="Line_558" data-name="Line 558" x1="40.915" transform="matrix(-0.94, -0.342, 0.342, -0.94, 136.252, 142.464)" fill="none" stroke="rgba(255,133,116,0.26)" stroke-linecap="round" stroke-width="3" opacity="0.14"/>
    <line id="Line_559" data-name="Line 559" x2="165.607" transform="translate(192.673 169.145) rotate(-156)" fill="none" stroke="rgba(255,133,116,0.26)" stroke-linecap="round" stroke-width="3" opacity="0.98"/>
    <line id="Line_560" data-name="Line 560" x1="58.937" transform="translate(143.047 149.301) rotate(-152)" fill="none" stroke="rgba(255,133,116,0.26)" stroke-linecap="round" stroke-width="3" opacity="0.99"/>
    <line id="Line_561" data-name="Line 561" x2="145.15" transform="matrix(-0.848, -0.53, 0.53, -0.848, 178.575, 173.925)" fill="none" stroke="rgba(255,133,116,0.26)" stroke-linecap="round" stroke-width="3" opacity="0.22"/>
    <line id="Line_562" data-name="Line 562" x1="81.342" transform="translate(149.932 159.372) rotate(-144)" fill="none" stroke="rgba(255,133,116,0.26)" stroke-linecap="round" stroke-width="3" opacity="0.09"/>
    <line id="Line_563" data-name="Line 563" x1="51.143" transform="matrix(-0.766, -0.643, 0.643, -0.766, 136.618, 151.904)" fill="none" stroke="rgba(255,133,116,0.26)" stroke-linecap="round" stroke-width="3" opacity="0.27"/>
    <line id="Line_564" data-name="Line 564" x2="23.38" transform="matrix(-0.719, -0.695, 0.695, -0.719, 125.437, 143.587)" fill="none" stroke="rgba(255,133,116,0.26)" stroke-linecap="round" stroke-width="3" opacity="0.86"/>
    <line id="Line_565" data-name="Line 565" x1="196.78" transform="translate(182.863 208.585) rotate(-132)" fill="none" stroke="rgba(255,133,116,0.26)" stroke-linecap="round" stroke-width="3" opacity="0.8"/>
    <line id="Line_566" data-name="Line 566" x1="165.983" y2="52.222" transform="translate(147.547 216.941) rotate(-128)" fill="none" stroke="rgba(255,133,116,0.26)" stroke-linecap="round" stroke-width="3" opacity="0.09"/>
    <line id="Line_567" data-name="Line 567" x1="167.556" y2="48.623" transform="matrix(-0.559, -0.829, 0.829, -0.559, 143.721, 218.517)" fill="none" stroke="rgba(255,133,116,0.26)" stroke-linecap="round" stroke-width="3" opacity="0.46"/>
    <line id="Line_568" data-name="Line 568" x2="21.432" transform="translate(122.386 144.746) rotate(-120)" fill="none" stroke="rgba(255,133,116,0.26)" stroke-linecap="round" stroke-width="3" opacity="0.52"/>
    <line id="Line_569" data-name="Line 569" x1="213.329" y2="39.917" transform="translate(145.848 240.086) rotate(-116)" fill="none" stroke="rgba(255,133,116,0.26)" stroke-linecap="round" stroke-width="3" opacity="0.85"/>
    <line id="Line_570" data-name="Line 570" x1="162.134" y2="34.268" transform="matrix(-0.375, -0.927, 0.927, -0.375, 131.509, 217.049)" fill="none" stroke="rgba(255,133,116,0.26)" stroke-linecap="round" stroke-width="3" opacity="0.3"/>
    <line id="Line_571" data-name="Line 571" y1="28.812" x2="257.641" transform="translate(143.135 262.434) rotate(-108)" fill="none" stroke="rgba(255,133,116,0.26)" stroke-linecap="round" stroke-width="3" opacity="0.52"/>
    <line id="Line_572" data-name="Line 572" y1="22.652" x2="204.317" transform="translate(130.753 237.331) rotate(-104)" fill="none" stroke="rgba(255,133,116,0.26)" stroke-linecap="round" stroke-width="3" opacity="0.73"/>
    <line id="Line_573" data-name="Line 573" x2="90.11" transform="translate(124.852 179.836) rotate(-100)" fill="none" stroke="rgba(255,133,116,0.26)" stroke-linecap="round" stroke-width="3" opacity="0.59"/>
    <line id="Line_574" data-name="Line 574" x1="162.734" y2="9.875" transform="translate(120.622 216.904) rotate(-96)" fill="none" stroke="rgba(255,133,116,0.26)" stroke-linecap="round" stroke-width="3" opacity="0.68"/>
    <line id="Line_575" data-name="Line 575" x2="74.036" transform="translate(118.32 172.462) rotate(-92)" fill="none" stroke="rgba(255,133,116,0.26)" stroke-linecap="round" stroke-width="3" opacity="0.08"/>
    <line id="Line_576" data-name="Line 576" x2="106.671" transform="translate(115.167 188.769) rotate(-88)" fill="none" stroke="rgba(255,133,116,0.26)" stroke-linecap="round" stroke-width="3" opacity="0.24"/>
    <line id="Line_577" data-name="Line 577" x1="45.786" transform="translate(114.635 158.234) rotate(-84)" fill="none" stroke="rgba(255,133,116,0.26)" stroke-linecap="round" stroke-width="3" opacity="0.94"/>
    <line id="Line_578" data-name="Line 578" x1="113.977" transform="translate(107.132 191.589) rotate(-80)" fill="none" stroke="rgba(255,133,116,0.26)" stroke-linecap="round" stroke-width="3" opacity="0.32"/>
    <line id="Line_579" data-name="Line 579" x2="268.886" y2="22.705" transform="translate(73.488 263.169) rotate(-76)" fill="none" stroke="rgba(255,133,116,0.26)" stroke-linecap="round" stroke-width="3" opacity="0.99"/>
    <line id="Line_580" data-name="Line 580" x2="227.111" y2="28.761" transform="translate(68.261 239.021) rotate(-72)" fill="none" stroke="rgba(255,133,116,0.26)" stroke-linecap="round" stroke-width="3" opacity="0.35"/>
    <line id="Line_581" data-name="Line 581" x2="113.49" transform="matrix(0.375, -0.927, 0.927, 0.375, 95.771, 188.08)" fill="none" stroke="rgba(255,133,116,0.26)" stroke-linecap="round" stroke-width="3" opacity="0.45"/>
    <line id="Line_582" data-name="Line 582" x1="21.919" transform="translate(112.223 145.317) rotate(-64)" fill="none" stroke="rgba(255,133,116,0.26)" stroke-linecap="round" stroke-width="3" opacity="0.12"/>
    <line id="Line_583" data-name="Line 583" x2="202.012" y2="44.786" transform="translate(47.132 211.744) rotate(-60)" fill="none" stroke="rgba(255,133,116,0.26)" stroke-linecap="round" stroke-width="3" opacity="0.65"/>
    <line id="Line_584" data-name="Line 584" x1="196.293" transform="matrix(0.559, -0.829, 0.829, 0.559, 62.145, 216.833)" fill="none" stroke="rgba(255,133,116,0.26)" stroke-linecap="round" stroke-width="3" opacity="0.26"/>
    <line id="Line_585" data-name="Line 585" y1="32.098" x2="162.569" transform="translate(54.337 189.639) rotate(-52)" fill="none" stroke="rgba(255,133,116,0.26)" stroke-linecap="round" stroke-width="3" opacity="0.38"/>
    <line id="Line_586" data-name="Line 586" x1="34.096" transform="translate(105.62 148.136) rotate(-48)" fill="none" stroke="rgba(255,133,116,0.26)" stroke-linecap="round" stroke-width="3" opacity="0.94"/>
    <line id="Line_587" data-name="Line 587" y1="16.844" x2="144.798" transform="matrix(0.719, -0.695, 0.695, 0.719, 59.098, 179.701)" fill="none" stroke="rgba(255,133,116,0.26)" stroke-linecap="round" stroke-width="3" opacity="0.98"/>
    <line id="Line_588" data-name="Line 588" x1="171.174" y2="72.575" transform="matrix(0.766, -0.643, 0.643, 0.766, 28.139, 162.682)" fill="none" stroke="rgba(255,133,116,0.26)" stroke-linecap="round" stroke-width="3" opacity="0.86"/>
    <line id="Line_589" data-name="Line 589" x2="194.345" transform="translate(38.414 192.583) rotate(-36)" fill="none" stroke="rgba(255,133,116,0.26)" stroke-linecap="round" stroke-width="3" opacity="0.89"/>
    <line id="Line_590" data-name="Line 590" x1="65.269" transform="matrix(0.848, -0.53, 0.53, 0.848, 89.353, 152.76)" fill="none" stroke="rgba(255,133,116,0.26)" stroke-linecap="round" stroke-width="3" opacity="0.4"/>
    <line id="Line_591" data-name="Line 591" y1="57.025" x2="148.468" transform="translate(38.098 145.142) rotate(-28)" fill="none" stroke="rgba(255,133,116,0.26)" stroke-linecap="round" stroke-width="3" opacity="0.59"/>
    <line id="Line_592" data-name="Line 592" x1="79.394" transform="translate(80.764 151.613) rotate(-24)" fill="none" stroke="rgba(255,133,116,0.26)" stroke-linecap="round" stroke-width="3" opacity="0.63"/>
    <line id="Line_593" data-name="Line 593" x2="42.863" transform="matrix(0.94, -0.342, 0.342, 0.94, 96.889, 142.796)" fill="none" stroke="rgba(255,133,116,0.26)" stroke-linecap="round" stroke-width="3" opacity="0.25"/>
    <line id="Line_594" data-name="Line 594" x1="189.835" y2="35.512" transform="matrix(0.961, -0.276, 0.276, 0.961, 20.894, 144.561)" fill="none" stroke="rgba(255,133,116,0.26)" stroke-linecap="round" stroke-width="3" opacity="0.16"/>
    <line id="Line_595" data-name="Line 595" y1="27.014" x2="177.332" transform="matrix(0.978, -0.208, 0.208, 0.978, 27.491, 140.69)" fill="none" stroke="rgba(255,133,116,0.26)" stroke-linecap="round" stroke-width="3" opacity="0.33"/>
  </g>
</svg>
