<svg xmlns="http://www.w3.org/2000/svg" width="71.25" height="54.164" viewBox="0 0 71.25 54.164">
  <g id="Group_194" data-name="Group 194" transform="translate(-297 -54.01)">
    <path id="Path_903" data-name="Path 903" d="M360.132,71.91a11.739,11.739,0,0,0-2.04.188,27.081,27.081,0,0,0-51.064-.07,14.648,14.648,0,0,0-1.782-.117c-5.24,0-8.247,3.317-8.247,9.108s3.03,9.255,8.112,9.255a11.857,11.857,0,0,0,1.9-.158,27.082,27.082,0,0,0,51.064.018,13.9,13.9,0,0,0,1.928.141c5.24,0,8.247-3.317,8.247-9.108s-3.03-9.255-8.112-9.255ZM306.085,86.822a7.956,7.956,0,0,1-.967.064c-3.136,0-4.73-1.975-4.73-5.873,0-5.076,2.6-5.726,4.859-5.726.27,0,.557.018.844.041a26.988,26.988,0,0,0-.006,11.488Zm48.526-.967a22.572,22.572,0,1,1-44.118-9.566,21.769,21.769,0,0,1,.973-3.259A22.569,22.569,0,0,1,354.6,85.86ZM360,86.886c-.316,0-.651-.023-.991-.053a27.246,27.246,0,0,0,.615-5.744,26.928,26.928,0,0,0-.61-5.715,8.2,8.2,0,0,1,1.114-.088c3.136,0,4.73,1.975,4.73,5.873,0,5.076-2.6,5.721-4.859,5.721Z" fill="#b2857f"/>
    <path id="Path_904" data-name="Path 904" d="M333.07,107.3c-.809-.78-1.583-1.506-2.309-2.139a11.915,11.915,0,0,0-2.79-1.975c-.621-.264-1.12-.27-1.436.088a2.415,2.415,0,0,0-.3,1.119,15.563,15.563,0,0,0,.129,3.669c.317,2.2,1.078,4.619,2.532,6.02,2.983,2.872,6.74,1.372,8.446-.4S336.053,110.172,333.07,107.3Zm1.9,4.132c-.879.8-2.638,1.489-3.792.252-2.767-2.966-1.366-5.135-.322-4.771a6.3,6.3,0,0,1,2.438,1.911C334.43,110.073,335.848,110.63,334.969,111.433Z" transform="translate(-12.074 -20.274)" fill="#b2857f"/>
    <path id="Path_905" data-name="Path 905" d="M349.912,73.833c4.132-.264,7.532-.656,7.379-2.116-.105-1.037-5.433-5.814-9.566-5.545s-5.562,4.05-5.4,6.506S345.78,74.1,349.912,73.833Zm-1.958-4.355c4.056-.041,4.707,2.456,3.74,2.978a6.318,6.318,0,0,1-3.054.516c-1.688,0-3.054.668-3.054-.522s.68-2.948,2.368-2.972Z" transform="translate(-18.753 -5.029)" fill="#b2857f"/>
    <path id="Path_906" data-name="Path 906" d="M371.986,110.083c-2.022-1.4-3.259,1.829-5.615,5.234s-4.161,6.313-2.925,7.1c.879.563,7.93-.651,10.292-4.05s.281-6.875-1.747-8.276Zm-.985,6.4c-2.485,3.206-4.847,2.163-4.654,1.084a6.259,6.259,0,0,1,1.495-2.714c1.049-1.319,1.377-2.808,2.309-2.069s1.887,2.368.856,3.7Z" transform="translate(-27.334 -23.068)" fill="#b2857f"/>
    <path id="Path_907" data-name="Path 907" d="M341.867,96.338c.029.205.059.393.082.528.018.088.012.674.018.8.023.281.258.229.692.188s.627-.539.6-.821c-.018-.182-.3-.3-.369-.492-.023-.064-.053-.158-.076-.246.9-.012,1.964-.094,1.225-1.805-1.524-3.523.141-9.056.141-9.056s-4.9,5.515-4.326,8.968c.3,1.823,1.289,1.964,2.01,1.928Z" transform="translate(-17.718 -13.004)" fill="#b2857f"/>
    <path id="Path_908" data-name="Path 908" d="M366.86,83.02c-.275.047-.205.275-.135.7a.768.768,0,0,0,.862.539c.176-.029.281-.328.463-.4.064-.029.152-.064.24-.1.082.9.252,1.946,1.893,1.078,3.394-1.8,9.038-.574,9.038-.574s-5.885-4.449-9.284-3.6c-1.794.445-1.852,1.442-1.764,2.151-.2.047-.387.094-.522.123C367.563,82.961,366.977,83,366.86,83.02Z" transform="translate(-28.831 -10.987)" fill="#b2857f"/>
    <path id="Path_909" data-name="Path 909" d="M380.778,90.939a4.953,4.953,0,0,0-4.3,8.364l.252-.246h0l.926-.908,5.6-5.492.053-.047h0l.252-.246a4.93,4.93,0,0,0-2.79-1.424ZM377.619,98l-.621.61a4.055,4.055,0,0,1-.733-1.12l1.184-.633,1.893-1.014-1.9.762-1.313.528a4.126,4.126,0,0,1-.059-2.4l1.518.311.639.129-.61-.24-1.424-.563a4.111,4.111,0,0,1,.955-1.471,4.032,4.032,0,0,1,.92-.674l.457.762,1.049,1.747-.932-1.911-.352-.715a4.069,4.069,0,0,1,1.4-.369,4.123,4.123,0,0,1,1.465.147l-.51,2.673.738-2.6a4.066,4.066,0,0,1,1.471.9L377.619,98Z" transform="translate(-32.31 -15.26)" fill="#b2857f"/>
    <path id="Path_910" data-name="Path 910" d="M328.809,92.365a4.9,4.9,0,0,0,1.723.627l.059-.346h0l.527-3.259.944-5.838h0l.059-.346a4.96,4.96,0,0,0-5.357,2.972,4.84,4.84,0,0,0-.328,1.131,4.976,4.976,0,0,0,2.38,5.058Zm-1.541-4.929a4.259,4.259,0,0,1,.258-.908c.023-.059.053-.123.082-.182l2.7,1.131-2.585-1.354a4.143,4.143,0,0,1,2.175-1.881l1.172,2.456-.944-2.532a4.1,4.1,0,0,1,1.717-.147L331,89.23l-.469,2.9a4.137,4.137,0,0,1-1.254-.469l1.36-2.86.135-.287-.164.264-1.665,2.679a4.109,4.109,0,0,1-1.465-1.9l2-.92-2.116.557a4.086,4.086,0,0,1-.1-1.753Z" transform="translate(-12.156 -12.056)" fill="#b2857f"/>
    <path id="Path_911" data-name="Path 911" d="M361.067,101.855c.809-.656,1.911-7.725-.563-11.043s-6.43-2.456-8.4-.985.692,3.669,3.171,6.993S359.93,102.776,361.067,101.855Zm-6.993-9.419c1-.645,2.849-1.037,3.781.369,2.245,3.376.51,5.287-.457,4.759a6.343,6.343,0,0,1-2.1-2.28c-.92-1.418-2.227-2.2-1.225-2.843Z" transform="translate(-22.522 -14.284)" fill="#b2857f"/>
    <path id="Path_912" data-name="Path 912" d="M350.772,121.64a4.963,4.963,0,0,0,3.9,5.832l.07-.346h0l1.8-9.038h0l.07-.346a4.963,4.963,0,0,0-5.832,3.9Zm3.921,4.965a4.267,4.267,0,0,1-1.237-.51L355.069,123l-1.928,2.872a4.153,4.153,0,0,1-1.4-1.946l2.028-.85-2.134.481a4.006,4.006,0,0,1-.035-1.753,3.931,3.931,0,0,1,.381-1.078l2.661,1.225L352.1,120.5a4.106,4.106,0,0,1,2.245-1.8l1.084,2.5-.85-2.561a4.044,4.044,0,0,1,1.723-.082L354.7,126.61Z" transform="translate(-22.215 -26.337)" fill="#b2857f"/>
    <ellipse id="Ellipse_7" data-name="Ellipse 7" cx="1.987" cy="1.594" rx="1.987" ry="1.594" transform="translate(340.913 64.402)" fill="#b2857f"/>
    <path id="Path_913" data-name="Path 913" d="M333.946,76.993a1.6,1.6,0,1,0-1.846-1.577A1.726,1.726,0,0,0,333.946,76.993Z" transform="translate(-14.527 -8.207)" fill="#b2857f"/>
    <path id="Path_914" data-name="Path 914" d="M351.02,110.41a1.922,1.922,0,1,0,1.881-1.53A1.735,1.735,0,0,0,351.02,110.41Z" transform="translate(-22.357 -22.709)" fill="#b2857f"/>
    <path id="Path_915" data-name="Path 915" d="M344.181,127.54a1.618,1.618,0,1,0,1.641,1.618A1.63,1.63,0,0,0,344.181,127.54Z" transform="translate(-18.848 -30.432)" fill="#b2857f"/>
    <path id="Path_916" data-name="Path 916" d="M386.2,104.418a2.848,2.848,0,0,0-.662.569,1.683,1.683,0,1,0,2.485,2.087,2.519,2.519,0,0,0,.586-1.313,1.493,1.493,0,0,0-.457-1.366,1.669,1.669,0,0,0-1.952.018Z" transform="translate(-36.393 -20.726)" fill="#b2857f"/>
  </g>
</svg>
