<svg xmlns="http://www.w3.org/2000/svg" width="31.936" height="67.847" viewBox="0 0 31.936 67.847">
  <g id="Group_209" data-name="Group 209" transform="translate(-47.224 -486.73)">
    <path id="Path_1002" data-name="Path 1002" d="M49.67,546.58c-.12.15-.28.35-.35.44a2.418,2.418,0,0,0-.18.36c-.36.79-.72,1.58-1.07,2.37a3.069,3.069,0,0,0-.29.64c-.19.88-.35,1.77-.52,2.66-.14.74.11,1.04,1.1,1.34,1.06.32,1.76.16,2.01-.47a1.039,1.039,0,0,0,.07-.35q.1-1.74.18-3.48c.02-.48.32-1.27.45-1.25a.9.9,0,0,1,.28-.38,9.759,9.759,0,0,1-1.67-1.88Z" fill="#b2857f"/>
    <path id="Path_1003" data-name="Path 1003" d="M73.98,552.81a6.656,6.656,0,0,1-.5-1,6.686,6.686,0,0,0-2.08.41c-.12.05-.24.1-.34.15.13.51.1,1.58.41,1.77a2.32,2.32,0,0,0,1.86.41,2.777,2.777,0,0,0,.71-.03c.22-.06.55-.17.59-.33a1.314,1.314,0,0,0-.08-.85c-.1-.22-.41-.32-.57-.52Z" fill="#b2857f"/>
    <path id="Path_1004" data-name="Path 1004" d="M66.96,519.09a14.711,14.711,0,0,1-2.68-.25,13.509,13.509,0,0,1-1.23,1.72,6.063,6.063,0,0,0-1.33,3.18,8.765,8.765,0,0,1-.38,2.03c-.68,2.03-1.42,4.04-2.14,6.06a2.027,2.027,0,0,1-1.33,1.23c.07.13.15.29.24.46.18.32.39.71.67,1.12a3.9,3.9,0,0,0,.49.6,1.54,1.54,0,0,0,.29.23.55.55,0,0,0,.33.05,2.006,2.006,0,0,0,.78-.31c.29-.16.58-.35.92-.52a4.075,4.075,0,0,1,.56-.21,1.666,1.666,0,0,1,.31-.05h.17a.588.588,0,0,1,.2.06,1.193,1.193,0,0,1,.46.49c.1.18.17.37.25.55a3.633,3.633,0,0,0,.55,1.03.541.541,0,0,0,.47.2,1.088,1.088,0,0,0,.5-.23,11.992,11.992,0,0,0,.88-.87,3.127,3.127,0,0,1,.51-.43,1.681,1.681,0,0,1,.33-.16,1.116,1.116,0,0,1,.21-.04h.09a.274.274,0,0,1,.13.02,1.22,1.22,0,0,1,.61.48,5.08,5.08,0,0,1,.35.56,2.953,2.953,0,0,0,.64.91c.11.07.16.07.32.01a2.2,2.2,0,0,0,.46-.27c.32-.22.62-.47.95-.71.17-.12.33-.23.52-.34a1.608,1.608,0,0,1,.67-.23,1.151,1.151,0,0,1,.2.01,1.424,1.424,0,0,1,.16.03c.12.03.2.06.3.09.19.07.36.14.53.22.34.16.65.33.95.5.15.08.29.18.43.26.07.05.04.03.09.03a.517.517,0,0,0,.16-.07,3.444,3.444,0,0,0,.63-.58c.19-.21.36-.42.52-.62.27-.33.49-.64.69-.9a1.831,1.831,0,0,1,.26-.36c.09-.13.17-.24.24-.34a6.942,6.942,0,0,1-.92-3.3c-.21-2.47-.54-4.92-.87-7.38a11.23,11.23,0,0,0-2.57-5.56,8.985,8.985,0,0,1-5.54,1.59Z" fill="#b2857f"/>
    <path id="Path_1005" data-name="Path 1005" d="M54.28,539.81a2.432,2.432,0,0,0,.76.44.585.585,0,0,0,.39.03,3.5,3.5,0,0,0,.46-.15c.33-.13.67-.31,1.05-.47.19-.08.39-.16.61-.24a1.876,1.876,0,0,1,.79-.1,1.454,1.454,0,0,1,.78.46,4.012,4.012,0,0,1,.45.59c.26.4.48.81.7,1.2a3.921,3.921,0,0,0,.73,1,.357.357,0,0,0,.35.06,1.843,1.843,0,0,0,.54-.25c.38-.24.76-.56,1.18-.85a4.293,4.293,0,0,1,.7-.41,1.889,1.889,0,0,1,.44-.13,1.026,1.026,0,0,1,.25-.01.388.388,0,0,1,.15.02l.09.02a1.769,1.769,0,0,1,.75.48,5.486,5.486,0,0,1,.5.6c.3.41.57.82.88,1.17a1.966,1.966,0,0,0,.53.43.772.772,0,0,0,.61.06,2.825,2.825,0,0,0,1.06-.84,13.165,13.165,0,0,1,.96-1.03,1.782,1.782,0,0,1,.68-.37,1.563,1.563,0,0,1,.77.07,20.918,20.918,0,0,1,2.26.85c.17.06.33.11.49.15a1.694,1.694,0,0,0,.24.05l.13.02h.08a1.723,1.723,0,0,0,.78-.19,6.685,6.685,0,0,0,1.24-.85c.33-.27.57-.5.74-.66-.09-.4-.86-1.18-.6-1.47a1.588,1.588,0,0,0,.37-1.79c-.44-1.02-.37-.46-.9-1.44a1.709,1.709,0,0,1-.17-1.04c-.06.1-.13.2-.2.3-.15.21-.31.44-.49.66a3.573,3.573,0,0,1-.67.68,1.13,1.13,0,0,1-.27.14.36.36,0,0,1-.21.01.185.185,0,0,1-.07-.02h-.03l-.07-.05-.45-.21c-.3-.14-.62-.29-.95-.41a3.331,3.331,0,0,0-.93-.25,1.155,1.155,0,0,0-.4.17,4.163,4.163,0,0,0-.45.32c-.31.23-.62.48-.98.72a2.912,2.912,0,0,1-.61.32.972.972,0,0,1-.2.05c-.04,0-.09.01-.13.01h-.11a.833.833,0,0,1-.43-.17,1.847,1.847,0,0,1-.47-.56c-.11-.19-.21-.38-.31-.57s-.19-.37-.29-.53a.744.744,0,0,0-.32-.32h-.09a.512.512,0,0,0-.1.01,1.171,1.171,0,0,0-.24.09,3.511,3.511,0,0,0-.49.33c-.32.26-.62.56-.98.8a1.209,1.209,0,0,1-.62.24.861.861,0,0,1-.17-.01.429.429,0,0,1-.17-.06.934.934,0,0,1-.27-.21,4.8,4.8,0,0,1-.62-1.06,4.522,4.522,0,0,0-.29-.49.774.774,0,0,0-.35-.31.724.724,0,0,0-.41.06,3.194,3.194,0,0,0-.45.23c-.29.18-.58.38-.89.55a2.511,2.511,0,0,1-1.05.35h-.18a.251.251,0,0,1-.1-.02.792.792,0,0,1-.28-.12,2.179,2.179,0,0,1-.39-.33,3.772,3.772,0,0,1-.49-.71,8.326,8.326,0,0,1-.56-1.23h0c-.12,1.16-1.5,1.94-2.93,2.22.65.45.36.78.01,1.09-.32.28-.66.54-.97.84-.19.18-.08.79-.64,1.14a8.4,8.4,0,0,0,.95.91Z" fill="#b2857f"/>
    <path id="Path_1006" data-name="Path 1006" d="M51.46,544.32a1.856,1.856,0,0,0,.71.63.892.892,0,0,0,.2.06c.1.01.21.03.3.03a5.425,5.425,0,0,0,.58.02c.81-.01,1.72-.21,2.75-.21a3.642,3.642,0,0,1,.79.06,1.43,1.43,0,0,1,.78.51,6.517,6.517,0,0,1,.8,1.43,6.68,6.68,0,0,0,.8,1.4,1.188,1.188,0,0,0,.61.42,1.327,1.327,0,0,0,.76-.07,6.832,6.832,0,0,0,1.44-.84,5.521,5.521,0,0,1,1.6-.84,1.742,1.742,0,0,1,1.01.06,4.394,4.394,0,0,1,.84.42c.51.32.95.7,1.39,1.03a3.875,3.875,0,0,0,1.3.72c.25.09.65-.26.99-.62s.67-.8,1.07-1.18a3.245,3.245,0,0,1,.7-.54,1.286,1.286,0,0,1,.49-.16.939.939,0,0,1,.29,0l.18.02a5.089,5.089,0,0,1,1.48.44c.45.21.83.48,1.19.69a2.815,2.815,0,0,0,.5.24.586.586,0,0,0,.23.04,2.177,2.177,0,0,0,.27-.01,2.534,2.534,0,0,0,.96-.32,5.226,5.226,0,0,0,1.32-1.13l.15-.18c.02-.06.03-.11.04-.15.07.01.04-.19-.16-.65-.23-.54-.42-.92,0-1.36.82-.83-.43-2.21-.45-2.97-.12.17-.27.36-.46.59a5.684,5.684,0,0,1-1.23,1.08,2.179,2.179,0,0,1-1.05.35h-.3c-.08-.02-.18-.04-.28-.06q-.285-.06-.57-.15a23.5,23.5,0,0,1-2.22-.95c-.09-.04-.21-.08-.27-.1a.629.629,0,0,0-.12-.03h-.1a1.287,1.287,0,0,0-.51.21,7.394,7.394,0,0,0-1.01.88,3.5,3.5,0,0,1-1.19.86,1.075,1.075,0,0,1-.79-.06,2.4,2.4,0,0,1-.63-.45c-.37-.35-.68-.74-1.01-1.1a5.783,5.783,0,0,0-.51-.49,1.239,1.239,0,0,0-.52-.27c-.32-.06-.71.2-1.09.49s-.74.63-1.18.93a2.637,2.637,0,0,1-.77.38,1.221,1.221,0,0,1-.51.04h-.03l-.06-.01h-.04a.907.907,0,0,1-.14-.06.458.458,0,0,1-.14-.07.413.413,0,0,1-.11-.07,2.434,2.434,0,0,1-.59-.62,7.333,7.333,0,0,1-.4-.63c-.24-.41-.46-.82-.68-1.18a3.986,3.986,0,0,0-.34-.48.777.777,0,0,0-.3-.23,1.174,1.174,0,0,0-.46.05c-.18.05-.37.11-.55.17-.37.13-.74.28-1.11.39a2.291,2.291,0,0,1-.59.12c-.11,0-.22,0-.34-.01a.5.5,0,0,1-.16-.05,1.131,1.131,0,0,1-.13-.05,3.428,3.428,0,0,1-.86-.6,7.218,7.218,0,0,1-.94-1.11.049.049,0,0,0-.03.01c.05.65-.25.59-.84.98a2.937,2.937,0,0,0-.73.72c-.34.47-.59,1.01-.96,1.44-.04.05-.06.08-.08.1.06.16.12.32.2.51a7.375,7.375,0,0,0,.83,1.54Z" fill="#b2857f"/>
    <path id="Path_1007" data-name="Path 1007" d="M78.69,549.64a18.058,18.058,0,0,1-.91-2.07,1.751,1.751,0,0,1,.03-.58,4.356,4.356,0,0,1-1.13,1.08,3.094,3.094,0,0,1-1.11.46c-.12.02-.23.03-.32.04a2.293,2.293,0,0,1-.37-.02,2.651,2.651,0,0,1-.67-.24,6.069,6.069,0,0,0-2.46-.88l-.18-.02h-.09a.851.851,0,0,0-.22.08,2.51,2.51,0,0,0-.5.41c-.33.35-.66.76-1.05,1.17a4.041,4.041,0,0,1-.68.6,1.707,1.707,0,0,1-.49.23,1.486,1.486,0,0,1-.33.04h-.15c-.07-.01-.03,0-.05,0h-.02l-.06-.02a4.3,4.3,0,0,1-1.6-.91c-.45-.36-.87-.73-1.31-1.06a3.07,3.07,0,0,0-.67-.39,1.313,1.313,0,0,0-.68-.09,4.877,4.877,0,0,0-1.5.62,8.4,8.4,0,0,1-1.57.75,1.713,1.713,0,0,1-.9.05,1.582,1.582,0,0,1-.75-.5,10.324,10.324,0,0,1-.89-1.41,5.692,5.692,0,0,0-.86-1.26.976.976,0,0,0-.5-.29,4.185,4.185,0,0,0-.7.03,22.423,22.423,0,0,1-2.78.29,5.191,5.191,0,0,1-.68-.05c-.11-.02-.2-.04-.31-.06a1.475,1.475,0,0,1-.37-.13,2.329,2.329,0,0,1-.9-.89,5.238,5.238,0,0,1-.45-.93c-.28.6-1.07,1.07-1.07,1.82a9.71,9.71,0,0,0,2.47,2.9c.38.12.84.42,1.35.65.78.34.94.33,1.73.64a3.169,3.169,0,0,1,1.02.69,4.967,4.967,0,0,0,2.71,1.25c.64.08,1.28.13,1.9.27a7.025,7.025,0,0,1,1.22.48c.73.32,2.24-.01,3,.2,1.44.56,1.9-.2,2.8-.27,1.73.76,2.46-.12,3.01-.23a3.482,3.482,0,0,1,.58-.27,7.3,7.3,0,0,1,3.6-.33,10.843,10.843,0,0,0,2.44-.15,6.186,6.186,0,0,0,1.89-.96,7.062,7.062,0,0,1-.5-.78Z" fill="#b2857f"/>
    <path id="Path_1008" data-name="Path 1008" d="M63.09,503.22a2.481,2.481,0,0,1,.18-.52,7.163,7.163,0,0,1,1.66-1.9h-.06a.632.632,0,0,1-.35-.33.611.611,0,0,1-.07-.24v-.06h-.08a.66.66,0,0,1-.27-.06.912.912,0,0,1-.13-.08.378.378,0,0,1-.1-.12.449.449,0,0,1-.05-.3.7.7,0,0,1,.51-.56.616.616,0,0,1,.19-.02c-.01-.07-.03-.14-.04-.21a.876.876,0,0,1,0-.28.614.614,0,0,1,.09-.28c.04-.04.06-.09.12-.11a.442.442,0,0,1,.16-.06.472.472,0,0,1,.31.06.661.661,0,0,1,.24.2.975.975,0,0,1,.15.26.564.564,0,0,1,.04.12,1.072,1.072,0,0,1,.27-.06.743.743,0,0,1,.25.03.452.452,0,0,1,.24.18.431.431,0,0,1,.04.31.5.5,0,0,1-.12.23.551.551,0,0,1-.09.07.47.47,0,0,1,.12.09,5.941,5.941,0,0,0,.86-1.03,2.256,2.256,0,0,0,.23-.47,1.865,1.865,0,0,0,.1-.39.308.308,0,0,1,.01-.1,3.478,3.478,0,0,0-5.21.9c-.37.55-.77,1.08-1.19,1.65v.03c.06.15.12.33.2.52a15.3,15.3,0,0,0,1.48,2.61c.1.13.2.26.29.39v-.22a.969.969,0,0,1,.03-.23Z" fill="#b2857f"/>
    <path id="Path_1009" data-name="Path 1009" d="M59.3,505.12c.62,1.2,1.35,2.35,1.99,3.55.39.74.73,1.52,1.09,2.28,0-.17-.01-.35,0-.53,0-.26,0-.54.02-.81,0-.28.04-.56.06-.83.04-.28.06-.56.11-.83s.09-.54.14-.8a12.116,12.116,0,0,1,.36-1.39,4.745,4.745,0,0,1,.2-.54c.06-.16.13-.29.18-.4a1.933,1.933,0,0,1,.14-.24c0-.01.01-.02.02-.03-.16-.16-.32-.34-.48-.52a.01.01,0,0,0-.01-.01h-.01V504c-.17-.19-.33-.4-.5-.6a15.059,15.059,0,0,1-1.63-2.59c-.09-.19-.17-.37-.24-.52,0-.02-.01-.03-.02-.05-.66-.77-.73-1.16-.23-1.88a15.676,15.676,0,0,1,1.8-2.18c.73-.74,1.56-1.38,2.36-2.09.96.58,1.96,1.28,3.04,1.82a2.732,2.732,0,0,1,1.78,2.84,27.611,27.611,0,0,1-.2,4.08c-.04,0,.2-1.11-.73-.87.47-.22.72-.69.28-1.02-.05-.68.83-.33.32-.94-.42-.49-.83-.76-.95-1.45a1.108,1.108,0,0,0-.3-.55,4.088,4.088,0,0,0-.41-.42v.1a1.4,1.4,0,0,1-.09.4,3.314,3.314,0,0,1-.22.48,5.479,5.479,0,0,1-.84,1.06h0a.417.417,0,0,1,.08.3.618.618,0,0,1-.09.27.856.856,0,0,1-.19.19.673.673,0,0,1-.12.06.3.3,0,0,1-.13.02.519.519,0,0,1-.25-.07c-.02,0-.03-.02-.04-.04-.07.07-.15.14-.23.21,0,.02-.01.03-.02.05a.324.324,0,0,1-.08.09.36.36,0,0,1-.1.07h-.02a7.464,7.464,0,0,0-1.69,2,1.691,1.691,0,0,0-.16.48.749.749,0,0,0-.02.21v.18a1.067,1.067,0,0,0,.06.33h0c.16.2.32.39.48.56.17.2.35.37.51.53s.34.31.49.45.31.24.44.35a2.979,2.979,0,0,0,.36.25c.03.02.05.03.08.05a15.765,15.765,0,0,1,1.37.8,16.262,16.262,0,0,1,1.42,1.05,9.922,9.922,0,0,1,1.26,1.25,5.2,5.2,0,0,1,.73,1.11,3,3,0,0,0-.14-.97,10.419,10.419,0,0,0-.55-1.4c-.22-.46-.46-.9-.72-1.34s-.52-.87-.8-1.3a16.1,16.1,0,0,1,1.72,2.53,7.154,7.154,0,0,1,.61,1.42,2.49,2.49,0,0,1,.06,1.6l-.14.37-.13-.38a4.943,4.943,0,0,0-.85-1.47,10.98,10.98,0,0,0-1.21-1.25,16.411,16.411,0,0,0-1.36-1.11c-.44-.33-.89-.64-1.35-.94a.031.031,0,0,1-.02-.01c-.1-.06-.23-.13-.37-.23s-.3-.2-.46-.33-.34-.26-.52-.43-.37-.33-.54-.51a.435.435,0,0,1-.06-.07c0,.01,0,.02-.02.03a1.836,1.836,0,0,0-.13.25c-.05.11-.11.24-.17.41a4.95,4.95,0,0,0-.17.54,12.8,12.8,0,0,0-.3,1.39c-.04.26-.08.52-.11.79s-.05.55-.07.82c0,.28-.03.55-.03.83s0,.54.01.8.03.51.05.74c.01.19.04.37.06.54.25.46.63.86.88,1.33a9.022,9.022,0,0,1,.72,5.41h.03q.39.075.81.12c2.09.25,4.8.12,6.65-1.07.12-.08.24-.16.36-.25a.555.555,0,0,0,.08-.06,4.652,4.652,0,0,1,.09-3.83,4.44,4.44,0,0,0,.03-4.72,6.558,6.558,0,0,0-1.23-1.7,5.994,5.994,0,0,0-.46-.4c-.16-.12-.32-.23-.48-.34-.17-.09-.32-.2-.48-.27s-.31-.16-.45-.21a7.071,7.071,0,0,0-.7-.25c-.05-.01-.09-.03-.13-.04-.01.04-.03.09-.04.13-.93-.8-1.19-1.26-.99-1.67a1.47,1.47,0,0,1,1.68-.69c-.21.72-.42,1.45-.65,2.22a.788.788,0,0,1,.13.03,6.469,6.469,0,0,1,.72.2c.15.04.3.12.47.18s.33.16.51.24c.17.1.34.2.51.31a4.57,4.57,0,0,1,.49.38,6.258,6.258,0,0,1,.93,1.01,21.49,21.49,0,0,1,.07-4.16,54.158,54.158,0,0,0-.29-6.47,2.854,2.854,0,0,0-2.51-3.04,20.923,20.923,0,0,1-3.59-1.55,4.2,4.2,0,0,1-.55-.35c.38-1.52,1.6-2.38,2.6-3.41-.04-.06-.09-.12-.13-.18l-1.97,1c.15-.99.28-1.86.42-2.75a1.452,1.452,0,0,0-1.23,1.53,3.007,3.007,0,0,1-1.69,2.49v-1.91c-.07-.01-.13-.03-.2-.04-.12.25-.25.5-.43.86-.73-.89-.28-2.06-.96-3.04-.06.49-.1.83-.14,1.23-.22-.13-.43-.24-.78-.44.27.55.47.96.68,1.37a.9.9,0,0,0-.09.1l-1.91-1.4c-.03.05-.07.09-.1.14.32.34.63.69.97,1.01a5.009,5.009,0,0,1,1.55,2.66,6.051,6.051,0,0,0,.76,1.5c-1.47,1.18-3.01,2.45-4.57,3.68a2.665,2.665,0,0,0-.96,2.61,16.578,16.578,0,0,0,2.13,5.87Z" fill="#b2857f"/>
    <path id="Path_1010" data-name="Path 1010" d="M65.43,500.36a.43.43,0,0,0,.07-.07.218.218,0,0,0-.04-.05A.527.527,0,0,1,65.43,500.36Z" fill="#b2857f"/>
    <path id="Path_1011" data-name="Path 1011" d="M65.55,500.27a.322.322,0,0,0,.07.04.049.049,0,0,1,.03.01.338.338,0,0,0,.2.02.317.317,0,0,0,.09-.03c.03-.01.05-.04.08-.05a.567.567,0,0,0,.12-.15.593.593,0,0,0,.04-.17.2.2,0,0,0-.03-.11.02.02,0,0,0-.02-.02c0-.01-.02-.02-.03-.03a.313.313,0,0,0-.1-.05,1.107,1.107,0,0,0-.19-.02h-.02a.156.156,0,0,1-.12-.18c0-.05.04-.08.08-.11a.824.824,0,0,0,.25-.19.407.407,0,0,0,.06-.11.163.163,0,0,0,0-.07c0-.02-.03-.03-.06-.05a.521.521,0,0,0-.14-.02,1.029,1.029,0,0,0-.33.07h0a.143.143,0,0,1-.18-.1v-.02c-.02-.08-.03-.16-.05-.23a.512.512,0,0,0-.1-.21.573.573,0,0,0-.15-.16.3.3,0,0,0-.19-.07.18.18,0,0,0-.1.02c-.03,0-.05.04-.08.06a.487.487,0,0,0-.09.22.7.7,0,0,0,0,.25,1.193,1.193,0,0,0,.05.26.055.055,0,0,1-.04.06h-.01a.511.511,0,0,0-.21.03.545.545,0,0,0-.18.11.656.656,0,0,0-.12.17.646.646,0,0,0-.04.19.246.246,0,0,0,.05.15c.01.02.04.03.05.05l.07.04a1.078,1.078,0,0,0,.19.03h.21a.137.137,0,0,1,.14.14v.05a.318.318,0,0,0-.02.14.453.453,0,0,0,.03.16.5.5,0,0,0,.2.25.169.169,0,0,0,.14.01.212.212,0,0,0,.07-.03.3.3,0,0,0,.07-.05,1.355,1.355,0,0,0,.22-.33.014.014,0,0,1,.02,0h0l.08.06h.01Zm-.06-.68a.307.307,0,0,1-.13.22.349.349,0,0,1-.17.06.449.449,0,0,1-.19-.05.524.524,0,0,1-.25-.31.261.261,0,0,1,.05-.22.489.489,0,0,1,.18-.14.353.353,0,0,1,.2-.02.284.284,0,0,1,.17.07.391.391,0,0,1,.13.23.206.206,0,0,1,0,.09v.09Z" fill="#b2857f"/>
    <path id="Path_1012" data-name="Path 1012" d="M65.29,499.34a.746.746,0,0,1-.11-.01.486.486,0,0,0-.12.01.238.238,0,0,0-.11.06.242.242,0,0,0-.08.11.206.206,0,0,0,.03.15.235.235,0,0,0,.14.07c.03,0,.12,0,.14-.02.04,0,.08-.02.11-.02a.237.237,0,0,0,.17-.09.1.1,0,0,0,.02-.08.24.24,0,0,0-.02-.08.231.231,0,0,0-.17-.09Z" fill="#b2857f"/>
  </g>
</svg>
