<svg xmlns="http://www.w3.org/2000/svg" width="30.579" height="61.213" viewBox="0 0 30.579 61.213">
  <g id="Layer_1" data-name="Layer 1" transform="translate(0.002)">
    <g id="Group_225" data-name="Group 225" transform="translate(-0.002 0)">
      <path id="Path_1015" data-name="Path 1015" d="M13.713,21.659C13.574,19.986,9.394,16.5,9.394,16.5V3.83a1.768,1.768,0,0,0,.464-1.276,1.883,1.883,0,0,0-.366-1.17A.732.732,0,0,0,9.859.776.882.882,0,0,0,8.9,0H4.872a.882.882,0,0,0-.959.776.732.732,0,0,0,.364.607,1.872,1.872,0,0,0-.364,1.17A1.777,1.777,0,0,0,4.377,3.83V16.5S.2,19.989.059,21.659s0,37.308,0,37.308S.756,60.141,6.885,60c6.129.138,6.825-1.034,6.825-1.034s.138-35.638,0-37.308Z" transform="translate(0.002 0)"/>
      <g id="Group_223" data-name="Group 223" transform="translate(0.432 0.162)">
        <path id="Path_1016" data-name="Path 1016" d="M19.93,1.15a.679.679,0,0,1,.188-.46h-1.4a.683.683,0,0,0-.188.46.7.7,0,0,0,.251.521h1.4A.7.7,0,0,1,19.93,1.15Z" transform="translate(-14.615 -0.69)" fill="#a1a1a1"/>
        <path id="Path_1017" data-name="Path 1017" d="M20.228,6.3h-1.4a1.95,1.95,0,0,0-.3,1.077,1.9,1.9,0,0,0,.342,1.138h1.4a1.9,1.9,0,0,1-.342-1.138,1.944,1.944,0,0,1,.3-1.077Z" transform="translate(-14.615 -4.984)" fill="#a1a1a1"/>
        <path id="Path_1018" data-name="Path 1018" d="M3.3,71.337s-.138-35.014,0-36.686S7.618,29.5,7.618,29.5V16.97h-1.4V29.5S2.038,32.978,1.9,34.651s0,36.686,0,36.686.68,1.138,6.553,1.039C3.865,72.287,3.3,71.337,3.3,71.337Z" transform="translate(-1.838 -13.151)" fill="#a1a1a1"/>
        <path id="Path_1019" data-name="Path 1019" d="M34.881,253.17c-.244,0-.474.009-.7.009.342,0,.666,0,.973,0-.091,0-.178,0-.272,0Z" transform="translate(-26.594 -193.95)" fill="#a1a1a1"/>
      </g>
      <path id="Path_1020" data-name="Path 1020" d="M33.97,16.97V29.5l1.771.922-1.041-1V16.97Z" transform="translate(-26.002 -12.99)" fill="#9e9e9e"/>
      <path id="Path_1021" data-name="Path 1021" d="M38.33,85.932l.439,2.646v36.56a13.336,13.336,0,0,0,1.447-.145c.568-.106.624-.213.624-.213V88.109L39.585,85.93H38.33Z" transform="translate(-29.339 -65.775)" fill="#3d3d3d"/>
      <g id="Group_224" data-name="Group 224" transform="translate(5.374 17.666)">
        <path id="Path_1022" data-name="Path 1022" d="M23.665,254.722c-.263.007-.511.009-.755.009.312,0,.643,0,.99-.007-.077,0-.152,0-.235,0Z" transform="translate(-22.91 -212.641)" fill="#9e9e9e"/>
        <path id="Path_1023" data-name="Path 1023" d="M33.958,75.32h0c1.236,1.161,2.9,2.9,2.986,3.94.138,1.663,0,37.111,0,37.111s-.6,1.006-5.6,1.039c5.43.03,6.07-1.039,6.07-1.039s.141-35.448,0-37.111C37.323,78.221,35.194,76.481,33.958,75.32Z" transform="translate(-29.363 -75.32)" fill="#9e9e9e"/>
      </g>
      <path id="Path_1024" data-name="Path 1024" d="M11.129,91.742c.035.183-.228.366-.586.4a23.965,23.965,0,0,1-3.978,0c-.361-.03-.624-.211-.586-.4h0c.035-.185.34.009.68.038a23.267,23.267,0,0,0,3.793,0c.34-.028.645-.22.68-.038h0Z" transform="translate(-4.573 -70.163)" fill="#a1a1a1"/>
    </g>
    <g id="Group_226" data-name="Group 226" transform="translate(18.324 23.988)">
      <path id="Path_1025" data-name="Path 1025" d="M86.916,118.884c6.143-4.236,2.878-16.074,2.878-16.074H79.528s-3.267,11.838,2.878,16.074c2.411,2.967,1.834,15.879,1.447,17.359-.31,1.187-3.448,1.745-4.4,1.963v.115H89.74v-.115c-.948-.218-3.962-.776-4.271-1.963C85.082,134.761,84.505,121.849,86.916,118.884Z" transform="translate(-78.536 -102.683)" fill="#f5f5f5"/>
      <path id="Path_1026" data-name="Path 1026" d="M91.731,121.32H81.155S79.9,132.8,86.447,132.8c4.883,0,5.941-5.742,5.282-11.481Z" transform="translate(-80.372 -116.852)" fill="#cf2c34"/>
      <path id="Path_1027" data-name="Path 1027" d="M83.969,121.312H80.725s-1.255,11.481,5.291,11.481a5.083,5.083,0,0,0,1.665-.263c-4.754-1.705-3.715-11.221-3.715-11.221Z" transform="translate(-80.043 -116.844)" fill="#800514"/>
      <path id="Path_1028" data-name="Path 1028" d="M83.474,118.625H83.6c-5.664-4.431-2.043-15.825-2.043-15.825h-.624s-3.143,11.392,2.54,15.825Z" transform="translate(-79.61 -102.676)" fill="#a1a1a1" opacity="0.5"/>
      <path id="Path_1029" data-name="Path 1029" d="M96.49,170.93s1.419.2,1.818.936c.584-.793.873-.718,1.719-.936a6.918,6.918,0,0,1-1.67.157A12.81,12.81,0,0,1,96.49,170.93Z" transform="translate(-92.184 -154.826)" fill="#a1a1a1"/>
      <path id="Path_1030" data-name="Path 1030" d="M91.523,107.75h1.245s-.776,4.114-.307,6.359c-1.339.016-1.506.009-1.506.009A13.958,13.958,0,0,1,91.523,107.75Z" transform="translate(-87.841 -106.465)" fill="#d4d4d4" opacity="0.75"/>
      <path id="Path_1031" data-name="Path 1031" d="M89.459,138.032H78.925v-.34l.1-.021c.781-.178,4-.72,4.3-1.872.432-1.658.912-14.333-1.412-17.237-2.538-1.759-3.847-5.12-3.781-9.72a29.028,29.028,0,0,1,.87-6.481l.026-.091H89.485l.026.091a29,29,0,0,1,.87,6.481c.063,4.6-1.243,7.961-3.781,9.72-2.324,2.9-1.844,15.579-1.412,17.237.3,1.152,3.4,1.693,4.18,1.872l.1.021v.34Zm-9.877-.249H88.8c-1.02-.293-3.586-.87-3.861-1.921a48.161,48.161,0,0,1-.328-8.158c.1-3.356.488-7.7,1.8-9.312l.026-.023c3.127-2.156,3.732-6.366,3.689-9.516a28.9,28.9,0,0,0-.837-6.331H79.218a28.9,28.9,0,0,0-.837,6.331c-.042,3.15.563,7.36,3.689,9.516l.026.023c1.313,1.616,1.705,5.955,1.8,9.312a48.158,48.158,0,0,1-.328,8.158c-.274,1.051-2.965,1.628-3.985,1.921Z" transform="translate(-78.13 -102.27)" fill="#3d3d3d"/>
      <path id="Path_1032" data-name="Path 1032" d="M116.273,105.233c.767,2.946-.486,3.668.3,3.668.971,0,.875-1.145.758-2.17C117.153,105.179,116.109,104.6,116.273,105.233Z" transform="translate(-107.313 -104.346)" fill="#cfcfcf"/>
    </g>
    <g id="Group_227" data-name="Group 227" transform="translate(10.961 25.451)">
      <path id="Path_1033" data-name="Path 1033" d="M55.526,125.124c6.143-4.236,2.878-16.074,2.878-16.074H48.138s-3.267,11.838,2.878,16.074c2.411,2.967,1.834,15.879,1.447,17.359-.31,1.187-3.448,1.745-4.4,1.963v.115H58.351v-.115c-.948-.218-3.962-.776-4.271-1.963-.387-1.48-.964-14.392,1.447-17.359Z" transform="translate(-47.146 -108.923)" fill="#f5f5f5"/>
      <path id="Path_1034" data-name="Path 1034" d="M60.341,127.56H49.765s-1.255,11.481,5.291,11.481c4.883,0,5.941-5.739,5.282-11.481Z" transform="translate(-48.982 -123.092)" fill="#cf2c34"/>
      <path id="Path_1035" data-name="Path 1035" d="M52.569,127.56H49.325s-1.255,11.481,5.291,11.481a5.147,5.147,0,0,0,1.665-.26c-4.754-1.705-3.715-11.221-3.715-11.221Z" transform="translate(-48.645 -123.092)" fill="#800514"/>
      <path id="Path_1036" data-name="Path 1036" d="M52.084,124.875h.124c-5.664-4.431-2.043-15.825-2.043-15.825h-.624s-3.143,11.395,2.54,15.825Z" transform="translate(-48.22 -108.923)" fill="#a1a1a1" opacity="0.5"/>
      <path id="Path_1037" data-name="Path 1037" d="M65.1,177.18s1.419.2,1.818.936c.584-.793.873-.718,1.719-.936a6.9,6.9,0,0,1-1.67.157A12.805,12.805,0,0,1,65.1,177.18Z" transform="translate(-60.794 -161.073)" fill="#a1a1a1"/>
      <path id="Path_1038" data-name="Path 1038" d="M60.133,113.99h1.245s-.776,4.114-.307,6.359c-1.339.016-1.506.009-1.506.009A13.957,13.957,0,0,1,60.133,113.99Z" transform="translate(-56.451 -112.705)" fill="#d4d4d4" opacity="0.75"/>
      <path id="Path_1039" data-name="Path 1039" d="M58.069,144.272H47.535v-.34l.1-.021c.781-.181,4-.722,4.3-1.872.432-1.658.912-14.333-1.412-17.237-2.538-1.759-3.847-5.12-3.781-9.72a29.029,29.029,0,0,1,.87-6.481l.026-.091H58.092l.026.091a29.16,29.16,0,0,1,.87,6.481c.063,4.6-1.243,7.961-3.781,9.72-2.324,2.9-1.844,15.579-1.412,17.237.3,1.152,3.4,1.693,4.18,1.872l.1.021v.34Zm-9.877-.249H57.41c-1.02-.293-3.584-.87-3.861-1.923a48.159,48.159,0,0,1-.328-8.158c.1-3.356.488-7.7,1.8-9.312l.026-.023c3.127-2.156,3.732-6.366,3.689-9.516a28.9,28.9,0,0,0-.837-6.331H47.826a28.9,28.9,0,0,0-.837,6.331c-.042,3.15.563,7.36,3.689,9.516l.026.023c1.313,1.616,1.705,5.955,1.8,9.312a47.807,47.807,0,0,1-.331,8.158c-.274,1.051-2.965,1.628-3.985,1.923Z" transform="translate(-46.74 -108.51)" fill="#3d3d3d"/>
      <path id="Path_1040" data-name="Path 1040" d="M84.883,111.473c.767,2.946-.486,3.668.3,3.668.971,0,.875-1.145.758-2.17C85.763,111.419,84.719,110.844,84.883,111.473Z" transform="translate(-75.923 -110.586)" fill="#cfcfcf"/>
    </g>
  </g>
</svg>
